MagicSymbols2008.sfdir
StartChar: exclam
Encoding: 33 33 4
Width: 285
Flags: W
LayerCount: 2
Fore
SplineSet
123 678 m 2,0,-1
 166 678 l 2,1,2
 199 678 199 678 199 644 c 2,3,-1
 199 637 l 1,4,-1
 165 202 l 2,5,6
 163 181 163 181 150 181 c 2,7,-1
 135 181 l 2,8,9
 124 181 124 181 123 200 c 2,10,-1
 89 642 l 2,11,12
 89 678 89 678 123 678 c 2,0,-1
83 49 m 256,13,14
 83 74 83 74 100.5 91.5 c 128,-1,15
 118 109 118 109 143 109 c 256,16,17
 168 109 168 109 186 91.5 c 128,-1,18
 204 74 204 74 204 49 c 256,19,20
 204 24 204 24 186 6.5 c 128,-1,21
 168 -11 168 -11 143 -11 c 256,22,23
 118 -11 118 -11 100.5 6.5 c 128,-1,24
 83 24 83 24 83 49 c 256,13,14
EndSplineSet
EndChar
StartChar: quotedbl
Encoding: 34 34 5
Width: 337
Flags: W
LayerCount: 2
Fore
SplineSet
247 394 m 1,0,-1
 212 394 l 1,1,-1
 201 666 l 1,2,-1
 258 666 l 1,3,-1
 247 394 l 1,0,-1
124 394 m 1,4,-1
 89 394 l 1,5,-1
 78 666 l 1,6,-1
 135 666 l 1,7,-1
 124 394 l 1,4,-1
EndSplineSet
EndChar
StartChar: numbersign
Encoding: 35 35 6
Width: 579
Flags: W
LayerCount: 2
Fore
SplineSet
380 413 m 1,0,-1
 233 413 l 1,1,-1
 210 266 l 1,2,-1
 358 266 l 1,3,-1
 380 413 l 1,0,-1
509 266 m 1,4,-1
 507 223 l 1,5,-1
 395 223 l 1,6,-1
 361 0 l 1,7,-1
 317 0 l 1,8,-1
 351 223 l 1,9,-1
 204 223 l 1,10,-1
 169 0 l 1,11,-1
 126 0 l 1,12,-1
 160 223 l 1,13,-1
 47 223 l 1,14,-1
 48 266 l 1,15,-1
 166 266 l 1,16,-1
 189 413 l 1,17,-1
 76 413 l 1,18,-1
 77 456 l 1,19,-1
 195 456 l 1,20,-1
 227 666 l 1,21,-1
 271 666 l 1,22,-1
 239 456 l 1,23,-1
 387 456 l 1,24,-1
 419 666 l 1,25,-1
 463 666 l 1,26,-1
 431 456 l 1,27,-1
 537 456 l 1,28,-1
 535 413 l 1,29,-1
 424 413 l 1,30,-1
 402 266 l 1,31,-1
 509 266 l 1,4,-1
EndSplineSet
EndChar
StartChar: dollar
Encoding: 36 36 7
Width: 539
Flags: W
LayerCount: 2
Fore
SplineSet
347 249 m 1,0,-1
 347 40 l 1,1,2
 424 74 424 74 424 148 c 0,3,4
 424 210 424 210 347 249 c 1,0,-1
179 410 m 1,5,-1
 179 576 l 1,6,-1
 177 575 l 2,7,8
 122 548 122 548 122 496 c 0,9,10
 122 442 122 442 176 410 c 1,11,-1
 179 410 l 1,5,-1
215 298 m 1,12,-1
 215 38 l 1,13,14
 246 29 246 29 283 29 c 0,15,16
 287 29 287 29 295 30 c 2,17,-1
 311 30 l 1,18,-1
 311 264 l 1,19,-1
 260 281 l 1,20,-1
 215 298 l 1,12,-1
215 587 m 1,21,-1
 215 394 l 1,22,23
 235 386 235 386 268 375 c 2,24,-1
 289 368 l 1,25,-1
 311 361 l 1,26,-1
 311 586 l 1,27,28
 292 594 292 594 265 594 c 0,29,30
 240 594 240 594 215 587 c 1,21,-1
215 630 m 1,31,32
 243 634 243 634 264 634 c 0,33,34
 284 634 284 634 311 630 c 1,35,-1
 311 666 l 1,36,-1
 347 666 l 1,37,-1
 347 622 l 1,38,39
 390 610 390 610 424 585 c 0,40,41
 467 553 467 553 467 516 c 0,42,43
 467 478 467 478 433 478 c 0,44,45
 396 478 396 478 374 529 c 2,46,-1
 367 545 l 2,47,48
 361 560 361 560 347 569 c 1,49,-1
 347 349 l 1,50,51
 408 329 408 329 446 284 c 128,-1,52
 484 239 484 239 484 177 c 0,53,54
 484 113 484 113 446.5 65 c 128,-1,55
 409 17 409 17 347 -1 c 1,56,-1
 347 -110 l 1,57,-1
 311 -110 l 1,58,-1
 311 -8 l 1,59,60
 275 -10 275 -10 270 -10 c 0,61,62
 244 -10 244 -10 215 -6 c 1,63,-1
 215 -110 l 1,64,-1
 179 -110 l 1,65,-1
 179 1 l 1,66,67
 136 13 136 13 99 40 c 0,68,69
 53 74 53 74 53 111 c 0,70,71
 53 128 53 128 66.5 142 c 128,-1,72
 80 156 80 156 97 156 c 0,73,74
 119 156 119 156 132 138 c 0,75,76
 139 128 139 128 149 99 c 128,-1,77
 159 70 159 70 179 54 c 1,78,-1
 179 313 l 1,79,-1
 177 314 l 2,80,81
 62 371 62 371 62 470 c 0,82,83
 62 581 62 581 179 621 c 1,84,-1
 179 666 l 1,85,-1
 215 666 l 1,86,-1
 215 630 l 1,31,32
EndSplineSet
EndChar
StartChar: percent
Encoding: 37 37 8
Width: 722
Flags: W
LayerCount: 2
Fore
SplineSet
491 164 m 2,0,1
 491 35 491 35 573 35 c 256,2,3
 655 35 655 35 655 163 c 0,4,5
 655 286 655 286 575 286 c 0,6,7
 532 286 532 286 510 249 c 0,8,9
 491 218 491 218 491 172 c 2,10,-1
 491 164 l 2,0,1
67 485 m 2,11,-1
 67 477 l 2,12,13
 67 356 67 356 149 356 c 256,14,15
 231 356 231 356 231 484 c 0,16,17
 231 608 231 608 151 608 c 0,18,19
 67 608 67 608 67 485 c 2,11,-1
443 165 m 2,20,21
 443 326 443 326 576 326 c 0,22,23
 642 326 642 326 674 277 c 0,24,25
 702 236 702 236 702 167 c 0,26,27
 702 -4 702 -4 571 -4 c 0,28,29
 443 -4 443 -4 443 157 c 2,30,-1
 443 165 l 2,20,21
511 643 m 1,31,-1
 260 0 l 1,32,-1
 211 0 l 1,33,-1
 462 643 l 1,34,-1
 511 643 l 1,31,-1
20 486 m 2,35,36
 20 558 20 558 50 600 c 0,37,38
 84 648 84 648 152 648 c 0,39,40
 218 648 218 648 250 599 c 0,41,42
 278 557 278 557 278 488 c 0,43,44
 278 415 278 415 250 370 c 0,45,46
 217 316 217 316 148 316 c 0,47,48
 20 316 20 316 20 478 c 2,49,-1
 20 486 l 2,35,36
EndSplineSet
EndChar
StartChar: ampersand
Encoding: 38 38 9
Width: 732
Flags: W
LayerCount: 2
Fore
SplineSet
298 450 m 1,0,1
 382 498 382 498 382 544 c 0,2,3
 382 573 382 573 352 606 c 0,4,5
 327 634 327 634 304 634 c 0,6,7
 273 634 273 634 243.5 611 c 128,-1,8
 214 588 214 588 214 558 c 0,9,10
 214 515 214 515 298 450 c 1,0,1
240 364 m 1,11,12
 127 286 127 286 127 218 c 0,13,14
 127 155 127 155 183 107 c 0,15,16
 236 61 236 61 300 61 c 0,17,18
 362 61 362 61 426 116 c 1,19,20
 328 286 328 286 240 364 c 1,11,12
499 429 m 1,21,-1
 703 429 l 1,22,-1
 703 392 l 1,23,24
 660 384 660 384 634 353 c 0,25,26
 621 337 621 337 592 283 c 0,27,28
 557 218 557 218 518 166 c 1,29,-1
 523 160 l 1,30,-1
 553 123 l 2,31,32
 597 68 597 68 658 53 c 0,33,34
 702 42 702 42 702 14 c 0,35,36
 702 -10 702 -10 659 -10 c 2,37,-1
 626 -10 l 2,38,39
 507 -10 507 -10 449 84 c 1,40,41
 345 -11 345 -11 241 -11 c 0,42,43
 155 -11 155 -11 97 35 c 0,44,45
 34 85 34 85 34 169 c 0,46,47
 34 240 34 240 112 313 c 0,48,49
 137 336 137 336 157 351 c 0,50,51
 168 360 168 360 203 384 c 2,52,-1
 214 391 l 1,53,54
 142 470 142 470 142 524 c 0,55,56
 142 574 142 574 202 625 c 0,57,58
 272 684 272 684 330 684 c 0,59,60
 385 684 385 684 427 626 c 0,61,62
 456 586 456 586 456 557 c 0,63,64
 456 518 456 518 407 477 c 0,65,66
 386 458 386 458 326 421 c 1,67,68
 384 367 384 367 494 202 c 1,69,-1
 504 218 l 2,70,71
 560 308 560 308 560 337 c 0,72,73
 560 381 560 381 499 391 c 1,74,-1
 499 429 l 1,21,-1
EndSplineSet
EndChar
StartChar: quotesingle
Encoding: 39 39 10
Width: 168
Flags: W
LayerCount: 2
Fore
SplineSet
101 394 m 1,0,-1
 66 394 l 1,1,-1
 55 666 l 1,2,-1
 113 666 l 1,3,-1
 101 394 l 1,0,-1
EndSplineSet
EndChar
StartChar: parenleft
Encoding: 40 40 11
Width: 376
Flags: W
LayerCount: 2
Fore
SplineSet
331 680 m 1,0,-1
 361 641 l 1,1,-1
 354 635 l 2,2,3
 251 547 251 547 215 486 c 0,4,5
 153 381 153 381 153 243 c 0,6,7
 153 -16 153 -16 361 -143 c 1,8,-1
 331 -180 l 1,9,10
 92 -35 92 -35 92 247 c 0,11,12
 92 385 92 385 155 493 c 0,13,14
 212 589 212 589 331 680 c 1,0,-1
EndSplineSet
EndChar
StartChar: parenright
Encoding: 41 41 12
Width: 376
Flags: W
LayerCount: 2
Fore
SplineSet
45 -180 m 1,0,-1
 14 -141 l 1,1,-1
 22 -135 l 2,2,3
 85 -88 85 -88 114 -55 c 0,4,5
 132 -34 132 -34 161 13 c 0,6,7
 223 116 223 116 223 256 c 0,8,9
 223 516 223 516 14 643 c 1,10,-1
 45 680 l 1,11,12
 284 535 284 535 284 252 c 0,13,14
 284 114 284 114 221 6 c 0,15,16
 164 -90 164 -90 45 -180 c 1,0,-1
EndSplineSet
EndChar
StartChar: asterisk
Encoding: 42 42 13
Width: 488
Flags: W
LayerCount: 2
Fore
SplineSet
241 414 m 1,0,-1
 114 303 l 1,1,-1
 93 326 l 1,2,-1
 176 465 l 1,3,-1
 18 532 l 1,4,-1
 28 560 l 1,5,-1
 189 558 l 1,6,-1
 216 712 l 1,7,-1
 244 712 l 1,8,-1
 280 566 l 1,9,-1
 434 593 l 1,10,-1
 441 565 l 1,11,-1
 308 476 l 1,12,-1
 389 326 l 1,13,-1
 368 303 l 1,14,-1
 241 414 l 1,0,-1
EndSplineSet
EndChar
StartChar: plus
Encoding: 43 43 14
Width: 500
Flags: W
LayerCount: 2
Fore
SplineSet
11 365 m 1,0,-1
 226 365 l 1,1,-1
 226 566 l 1,2,-1
 273 566 l 1,3,-1
 273 365 l 1,4,-1
 489 365 l 1,5,-1
 489 318 l 1,6,-1
 274 318 l 1,7,-1
 274 117 l 1,8,-1
 227 117 l 1,9,-1
 227 318 l 1,10,-1
 11 318 l 1,11,-1
 11 365 l 1,0,-1
EndSplineSet
EndChar
StartChar: comma
Encoding: 44 44 15
Width: 285
Flags: W
LayerCount: 2
Fore
SplineSet
32 -149 m 1,0,-1
 32 -114 l 1,1,2
 170 -99 170 -99 170 -13 c 0,3,4
 170 38 170 38 131 41 c 2,5,-1
 118 42 l 2,6,7
 62 46 62 46 62 97 c 0,8,9
 62 126 62 126 79.5 142.5 c 128,-1,10
 97 159 97 159 126 159 c 0,11,12
 175 159 175 159 203 110 c 0,13,14
 227 69 227 69 227 16 c 0,15,16
 227 -67 227 -67 169 -110 c 0,17,18
 118 -147 118 -147 32 -149 c 1,0,-1
EndSplineSet
EndChar
StartChar: period
Encoding: 46 46 17
Width: 285
Flags: W
LayerCount: 2
Fore
SplineSet
82 49 m 256,0,1
 82 74 82 74 99.5 91.5 c 128,-1,2
 117 109 117 109 142 109 c 256,3,4
 167 109 167 109 185 91.5 c 128,-1,5
 203 74 203 74 203 49 c 256,6,7
 203 24 203 24 185 6.5 c 128,-1,8
 167 -11 167 -11 142 -11 c 256,9,10
 117 -11 117 -11 99.5 6.5 c 128,-1,11
 82 24 82 24 82 49 c 256,0,1
EndSplineSet
EndChar
StartChar: slash
Encoding: 47 47 18
Width: 0
Flags: W
LayerCount: 2
Fore
SplineSet
1029 319 m 256,1,2
 1029 107 1029 107 881 -40 c 128,-1,3
 733 -187 733 -187 521 -187 c 256,4,5
 309 -187 309 -187 162 -40 c 1,6,-1
 882 678 l 1,7,0
 1029 531 1029 531 1029 319 c 256,1,2
EndSplineSet
EndChar
StartChar: zero
Encoding: 48 48 19
Width: 875
Flags: W
LayerCount: 2
Fore
SplineSet
321 334 m 2,0,1
 321 190 321 190 364 110 c 0,2,3
 394 54 394 54 441 54 c 0,4,5
 554 54 554 54 554 288 c 0,6,7
 554 391 554 391 536 462 c 0,8,9
 505 579 505 579 431 579 c 0,10,11
 321 579 321 579 321 353 c 2,12,-1
 321 334 l 2,0,1
237 301 m 0,13,14
 237 410 237 410 283 502 c 0,15,16
 340 616 340 616 439 616 c 0,17,18
 537 616 537 616 592 519 c 0,19,20
 638 439 638 439 638 333 c 0,21,22
 638 223 638 223 592 134 c 0,23,24
 536 22 536 22 436 22 c 0,25,26
 341 22 341 22 285 118 c 0,27,28
 237 200 237 200 237 301 c 0,13,14
EndSplineSet
EndChar
StartChar: one
Encoding: 49 49 20
Width: 875
Flags: W
LayerCount: 2
Fore
SplineSet
481 616 m 1,0,-1
 481 148 l 2,1,2
 481 64 481 64 550 64 c 2,3,-1
 562 64 l 1,4,-1
 562 32 l 1,5,-1
 313 32 l 1,6,-1
 313 64 l 1,7,-1
 329 64 l 2,8,9
 399 64 399 64 399 148 c 2,10,-1
 399 455 l 2,11,12
 399 540 399 540 340 540 c 2,13,-1
 315 540 l 1,14,-1
 315 571 l 1,15,-1
 324 571 l 2,16,17
 397 571 397 571 456 616 c 1,18,-1
 481 616 l 1,0,-1
EndSplineSet
EndChar
StartChar: two
Encoding: 50 50 21
Width: 875
Flags: W
LayerCount: 2
Fore
SplineSet
657 180 m 1,0,-1
 614 35 l 1,1,-1
 257 35 l 1,2,-1
 257 66 l 1,3,4
 283 95 283 95 371 183 c 0,5,6
 424 236 424 236 476 295 c 0,7,8
 502 324 502 324 516 345 c 0,9,10
 547 390 547 390 547 437 c 0,11,12
 547 483 547 483 518.5 518 c 128,-1,13
 490 553 490 553 445 553 c 0,14,15
 348 553 348 553 293 422 c 1,16,-1
 261 434 l 1,17,18
 326 618 326 618 466 618 c 0,19,20
 535 618 535 618 583.5 571 c 128,-1,21
 632 524 632 524 632 455 c 0,22,23
 632 367 632 367 531 283 c 2,24,-1
 461 225 l 2,25,26
 394 169 394 169 350 120 c 0,27,28
 347 117 347 117 338 106 c 1,29,-1
 524 106 l 2,30,31
 567 106 567 106 589 123 c 0,32,33
 608 138 608 138 626 180 c 1,34,-1
 657 180 l 1,0,-1
EndSplineSet
EndChar
StartChar: three
Encoding: 51 51 22
Width: 875
Flags: W
LayerCount: 2
Fore
SplineSet
360 300 m 1,0,-1
 345 328 l 1,1,-1
 355 334 l 2,2,3
 413 369 413 369 461 405 c 128,-1,4
 509 441 509 441 509 487 c 0,5,6
 509 518 509 518 486 539 c 128,-1,7
 463 560 463 560 432 560 c 0,8,9
 360 560 360 560 280 471 c 1,10,-1
 255 490 l 1,11,12
 338 616 338 616 458 616 c 0,13,14
 511 616 511 616 548 590 c 0,15,16
 590 561 590 561 590 511 c 0,17,18
 590 475 590 475 560 441 c 0,19,20
 543 421 543 421 500 389 c 2,21,-1
 488 380 l 1,22,23
 496 381 496 381 507 381 c 0,24,25
 562 381 562 381 597.5 339 c 128,-1,26
 633 297 633 297 633 241 c 0,27,28
 633 146 633 146 553 82 c 0,29,30
 479 22 479 22 382 22 c 0,31,32
 293 22 293 22 242 61 c 1,33,-1
 260 86 l 1,34,35
 320 57 320 57 369 57 c 0,36,37
 440 57 440 57 495.5 104 c 128,-1,38
 551 151 551 151 551 221 c 0,39,40
 551 267 551 267 523 299.5 c 128,-1,41
 495 332 495 332 450 332 c 0,42,43
 409 332 409 332 360 300 c 1,0,-1
EndSplineSet
EndChar
StartChar: four
Encoding: 52 52 23
Width: 875
Flags: W
LayerCount: 2
Fore
SplineSet
441 239 m 1,0,-1
 441 540 l 1,1,-1
 238 239 l 1,2,-1
 441 239 l 1,0,-1
526 197 m 1,3,-1
 526 148 l 2,4,5
 526 64 526 64 585 64 c 2,6,-1
 602 64 l 1,7,-1
 602 32 l 1,8,-1
 364 32 l 1,9,-1
 364 64 l 1,10,-1
 383 64 l 2,11,12
 441 64 441 64 441 147 c 2,13,-1
 441 197 l 1,14,-1
 202 197 l 1,15,-1
 202 247 l 1,16,-1
 454 615 l 1,17,-1
 526 615 l 1,18,-1
 526 239 l 1,19,-1
 532 239 l 2,20,21
 569 239 569 239 586 296 c 1,22,-1
 616 296 l 1,23,-1
 602 197 l 1,24,-1
 526 197 l 1,3,-1
EndSplineSet
EndChar
StartChar: five
Encoding: 53 53 24
Width: 875
Flags: W
LayerCount: 2
Fore
SplineSet
325 605 m 1,0,-1
 541 605 l 2,1,2
 583 605 583 605 591 615 c 1,3,-1
 622 615 l 1,4,-1
 604 534 l 1,5,-1
 341 534 l 1,6,-1
 315 417 l 1,7,8
 372 440 372 440 416 440 c 0,9,10
 502 440 502 440 561 382.5 c 128,-1,11
 620 325 620 325 620 239 c 0,12,13
 620 139 620 139 543 78 c 0,14,15
 472 22 472 22 370 22 c 0,16,17
 310 22 310 22 253 40 c 1,18,-1
 265 70 l 1,19,20
 313 57 313 57 350 57 c 0,21,22
 424 57 424 57 479.5 105.5 c 128,-1,23
 535 154 535 154 535 227 c 0,24,25
 535 290 535 290 494 330.5 c 128,-1,26
 453 371 453 371 390 371 c 0,27,28
 332 371 332 371 282 331 c 1,29,-1
 262 335 l 1,30,-1
 325 605 l 1,0,-1
EndSplineSet
EndChar
StartChar: six
Encoding: 54 54 25
Width: 875
Flags: W
LayerCount: 2
Fore
SplineSet
332 295 m 1,0,1
 331 277 331 277 331 259 c 0,2,3
 331 190 331 190 355 131 c 0,4,5
 386 54 386 54 446 54 c 0,6,7
 498 54 498 54 524 107 c 0,8,9
 544 148 544 148 544 206 c 0,10,11
 544 268 544 268 525 312 c 0,12,13
 499 372 499 372 445 372 c 0,14,15
 379 372 379 372 332 295 c 1,0,1
338 355 m 1,16,17
 404 417 404 417 471 417 c 0,18,19
 544 417 544 417 588 359 c 0,20,21
 629 306 629 306 629 231 c 0,22,23
 629 149 629 149 581 87 c 0,24,25
 528 19 528 19 449 19 c 0,26,27
 354 19 354 19 297 101 c 0,28,29
 246 173 246 173 246 272 c 0,30,31
 246 377 246 377 304 465.5 c 128,-1,32
 362 554 362 554 459 591 c 0,33,34
 514 612 514 612 575 612 c 1,35,-1
 575 581 l 1,36,37
 445 574 445 574 381 477 c 0,38,39
 348 427 348 427 338 355 c 1,16,17
EndSplineSet
EndChar
StartChar: seven
Encoding: 55 55 26
Width: 875
Flags: W
LayerCount: 2
Fore
SplineSet
463 32 m 1,0,-1
 378 32 l 1,1,-1
 378 41 l 2,2,3
 378 122 378 122 429 244 c 0,4,5
 506 428 506 428 571 526 c 2,6,-1
 577 535 l 1,7,-1
 378 535 l 2,8,9
 335 535 335 535 312.5 517 c 128,-1,10
 290 499 290 499 279 457 c 1,11,-1
 246 457 l 1,12,-1
 282 616 l 1,13,-1
 303 616 l 1,14,15
 322 606 322 606 369 606 c 2,16,-1
 629 606 l 1,17,-1
 629 561 l 1,18,19
 615 541 615 541 593 497 c 0,20,21
 551 415 551 415 516 306 c 0,22,23
 464 145 464 145 463 32 c 1,0,-1
EndSplineSet
EndChar
StartChar: eight
Encoding: 56 56 27
Width: 875
Flags: W
LayerCount: 2
Fore
SplineSet
404 309 m 1,0,1
 314 268 314 268 314 180 c 0,2,3
 314 123 314 123 350.5 88.5 c 128,-1,4
 387 54 387 54 444 54 c 0,5,6
 495 54 495 54 530.5 81.5 c 128,-1,7
 566 109 566 109 566 158 c 0,8,9
 566 232 566 232 469 278 c 2,10,-1
 404 309 l 1,0,1
471 368 m 1,11,12
 550 403 550 403 550 473 c 0,13,14
 550 521 550 521 516.5 550 c 128,-1,15
 483 579 483 579 434 579 c 0,16,17
 393 579 393 579 363 557 c 0,18,19
 330 533 330 533 330 493 c 0,20,21
 330 444 330 444 376 414 c 0,22,23
 385 408 385 408 456 375 c 2,24,-1
 471 368 l 1,11,12
370 323 m 1,25,-1
 357 332 l 2,26,27
 300 371 300 371 282 395 c 0,28,29
 259 425 259 425 259 465 c 0,30,31
 259 533 259 533 316 576 c 0,32,33
 369 616 369 616 439 616 c 0,34,35
 505 616 505 616 556 581 c 0,36,37
 614 542 614 542 614 478 c 0,38,39
 614 400 614 400 505 352 c 1,40,41
 629 292 629 292 629 185 c 0,42,43
 629 108 629 108 570 63 c 0,44,45
 517 22 517 22 437 22 c 0,46,47
 362 22 362 22 308 60 c 0,48,49
 246 103 246 103 246 174 c 256,50,51
 246 245 246 245 312 291 c 0,52,53
 330 303 330 303 370 323 c 1,25,-1
EndSplineSet
EndChar
StartChar: nine
Encoding: 57 57 28
Width: 875
Flags: W
LayerCount: 2
Fore
SplineSet
543 338 m 1,0,1
 544 357 544 357 544 374 c 0,2,3
 544 444 544 444 520 502 c 0,4,5
 488 579 488 579 428 579 c 0,6,7
 376 579 376 579 351 526 c 0,8,9
 331 485 331 485 331 427 c 0,10,11
 331 365 331 365 350 321 c 0,12,13
 376 261 376 261 430 261 c 0,14,15
 496 261 496 261 543 338 c 1,0,1
537 278 m 1,16,17
 471 216 471 216 404 216 c 0,18,19
 331 216 331 216 287 274 c 0,20,21
 246 327 246 327 246 402 c 0,22,23
 246 483 246 483 294 547 c 0,24,25
 346 616 346 616 425 616 c 0,26,27
 521 616 521 616 578 533 c 0,28,29
 629 460 629 460 629 360 c 0,30,31
 629 218 629 218 535 120.5 c 128,-1,32
 441 23 441 23 300 22 c 1,33,-1
 300 53 l 1,34,35
 343 55 343 55 369 63 c 0,36,37
 513 107 513 107 537 278 c 1,16,17
EndSplineSet
EndChar
StartChar: colon
Encoding: 58 58 29
Width: 285
Flags: W
LayerCount: 2
Fore
SplineSet
82 389 m 256,0,1
 82 414 82 414 99.5 432 c 128,-1,2
 117 450 117 450 142 450 c 256,3,4
 167 450 167 450 185 432 c 128,-1,5
 203 414 203 414 203 389 c 256,6,7
 203 364 203 364 185 346.5 c 128,-1,8
 167 329 167 329 142 329 c 256,9,10
 117 329 117 329 99.5 346.5 c 128,-1,11
 82 364 82 364 82 389 c 256,0,1
82 49 m 256,12,13
 82 74 82 74 99.5 91.5 c 128,-1,14
 117 109 117 109 142 109 c 256,15,16
 167 109 167 109 185 91.5 c 128,-1,17
 203 74 203 74 203 49 c 256,18,19
 203 24 203 24 185 6.5 c 128,-1,20
 167 -11 167 -11 142 -11 c 256,21,22
 117 -11 117 -11 99.5 6.5 c 128,-1,23
 82 24 82 24 82 49 c 256,12,13
EndSplineSet
EndChar
StartChar: semicolon
Encoding: 59 59 30
Width: 285
Flags: W
LayerCount: 2
Fore
SplineSet
39 -149 m 1,0,-1
 39 -114 l 1,1,2
 177 -99 177 -99 177 -13 c 0,3,4
 177 38 177 38 138 41 c 2,5,-1
 125 42 l 2,6,7
 69 46 69 46 69 97 c 0,8,9
 69 126 69 126 86.5 142.5 c 128,-1,10
 104 159 104 159 133 159 c 0,11,12
 182 159 182 159 210 110 c 0,13,14
 234 70 234 70 234 17 c 0,15,16
 234 -66 234 -66 176 -109 c 0,17,18
 126 -147 126 -147 39 -149 c 1,0,-1
86 389 m 256,19,20
 86 414 86 414 103.5 432 c 128,-1,21
 121 450 121 450 146 450 c 256,22,23
 171 450 171 450 188.5 432 c 128,-1,24
 206 414 206 414 206 389 c 256,25,26
 206 364 206 364 188.5 346.5 c 128,-1,27
 171 329 171 329 146 329 c 256,28,29
 121 329 121 329 103.5 346.5 c 128,-1,30
 86 364 86 364 86 389 c 256,19,20
EndSplineSet
EndChar
StartChar: less
Encoding: 60 60 31
Width: 500
Flags: W
LayerCount: 2
Fore
SplineSet
489 571 m 1,0,-1
 489 521 l 1,1,-1
 70 340 l 1,2,-1
 489 155 l 1,3,-1
 489 105 l 1,4,-1
 11 314 l 1,5,-1
 11 365 l 1,6,-1
 489 571 l 1,0,-1
EndSplineSet
EndChar
StartChar: equal
Encoding: 61 61 32
Width: 500
Flags: W
LayerCount: 2
Fore
SplineSet
11 294 m 1,0,-1
 489 294 l 1,1,-1
 489 247 l 1,2,-1
 11 247 l 1,3,-1
 11 294 l 1,0,-1
11 437 m 1,4,-1
 489 437 l 1,5,-1
 489 390 l 1,6,-1
 11 390 l 1,7,-1
 11 437 l 1,4,-1
EndSplineSet
EndChar
StartChar: greater
Encoding: 62 62 33
Width: 500
Flags: W
LayerCount: 2
Fore
SplineSet
11 104 m 1,0,-1
 11 155 l 1,1,-1
 429 334 l 1,2,-1
 11 520 l 1,3,-1
 11 571 l 1,4,-1
 489 361 l 1,5,-1
 489 310 l 1,6,-1
 11 104 l 1,0,-1
EndSplineSet
EndChar
StartChar: question
Encoding: 63 63 34
Width: 376
Flags: W
LayerCount: 2
Fore
SplineSet
142 166 m 1,0,-1
 107 166 l 1,1,-1
 107 190 l 2,2,3
 107 224 107 224 99 270 c 2,4,-1
 92 311 l 2,5,6
 92 327 92 327 108 334 c 0,7,8
 113 336 113 336 137 341 c 0,9,10
 284 370 284 370 284 456 c 0,11,12
 284 505 284 505 242.5 551 c 128,-1,13
 201 597 201 597 153 597 c 0,14,15
 139 597 139 597 122 592 c 2,16,-1
 98 582 l 2,17,18
 88 578 88 578 76 578 c 0,19,20
 33 578 33 578 33 619 c 0,21,22
 33 649 33 649 63 665 c 0,23,24
 87 678 87 678 120 678 c 0,25,26
 198 678 198 678 267 592 c 0,27,28
 297 554 297 554 319 507 c 0,29,30
 345 451 345 451 345 411 c 0,31,32
 345 351 345 351 303 314 c 0,33,34
 273 286 273 286 206 262 c 0,35,36
 167 248 167 248 155 227 c 0,37,38
 144 210 144 210 142 166 c 1,0,-1
67 49 m 0,39,40
 67 74 67 74 85 91.5 c 128,-1,41
 103 109 103 109 128 109 c 256,42,43
 153 109 153 109 170.5 91.5 c 128,-1,44
 188 74 188 74 188 49 c 256,45,46
 188 24 188 24 170.5 6.5 c 128,-1,47
 153 -11 153 -11 128 -11 c 0,48,49
 102 -11 102 -11 84.5 6 c 128,-1,50
 67 23 67 23 67 49 c 0,39,40
EndSplineSet
EndChar
StartChar: at
Encoding: 64 64 35
Width: 0
Flags: W
LayerCount: 2
Fore
SplineSet
1030 337 m 256,1,2
 1030 125 1030 125 882 -22 c 128,-1,3
 734 -169 734 -169 522 -169 c 256,4,5
 310 -169 310 -169 163 -22 c 1,6,-1
 883 696 l 1,7,0
 1030 549 1030 549 1030 337 c 256,1,2
EndSplineSet
EndChar
StartChar: A
Encoding: 65 65 36
Width: 875
Flags: W
LayerCount: 2
Fore
SplineSet
710 256 m 1,0,-1
 426 256 l 1,1,-1
 530 330 l 1,2,3
 472 376 472 376 396 376 c 0,4,5
 358 376 358 376 344 361.5 c 128,-1,6
 330 347 330 347 330 309 c 0,7,8
 330 204 330 204 438 85 c 1,9,-1
 356 2 l 1,10,11
 213 176 213 176 213 313 c 0,12,13
 213 395 213 395 262.5 443.5 c 128,-1,14
 312 492 312 492 394 492 c 0,15,16
 494 492 494 492 612 416 c 1,17,-1
 673 520 l 1,18,-1
 710 256 l 1,0,-1
EndSplineSet
EndChar
StartChar: B
Encoding: 66 66 37
Width: 875
Flags: W
LayerCount: 2
Fore
SplineSet
762 329 m 2,0,1
 762 263 762 263 714 239 c 0,2,3
 700 232 700 232 626 220 c 0,4,5
 578 212 578 212 578 183 c 2,6,-1
 578 102 l 2,7,8
 578 97 578 97 581 71 c 2,9,-1
 584 39 l 2,10,11
 584 24 584 24 577 -10 c 1,12,13
 558 -14 558 -14 533 -19 c 1,14,15
 525 11 525 11 525 22 c 0,16,17
 525 27 525 27 527.5 37 c 128,-1,18
 530 47 530 47 530 52 c 0,19,20
 530 59 530 59 518 91 c 1,21,-1
 503 91 l 1,22,23
 500 86 500 86 501 78 c 0,24,25
 504 61 504 61 503 49 c 1,26,27
 486 37 486 37 456 17 c 1,28,29
 449 19 449 19 451 19 c 2,30,-1
 451 90 l 2,31,32
 449 95 449 95 441 94 c 2,33,-1
 429 94 l 1,34,-1
 417 0 l 1,35,36
 403 -1 403 -1 383 0 c 1,37,38
 376 33 376 33 358 98 c 1,39,-1
 350 98 l 1,40,41
 339 63 339 63 338 60 c 0,42,43
 338 56 338 56 340.5 44.5 c 128,-1,44
 343 33 343 33 343 29 c 0,45,46
 343 26 343 26 341 14 c 2,47,-1
 338 -10 l 2,48,49
 336 -12 336 -12 333 -12 c 0,50,51
 303 -12 303 -12 293 3 c 128,-1,52
 283 18 283 18 285 45 c 2,53,-1
 293 165 l 2,54,55
 293 168 293 168 295 173 c 128,-1,56
 297 178 297 178 297 180 c 0,57,58
 297 188 297 188 280 212 c 0,59,60
 277 213 277 213 249 219 c 0,61,62
 232 223 232 223 182 233 c 0,63,64
 113 246 113 246 113 344 c 0,65,66
 113 490 113 490 233 587 c 1,67,68
 238 560 238 560 250 515 c 1,69,70
 259 513 259 513 289 506 c 0,71,72
 295 504 295 504 350 484 c 1,73,74
 322 501 322 501 277 539 c 1,75,76
 260 559 260 559 260 606 c 0,77,78
 260 617 260 617 298 632 c 0,79,80
 332 646 332 646 349 648 c 0,81,82
 403 655 403 655 432 655 c 0,83,84
 557 655 557 655 634 591 c 1,85,86
 609 562 609 562 548 529 c 1,87,88
 572 528 572 528 618 548 c 128,-1,89
 664 568 664 568 657 568 c 1,90,91
 665 568 665 568 689 536 c 0,92,93
 707 512 707 512 718 493 c 0,94,95
 750 436 750 436 761 370 c 0,96,97
 761 347 761 347 762 337 c 2,98,-1
 762 329 l 2,0,1
714 327 m 0,99,100
 714 367 714 367 684 398.5 c 128,-1,101
 654 430 654 430 615 430 c 0,102,103
 573 430 573 430 536.5 391.5 c 128,-1,104
 500 353 500 353 500 311 c 0,105,106
 500 276 500 276 534 276 c 2,107,-1
 649 277 l 2,108,109
 714 278 714 278 714 327 c 0,99,100
488 187 m 2,110,-1
 488 218 l 1,111,112
 481 231 481 231 474 245 c 0,113,114
 468 265 468 265 452 301 c 1,115,-1
 441 184 l 2,116,117
 441 170 441 170 435 170 c 0,118,119
 431 170 431 170 429 172 c 0,120,121
 422 278 422 278 422 264 c 2,122,-1
 422 299 l 2,123,124
 420 302 420 302 417 302 c 0,125,126
 383 267 383 267 383 189 c 0,127,128
 383 146 383 146 391 136 c 1,129,130
 399 138 399 138 409 143 c 0,131,132
 413 145 413 145 432 145 c 256,133,134
 451 145 451 145 478 133 c 1,135,136
 488 133 488 133 488 187 c 2,110,-1
379 311 m 0,137,138
 379 354 379 354 341.5 392.5 c 128,-1,139
 304 431 304 431 261 431 c 0,140,141
 223 431 223 431 194 399 c 128,-1,142
 165 367 165 367 165 328 c 0,143,144
 165 294 165 294 198 284 c 0,145,146
 219 278 219 278 257 277 c 2,147,-1
 312 276 l 2,148,149
 379 275 379 275 379 311 c 0,137,138
EndSplineSet
EndChar
StartChar: C
Encoding: 67 67 38
Width: 875
Flags: W
LayerCount: 2
Fore
SplineSet
804 370 m 0,0,1
 804 341 804 341 758 295 c 0,2,3
 667 203 667 203 427 -35 c 0,4,5
 417 -45 417 -45 389 -45 c 0,6,7
 358 -45 358 -45 330 -15 c 1,8,9
 287 21 287 21 200.5 96.5 c 128,-1,10
 114 172 114 172 82 236 c 0,11,12
 76 248 76 248 76 268 c 0,13,14
 76 291 76 291 90 310 c 0,15,16
 92 313 92 313 122 343 c 0,17,18
 265 488 265 488 453 672 c 0,19,20
 464 683 464 683 491 683 c 0,21,22
 520 683 520 683 550 653 c 0,23,24
 683 521 683 521 793 408 c 0,25,26
 804 397 804 397 804 370 c 0,0,1
EndSplineSet
EndChar
StartChar: D
Encoding: 68 68 39
Width: 1046
Flags: W
LayerCount: 2
Fore
SplineSet
556 488 m 2,0,1
 556 448 556 448 527 434 c 0,2,3
 519 430 519 430 475 422 c 0,4,5
 445 418 445 418 445 400 c 2,6,-1
 445 352 l 2,7,8
 445 348 445 348 447 333 c 2,9,-1
 449 313 l 2,10,11
 449 304 449 304 445 284 c 1,12,13
 433 282 433 282 417 278 c 1,14,15
 414 296 414 296 414 303 c 0,16,17
 414 307 414 307 415 312.5 c 128,-1,18
 416 318 416 318 416 321 c 0,19,20
 416 326 416 326 408 346 c 1,21,-1
 399 346 l 1,22,23
 398 342 398 342 398 336 c 0,24,25
 401 327 401 327 399 320 c 1,26,27
 389 312 389 312 371 300 c 0,28,29
 367 301 367 301 368 301 c 2,30,-1
 368 344 l 2,31,32
 367 347 367 347 363 347 c 2,33,-1
 355 347 l 1,34,-1
 347 290 l 1,35,36
 339 290 339 290 328 290 c 1,37,38
 323 310 323 310 312 349 c 1,39,-1
 307 349 l 1,40,41
 300 327 300 327 300 326 c 0,42,43
 300 323 300 323 301.5 316.5 c 128,-1,44
 303 310 303 310 303 308 c 0,45,46
 303 305 303 305 302 299 c 2,47,-1
 300 284 l 2,48,49
 299 283 299 283 297 283 c 0,50,51
 278 283 278 283 272.5 292 c 128,-1,52
 267 301 267 301 268 317 c 2,53,-1
 273 390 l 2,54,55
 273 391 273 391 274.5 394.5 c 128,-1,56
 276 398 276 398 276 399 c 0,57,58
 276 404 276 404 265 418 c 0,59,60
 263 418 263 418 246 422 c 0,61,62
 235 425 235 425 206 431 c 0,63,64
 164 439 164 439 164 498 c 0,65,66
 164 586 164 586 237 644 c 1,67,68
 239 629 239 629 247 602 c 1,69,70
 252 600 252 600 271 595 c 0,71,72
 274 595 274 595 307 582 c 1,73,74
 290 592 290 592 263 616 c 0,75,76
 252 628 252 628 252 656 c 0,77,78
 252 663 252 663 276 672 c 0,79,80
 297 681 297 681 307 681 c 0,81,82
 339 686 339 686 356 686 c 0,83,84
 432 686 432 686 479 647 c 1,85,86
 464 629 464 629 427 609 c 1,87,88
 441 609 441 609 469 621 c 128,-1,89
 497 633 497 633 493 633 c 1,90,91
 498 633 498 633 512 613 c 0,92,93
 523 599 523 599 529 587 c 0,94,95
 549 553 549 553 555 513 c 0,96,97
 555 500 555 500 556 494 c 2,98,-1
 556 488 l 2,0,1
527 487 m 0,99,100
 527 512 527 512 509.5 531 c 128,-1,101
 492 550 492 550 467 550 c 256,102,103
 442 550 442 550 420 526.5 c 128,-1,104
 398 503 398 503 398 478 c 0,105,106
 398 457 398 457 419 457 c 2,107,-1
 488 457 l 2,108,109
 527 457 527 457 527 487 c 0,99,100
390 403 m 2,110,-1
 390 422 l 1,111,112
 386 430 386 430 382 438 c 0,113,114
 378 449 378 449 369 472 c 1,115,-1
 363 401 l 2,116,117
 363 392 363 392 359 392 c 0,118,119
 356 392 356 392 355 394 c 0,120,121
 351 457 351 457 351 449 c 2,122,-1
 351 470 l 2,123,124
 350 473 350 473 347 473 c 0,125,126
 328 451 328 451 328 404 c 0,127,128
 328 378 328 378 332 372 c 1,129,130
 337 373 337 373 343 377 c 0,131,132
 345 378 345 378 356 378 c 0,133,134
 368 378 368 378 385 370 c 0,135,136
 390 370 390 370 390 403 c 2,110,-1
325 478 m 0,137,138
 325 504 325 504 302.5 527.5 c 128,-1,139
 280 551 280 551 254 551 c 0,140,141
 230 551 230 551 212.5 531.5 c 128,-1,142
 195 512 195 512 195 488 c 0,143,144
 195 468 195 468 216 461 c 0,145,146
 228 457 228 457 251 457 c 2,147,-1
 285 457 l 2,148,149
 325 456 325 456 325 478 c 0,137,138
884 134 m 0,150,151
 884 122 884 122 875 113 c 128,-1,152
 866 104 866 104 854 104 c 0,153,154
 837 104 837 104 828 121 c 1,155,-1
 802 122 l 2,156,157
 793 122 793 122 768 114 c 0,158,159
 742 108 742 108 738 103 c 0,160,161
 732 96 732 96 728 71 c 0,162,163
 724 51 724 51 724 41 c 0,164,165
 724 26 724 26 729.5 19 c 128,-1,166
 735 12 735 12 749.5 7 c 128,-1,167
 764 2 764 2 767 2 c 256,168,169
 770 2 770 2 775 2 c 2,170,-1
 781 2 l 2,171,172
 789 2 789 2 797 0 c 0,173,174
 809 -2 809 -2 806 -9 c 1,175,176
 798 -7 798 -7 779 -11 c 1,177,-1
 794 -19 l 1,178,179
 794 -27 794 -27 775 -27 c 0,180,181
 770 -27 770 -27 761.5 -24.5 c 128,-1,182
 753 -22 753 -22 750 -22 c 2,183,-1
 742 -22 l 1,184,185
 742 -27 742 -27 740 -39 c 1,186,187
 729 -39 729 -39 716 -28 c 128,-1,188
 703 -17 703 -17 701 -17 c 0,189,190
 697 -17 697 -17 691 -28 c 128,-1,191
 685 -39 685 -39 685 -43 c 1,192,193
 677 -39 677 -39 672 -27 c 0,194,195
 670 -20 670 -20 667 -13 c 1,196,197
 662 -14 662 -14 646 -36 c 1,198,-1
 644 -36 l 2,199,200
 642 -35 642 -35 638 -24 c 128,-1,201
 634 -13 634 -13 634 -13 c 1,202,203
 618 -7 618 -7 602 -7 c 0,204,205
 595 -7 595 -7 580 -10 c 2,206,-1
 564 -10 l 1,207,208
 568 -6 568 -6 584 2 c 0,209,210
 603 14 603 14 614 14 c 0,211,212
 615 14 615 14 617.5 13.5 c 128,-1,213
 620 13 620 13 623 13 c 0,214,215
 627 13 627 13 635.5 17.5 c 128,-1,216
 644 22 644 22 645 25 c 128,-1,217
 646 28 646 28 646 43 c 0,218,219
 646 74 646 74 629 91 c 0,220,221
 615 104 615 104 581 110 c 1,222,223
 572 78 572 78 530 78 c 0,224,225
 518 78 518 78 504 95 c 128,-1,226
 490 112 490 112 490 125 c 0,227,228
 490 145 490 145 507 158 c 1,229,230
 493 174 493 174 493 188 c 0,231,232
 493 203 493 203 502 214 c 128,-1,233
 511 225 511 225 525 226 c 1,234,235
 524 244 524 244 537 251 c 1,236,237
 530 257 530 257 530 273 c 0,238,239
 530 291 530 291 542.5 303.5 c 128,-1,240
 555 316 555 316 573 316 c 0,241,242
 594 316 594 316 607 301 c 1,243,244
 623 357 623 357 677 357 c 0,245,246
 706 357 706 357 727 335 c 0,247,248
 735 327 735 327 735 326 c 1,249,250
 728 326 728 326 741.5 328.5 c 128,-1,251
 755 331 755 331 762 331 c 0,252,253
 783 331 783 331 800 314 c 0,254,255
 815 300 815 300 820 278 c 0,256,257
 824 277 824 277 833 274 c 0,258,259
 845 268 845 268 845 253 c 0,260,261
 845 251 845 251 841 243 c 1,262,263
 876 222 876 222 876 186 c 0,264,265
 876 175 876 175 868 158 c 1,266,267
 884 149 884 149 884 134 c 0,150,151
749 212 m 1,268,269
 742 214 742 214 724 222 c 1,270,-1
 724 174 l 1,271,272
 750 190 750 190 749 212 c 1,268,269
780 145 m 1,273,-1
 767 160 l 1,274,275
 757 152 757 152 745 144 c 128,-1,276
 733 136 733 136 724 126 c 1,277,278
 750 139 750 139 780 145 c 1,273,-1
676 196 m 1,279,-1
 676 221 l 1,280,281
 662 222 662 222 659 222 c 2,282,-1
 659 214 l 1,283,-1
 676 196 l 1,279,-1
641 178 m 1,284,285
 633 188 633 188 627 197 c 1,286,287
 603 192 603 192 603 183 c 1,288,289
 610 184 610 184 623 181 c 128,-1,290
 636 178 636 178 641 178 c 1,284,285
651 108 m 1,291,-1
 651 116 l 2,292,293
 651 129 651 129 639 140 c 128,-1,294
 627 151 627 151 614 151 c 0,295,296
 597 151 597 151 584 143 c 1,297,298
 614 144 614 144 651 108 c 1,291,-1
EndSplineSet
EndChar
StartChar: E
Encoding: 69 69 40
Width: 1067
Flags: W
LayerCount: 2
Fore
SplineSet
563 472 m 0,0,1
 563 460 563 460 554 450 c 128,-1,2
 545 440 545 440 532 440 c 0,3,4
 512 440 512 440 503 459 c 1,5,-1
 475 460 l 2,6,7
 465 460 465 460 438 452 c 0,8,9
 410 444 410 444 404 439 c 0,10,11
 398 431 398 431 394 404 c 0,12,13
 390 382 390 382 390 372 c 0,14,15
 390 356 390 356 395 348 c 128,-1,16
 400 340 400 340 416.5 335 c 128,-1,17
 433 330 433 330 437 329 c 0,18,19
 439 329 439 329 445 330 c 2,20,-1
 452 330 l 2,21,22
 460 330 460 330 469 327 c 0,23,24
 481 323 481 323 480 317 c 1,25,26
 471 318 471 318 449 314 c 1,27,-1
 467 305 l 1,28,29
 467 297 467 297 446 297 c 0,30,31
 439 297 439 297 430 300 c 128,-1,32
 421 303 421 303 417 303 c 2,33,-1
 410 303 l 1,34,35
 410 296 410 296 406 284 c 1,36,37
 395 284 395 284 381.5 296 c 128,-1,38
 368 308 368 308 364 308 c 256,39,40
 360 308 360 308 353.5 296 c 128,-1,41
 347 284 347 284 347 280 c 1,42,43
 338 284 338 284 333 296 c 0,44,45
 330 304 330 304 328 313 c 1,46,47
 321 312 321 312 304 287 c 1,48,-1
 302 287 l 2,49,50
 300 288 300 288 296.5 300.5 c 128,-1,51
 293 313 293 313 293 313 c 1,52,53
 273 318 273 318 257 318 c 0,54,55
 248 318 248 318 233 314 c 1,56,-1
 215 316 l 1,57,58
 218 320 218 320 237 330 c 0,59,60
 257 343 257 343 268 343 c 0,61,62
 270 343 270 343 273.5 342.5 c 128,-1,63
 277 342 277 342 278 342 c 0,64,65
 282 342 282 342 292 346.5 c 128,-1,66
 302 351 302 351 303 355 c 128,-1,67
 304 359 304 359 304 373 c 0,68,69
 304 408 304 408 286 426 c 0,70,71
 270 440 270 440 234 448 c 1,72,73
 224 413 224 413 178 413 c 0,74,75
 164 413 164 413 149 430.5 c 128,-1,76
 134 448 134 448 134 463 c 0,77,78
 134 486 134 486 153 500 c 1,79,80
 138 516 138 516 138 533 c 0,81,82
 138 548 138 548 147 560 c 128,-1,83
 156 572 156 572 172 573 c 1,84,85
 170 594 170 594 185 600 c 1,86,87
 178 607 178 607 178 625 c 0,88,89
 178 645 178 645 191.5 658.5 c 128,-1,90
 205 672 205 672 225 672 c 0,91,92
 247 672 247 672 261 656 c 1,93,94
 280 718 280 718 338 718 c 0,95,96
 369 718 369 718 393 693 c 0,97,98
 402 684 402 684 402 684 c 1,99,100
 394 684 394 684 409 686.5 c 128,-1,101
 424 689 424 689 430 689 c 0,102,103
 454 689 454 689 472 671 c 0,104,105
 489 655 489 655 494 630 c 1,106,107
 499 629 499 629 508 626 c 0,108,109
 521 620 521 620 521 603 c 0,110,111
 521 600 521 600 516 591 c 1,112,113
 556 569 556 569 556 530 c 0,114,115
 556 519 556 519 547 499 c 1,116,117
 563 490 563 490 563 472 c 0,0,1
416 558 m 1,118,119
 410 560 410 560 389 571 c 1,120,-1
 389 517 l 1,121,122
 417 534 417 534 416 558 c 1,118,119
450 485 m 1,123,-1
 437 502 l 1,124,125
 425 494 425 494 412 485 c 128,-1,126
 399 476 399 476 390 464 c 1,127,128
 417 479 417 479 450 485 c 1,123,-1
337 541 m 1,129,-1
 337 568 l 1,130,131
 322 571 322 571 319 571 c 2,132,-1
 319 560 l 1,133,-1
 337 541 l 1,129,-1
299 521 m 1,134,135
 290 532 290 532 283 543 c 1,136,137
 257 537 257 537 257 528 c 1,138,139
 265 528 265 528 279 524.5 c 128,-1,140
 293 521 293 521 299 521 c 1,134,135
311 446 m 1,141,-1
 311 453 l 2,142,143
 311 468 311 468 296.5 479.5 c 128,-1,144
 282 491 282 491 268 491 c 0,145,146
 251 491 251 491 237 482 c 1,147,148
 269 485 269 485 311 446 c 1,141,-1
945 101 m 1,149,150
 900 127 900 127 887 127 c 0,151,152
 876 127 876 127 871 112.5 c 128,-1,153
 866 98 866 98 850 98 c 0,154,155
 844 98 844 98 823 102 c 1,156,157
 812 85 812 85 812 80 c 0,158,159
 812 74 812 74 821.5 65.5 c 128,-1,160
 831 57 831 57 837 57 c 0,161,162
 841 57 841 57 848 58 c 128,-1,163
 855 59 855 59 858 59 c 0,164,165
 866 59 866 59 866 33 c 256,166,167
 866 7 866 7 853 -44 c 1,168,169
 838 15 838 15 820 15 c 0,170,171
 819 15 819 15 811 12 c 128,-1,172
 803 9 803 9 799 9 c 0,173,174
 783 9 783 9 770 40 c 1,175,176
 742 36 742 36 742 11 c 0,177,178
 742 0 742 0 753 -7 c 128,-1,179
 764 -14 764 -14 764 -17 c 0,180,181
 764 -32 764 -32 718 -66 c 0,182,183
 693 -84 693 -84 684 -91 c 1,184,185
 692 -81 692 -81 701 -64 c 0,186,187
 710 -43 710 -43 710 -32 c 0,188,189
 710 -27 710 -27 695.5 -16 c 128,-1,190
 681 -5 681 -5 681 6 c 0,191,192
 681 16 681 16 689 31 c 1,193,194
 681 40 681 40 669 40 c 0,195,196
 646 40 646 40 646 24 c 1,197,-1
 646 24 l 1,198,199
 646 35 646 35 647 9 c 0,200,201
 649 -10 649 -10 617 -10 c 0,202,203
 594 -10 594 -10 540 0 c 1,204,205
 602 15 602 15 602 35 c 1,206,-1
 602 35 l 1,207,208
 602 32 602 32 599 49 c 0,209,210
 597 67 597 67 625 83 c 1,211,212
 620 110 620 110 597 110 c 0,213,214
 594 110 594 110 584.5 97.5 c 128,-1,215
 575 85 575 85 567 85 c 0,216,217
 552 85 552 85 529 115 c 0,218,219
 519 131 519 131 497 162 c 1,220,221
 511 154 511 154 524 148 c 0,222,223
 542 139 542 139 552 139 c 0,224,225
 560 139 560 139 568.5 154 c 128,-1,226
 577 169 577 169 590 169 c 0,227,228
 591 169 591 169 614 161 c 1,229,230
 625 178 625 178 625 187 c 0,231,232
 625 193 625 193 616 202.5 c 128,-1,233
 607 212 607 212 601 212 c 0,234,235
 598 212 598 212 591.5 210.5 c 128,-1,236
 585 209 585 209 582 209 c 0,237,238
 572 209 572 209 572 235 c 0,239,240
 572 243 572 243 585 317 c 1,241,242
 585 308 585 308 593 283 c 0,243,244
 603 253 603 253 616 253 c 0,245,246
 619 253 619 253 626 257 c 128,-1,247
 633 261 633 261 637 261 c 0,248,249
 651 261 651 261 660 245 c 2,250,-1
 668 230 l 1,251,252
 681 230 681 230 689.5 238.5 c 128,-1,253
 698 247 698 247 698 260 c 256,254,255
 698 273 698 273 687 279.5 c 128,-1,256
 676 286 676 286 676 290 c 0,257,258
 676 303 676 303 715 333 c 0,259,260
 746 356 746 356 757 360 c 1,261,262
 731 326 731 326 731 309 c 1,263,-1
 731 309 l 1,264,265
 731 301 731 301 741 291 c 0,266,267
 753 280 753 280 755 275 c 0,268,269
 760 262 760 262 754 238 c 1,270,271
 770 227 770 227 779 227 c 0,272,273
 796 227 796 227 796 244 c 0,274,275
 796 247 796 247 794 256 c 128,-1,276
 792 265 792 265 793 266 c 0,277,278
 796 275 796 275 825 275 c 0,279,280
 845 275 845 275 905 264 c 1,281,282
 892 261 892 261 866 253 c 0,283,284
 841 247 841 247 841 238 c 0,285,286
 841 234 841 234 844.5 223.5 c 128,-1,287
 848 213 848 213 848 209 c 0,288,289
 848 200 848 200 837 193 c 2,290,-1
 816 179 l 1,291,292
 824 166 824 166 825 163 c 0,293,294
 832 156 832 156 842 156 c 0,295,296
 849 156 849 156 855 169 c 128,-1,297
 861 182 861 182 874 182 c 0,298,299
 890 182 890 182 910 152 c 0,300,301
 922 135 922 135 945 101 c 1,149,150
814 135 m 0,302,303
 814 174 814 174 786 202 c 128,-1,304
 758 230 758 230 720 230 c 0,305,306
 681 230 681 230 653 202 c 128,-1,307
 625 174 625 174 625 135 c 0,308,309
 624 97 624 97 653 69.5 c 128,-1,310
 682 42 682 42 720 42 c 0,311,312
 760 42 760 42 787 68 c 128,-1,313
 814 94 814 94 814 135 c 0,302,303
805 135 m 0,314,315
 805 100 805 100 781 76 c 128,-1,316
 757 52 757 52 720 52 c 0,317,318
 685 52 685 52 659.5 76 c 128,-1,319
 634 100 634 100 634 135 c 256,320,321
 634 170 634 170 659.5 194.5 c 128,-1,322
 685 219 685 219 720 219 c 0,323,324
 754 219 754 219 779.5 194 c 128,-1,325
 805 169 805 169 805 135 c 0,314,315
EndSplineSet
EndChar
StartChar: F
Encoding: 70 70 41
Width: 1054
Flags: W
LayerCount: 2
Fore
SplineSet
546 408 m 0,0,1
 518 343 518 343 436 343 c 0,2,3
 421 343 421 343 404 339 c 0,4,5
 378 334 378 334 378 323 c 0,6,7
 378 321 378 321 382 316.5 c 128,-1,8
 386 312 386 312 390 312 c 1,9,10
 374 312 374 312 410.5 311 c 128,-1,11
 447 310 447 310 457 310 c 1,12,13
 403 278 403 278 275 281 c 0,14,15
 234 282 234 282 204 318 c 0,16,17
 174 352 174 352 174 395 c 0,18,19
 174 439 174 439 204.5 471 c 128,-1,20
 235 503 235 503 279 503 c 0,21,22
 290 503 290 503 306 498.5 c 128,-1,23
 322 494 322 494 329 494 c 0,24,25
 351 494 351 494 385.5 513 c 128,-1,26
 420 532 420 532 418 532 c 0,27,28
 412 467 412 467 374 444 c 0,29,30
 347 429 347 429 347 413 c 0,31,32
 347 404 347 404 359 399 c 0,33,34
 368 394 368 394 378 394 c 0,35,36
 395 394 395 394 410.5 414 c 128,-1,37
 426 434 426 434 424 450 c 0,38,39
 422 469 422 469 426 495 c 0,40,41
 427 503 427 503 435 514 c 128,-1,42
 443 525 443 525 449 526 c 1,43,44
 449 521 449 521 445.5 508 c 128,-1,45
 442 495 442 495 442 489 c 0,46,47
 442 476 442 476 448 468 c 1,48,49
 460 472 460 472 469 495 c 0,50,51
 475 513 475 513 477 530 c 1,52,53
 451 532 451 532 427 554.5 c 128,-1,54
 403 577 403 577 403 603 c 0,55,56
 403 607 403 607 404 612 c 1,57,58
 408 606 408 606 416 594 c 0,59,60
 426 578 426 578 431 578 c 0,61,62
 439 578 439 578 439 594 c 0,63,64
 439 615 439 615 429 630 c 0,65,66
 417 650 417 650 398 650 c 0,67,68
 390 650 390 650 372.5 641 c 128,-1,69
 355 632 355 632 340 632 c 0,70,71
 335 632 335 632 301 642 c 1,72,73
 362 653 362 653 362 660 c 0,74,75
 362 682 362 682 279 689 c 0,76,77
 270 690 270 690 249 692 c 1,78,79
 252 695 252 695 284 699 c 0,80,81
 313 702 313 702 323 702 c 0,82,83
 473 702 473 702 512 558 c 1,84,85
 520 563 520 563 520 576 c 0,86,87
 520 593 520 593 509 619 c 0,88,89
 505 629 505 629 498 649 c 1,90,91
 548 584 548 584 548 526 c 0,92,93
 548 495 548 495 534 470 c 0,94,95
 525 454 525 454 499 427 c 128,-1,96
 473 400 473 400 464 386 c 1,97,98
 499 396 499 396 509 400 c 0,99,100
 533 412 533 412 552 433 c 1,101,102
 552 425 552 425 546 408 c 0,0,1
382 597 m 0,103,104
 382 586 382 586 370.5 579 c 128,-1,105
 359 572 359 572 347 572 c 0,106,107
 333 572 333 572 321 589 c 0,108,109
 307 608 307 608 291 615 c 1,110,111
 295 619 295 619 299 619 c 0,112,113
 304 619 304 619 317.5 610 c 128,-1,114
 331 601 331 601 335 601 c 0,115,116
 338 601 338 601 345 610 c 128,-1,117
 352 619 352 619 361 619 c 0,118,119
 382 619 382 619 382 597 c 0,103,104
273 654 m 0,120,121
 273 642 273 642 261 640 c 2,122,-1
 244 637 l 2,123,124
 236 633 236 633 219 603 c 1,125,126
 217 612 217 612 213 629 c 1,127,128
 208 628 208 628 195 619 c 0,129,130
 190 615 190 615 177 606 c 1,131,132
 180 628 180 628 201 651 c 0,133,134
 223 677 223 677 245 677 c 0,135,136
 273 677 273 677 273 654 c 0,120,121
929 105 m 1,137,138
 884 131 884 131 871 131 c 0,139,140
 861 131 861 131 855.5 116.5 c 128,-1,141
 850 102 850 102 834 102 c 0,142,143
 828 102 828 102 808 108 c 1,144,145
 796 91 796 91 796 85 c 256,146,147
 796 79 796 79 806 70.5 c 128,-1,148
 816 62 816 62 822 62 c 0,149,150
 826 62 826 62 833.5 63.5 c 128,-1,151
 841 65 841 65 843 65 c 0,152,153
 850 65 850 65 850 39 c 0,154,155
 850 14 850 14 838 -38 c 1,156,157
 822 22 822 22 806 22 c 0,158,159
 803 22 803 22 796 18 c 128,-1,160
 789 14 789 14 785 14 c 0,161,162
 768 14 768 14 755 45 c 1,163,164
 728 41 728 41 728 18 c 0,165,166
 728 6 728 6 739.5 -1 c 128,-1,167
 751 -8 751 -8 751 -10 c 0,168,169
 751 -26 751 -26 704 -60 c 0,170,171
 679 -77 679 -77 670 -85 c 1,172,173
 678 -74 678 -74 687 -56 c 256,174,175
 696 -38 696 -38 696 -26 c 0,176,177
 696 -21 696 -21 682 -10.5 c 128,-1,178
 668 0 668 0 668 11 c 256,179,180
 668 22 668 22 676 36 c 1,181,182
 668 45 668 45 657 45 c 0,183,184
 634 45 634 45 634 29 c 1,185,-1
 634 29 l 1,186,187
 634 40 634 40 635 14 c 0,188,189
 635 -5 635 -5 605 -5 c 0,190,191
 582 -5 582 -5 529 5 c 1,192,193
 590 20 590 20 590 40 c 1,194,-1
 590 40 l 1,195,196
 590 39 590 39 587 54 c 0,197,198
 585 72 585 72 613 87 c 1,199,200
 608 114 608 114 585 114 c 0,201,202
 582 114 582 114 572.5 101.5 c 128,-1,203
 563 89 563 89 555 89 c 0,204,205
 540 89 540 89 518 121 c 0,206,207
 508 135 508 135 486 165 c 1,208,209
 499 158 499 158 513 152 c 0,210,211
 530 143 530 143 540 143 c 256,212,213
 550 143 550 143 557.5 157 c 128,-1,214
 565 171 565 171 578 171 c 0,215,216
 579 171 579 171 602 165 c 1,217,218
 612 182 612 182 612 189 c 0,219,220
 612 197 612 197 603.5 206 c 128,-1,221
 595 215 595 215 589 215 c 0,222,223
 586 215 586 215 579.5 213.5 c 128,-1,224
 573 212 573 212 570 212 c 0,225,226
 560 212 560 212 560 238 c 0,227,228
 560 245 560 245 573 318 c 1,229,230
 573 309 573 309 581 286 c 0,231,232
 591 256 591 256 604 256 c 0,233,234
 607 256 607 256 614 260 c 128,-1,235
 621 264 621 264 625 264 c 0,236,237
 638 264 638 264 647 248 c 2,238,-1
 656 232 l 1,239,240
 668 232 668 232 676.5 240.5 c 128,-1,241
 685 249 685 249 685 262 c 256,242,243
 685 275 685 275 674 281.5 c 128,-1,244
 663 288 663 288 663 292 c 0,245,246
 663 304 663 304 702 334 c 0,247,248
 733 357 733 357 742 361 c 1,249,250
 717 327 717 327 717 312 c 1,251,-1
 717 312 l 1,252,253
 717 303 717 303 726 294 c 0,254,255
 739 283 739 283 741 278 c 0,256,257
 747 265 747 265 739 242 c 1,258,259
 755 230 755 230 764 230 c 0,260,261
 781 230 781 230 781 248 c 0,262,263
 781 249 781 249 779.5 258.5 c 128,-1,264
 778 268 778 268 778 269 c 0,265,266
 781 278 781 278 811 278 c 0,267,268
 829 278 829 278 889 266 c 1,269,270
 876 264 876 264 850 256 c 0,271,272
 826 249 826 249 826 240 c 0,273,274
 826 236 826 236 829.5 226.5 c 128,-1,275
 833 217 833 217 833 212 c 0,276,277
 833 204 833 204 821 196 c 2,278,-1
 802 183 l 1,279,280
 808 170 808 170 811 167 c 0,281,282
 817 160 817 160 826 160 c 0,283,284
 834 160 834 160 840 172 c 128,-1,285
 846 184 846 184 859 184 c 0,286,287
 874 184 874 184 894 156 c 0,288,289
 906 139 906 139 929 105 c 1,137,138
799 140 m 0,290,291
 799 176 799 176 771 204 c 128,-1,292
 743 232 743 232 707 232 c 0,293,294
 668 232 668 232 640.5 205 c 128,-1,295
 613 178 613 178 612 140 c 0,296,297
 612 102 612 102 640.5 75 c 128,-1,298
 669 48 669 48 707 48 c 0,299,300
 746 48 746 48 772.5 74 c 128,-1,301
 799 100 799 100 799 140 c 0,290,291
790 140 m 0,302,303
 790 104 790 104 766 80.5 c 128,-1,304
 742 57 742 57 707 57 c 256,305,306
 672 57 672 57 647 81 c 128,-1,307
 622 105 622 105 622 140 c 0,308,309
 622 174 622 174 647 198 c 128,-1,310
 672 222 672 222 707 222 c 0,311,312
 741 222 741 222 765.5 197.5 c 128,-1,313
 790 173 790 173 790 140 c 0,302,303
EndSplineSet
EndChar
StartChar: G
Encoding: 71 71 42
Width: 875
Flags: W
LayerCount: 2
Fore
SplineSet
793 277 m 0,0,1
 793 257 793 257 777.5 241 c 128,-1,2
 762 225 762 225 742 225 c 0,3,4
 710 225 710 225 695 255 c 1,5,-1
 648 257 l 2,6,7
 633 257 633 257 589 244 c 0,8,9
 542 231 542 231 535 223 c 0,10,11
 524 211 524 211 517 167 c 0,12,13
 511 131 511 131 511 114 c 0,14,15
 511 87 511 87 519.5 74.5 c 128,-1,16
 528 62 528 62 554.5 53.5 c 128,-1,17
 581 45 581 45 587 44 c 0,18,19
 591 44 591 44 600 45 c 2,20,-1
 612 45 l 2,21,22
 625 45 625 45 639 41 c 0,23,24
 659 35 659 35 656 25 c 1,25,26
 642 27 642 27 607 19 c 1,27,-1
 635 5 l 1,28,29
 635 -7 635 -7 601 -7 c 0,30,31
 592 -7 592 -7 576.5 -3 c 128,-1,32
 561 1 561 1 556 1 c 2,33,-1
 543 1 l 1,34,35
 542 -9 542 -9 537 -29 c 1,36,37
 520 -28 520 -28 497 -9 c 128,-1,38
 474 10 474 10 468 10 c 256,39,40
 462 10 462 10 451 -9 c 128,-1,41
 440 -28 440 -28 440 -35 c 1,42,43
 427 -28 427 -28 418 -9 c 0,44,45
 414 4 414 4 409 17 c 1,46,47
 399 16 399 16 372 -25 c 1,48,-1
 367 -25 l 2,49,50
 365 -22 365 -22 358.5 -2.5 c 128,-1,51
 352 17 352 17 352 17 c 1,52,53
 321 27 321 27 294 27 c 0,54,55
 281 27 281 27 254 21 c 1,56,-1
 226 23 l 1,57,58
 232 29 232 29 261 46 c 0,59,60
 295 66 295 66 313 66 c 0,61,62
 316 66 316 66 321 65 c 128,-1,63
 326 64 326 64 329 64 c 0,64,65
 336 64 336 64 351.5 71.5 c 128,-1,66
 367 79 367 79 369.5 85 c 128,-1,67
 372 91 372 91 372 116 c 0,68,69
 372 173 372 173 342 201 c 0,70,71
 316 226 316 226 256 237 c 1,72,73
 240 180 240 180 166 180 c 0,74,75
 142 180 142 180 118 209 c 128,-1,76
 94 238 94 238 94 262 c 0,77,78
 94 299 94 299 125 323 c 1,79,80
 100 349 100 349 100 376 c 0,81,82
 100 401 100 401 115.5 420 c 128,-1,83
 131 439 131 439 156 442 c 1,84,85
 154 474 154 474 177 486 c 1,86,87
 166 497 166 497 166 525 c 0,88,89
 166 558 166 558 188 580 c 128,-1,90
 210 602 210 602 243 602 c 0,91,92
 279 602 279 602 302 577 c 1,93,94
 331 676 331 676 427 676 c 0,95,96
 477 676 477 676 515 636 c 0,97,98
 529 621 529 621 529 620 c 1,99,100
 517 620 517 620 541 624.5 c 128,-1,101
 565 629 565 629 576 629 c 0,102,103
 615 629 615 629 645 600 c 0,104,105
 671 574 671 574 681 534 c 1,106,107
 688 533 688 533 703 528 c 0,108,109
 725 517 725 517 725 490 c 0,110,111
 725 485 725 485 717 471 c 1,112,113
 781 435 781 435 781 371 c 0,114,115
 781 353 781 353 767 321 c 1,116,117
 793 306 793 306 793 277 c 0,0,1
554 416 m 1,118,119
 542 421 542 421 509 436 c 1,120,-1
 509 350 l 1,121,122
 556 377 556 377 554 416 c 1,118,119
609 298 m 1,123,-1
 587 325 l 1,124,125
 567 311 567 311 546.5 296.5 c 128,-1,126
 526 282 526 282 511 264 c 1,127,128
 556 288 556 288 609 298 c 1,123,-1
424 388 m 1,129,-1
 424 432 l 1,130,131
 400 436 400 436 395 436 c 1,132,-1
 395 421 l 1,133,-1
 424 388 l 1,129,-1
363 357 m 1,134,135
 348 374 348 374 337 392 c 1,136,137
 295 381 295 381 295 367 c 1,138,139
 307 368 307 368 330 362.5 c 128,-1,140
 353 357 353 357 363 357 c 1,134,135
381 233 m 1,141,-1
 381 246 l 2,142,143
 381 269 381 269 358.5 288 c 128,-1,144
 336 307 336 307 313 307 c 0,145,146
 285 307 285 307 261 294 c 1,147,148
 314 297 314 297 381 233 c 1,141,-1
EndSplineSet
EndChar
StartChar: H
Encoding: 72 72 43
Width: 1039
Flags: W
LayerCount: 2
Fore
SplineSet
453 411 m 0,0,1
 453 451 453 451 426 492 c 0,2,3
 408 516 408 516 374 564 c 0,4,5
 347 606 347 606 347 649 c 0,6,7
 347 668 347 668 357 713 c 1,8,9
 290 658 290 658 240 584 c 0,10,11
 179 494 179 494 179 425 c 0,12,13
 179 359 179 359 214 317 c 0,14,15
 253 273 253 273 317 273 c 0,16,17
 374 273 374 273 413.5 313.5 c 128,-1,18
 453 354 453 354 453 411 c 0,0,1
424 421 m 0,19,20
 424 388 424 388 397 388 c 0,21,22
 373 388 373 388 373 412 c 1,23,-1
 382 440 l 2,24,25
 391 467 391 467 391 482 c 0,26,27
 391 490 391 490 388 494 c 1,28,29
 403 486 403 486 413.5 463 c 128,-1,30
 424 440 424 440 424 421 c 0,19,20
897 159 m 2,31,32
 897 120 897 120 870 106 c 0,33,34
 861 102 861 102 818 95 c 0,35,36
 789 90 789 90 789 73 c 2,37,-1
 789 25 l 2,38,39
 789 22 789 22 790 7 c 2,40,-1
 793 -11 l 2,41,42
 793 -20 793 -20 789 -41 c 1,43,44
 777 -42 777 -42 763 -46 c 1,45,46
 758 -28 758 -28 758 -21 c 0,47,48
 758 -19 758 -19 759 -13 c 128,-1,49
 760 -7 760 -7 760 -3 c 0,50,51
 760 0 760 0 754 18 c 1,52,-1
 745 18 l 2,53,54
 744 16 744 16 744 11 c 0,55,56
 745 2 745 2 745 -6 c 1,57,58
 734 -12 734 -12 718 -24 c 0,59,60
 714 -23 714 -23 714 -23 c 1,61,-1
 714 18 l 2,62,63
 714 21 714 21 708 21 c 2,64,-1
 701 21 l 1,65,-1
 694 -34 l 1,66,67
 686 -34 686 -34 675 -34 c 1,68,69
 669 -15 669 -15 659 22 c 1,70,-1
 655 22 l 1,71,72
 649 3 649 3 647 0 c 0,73,74
 647 -2 647 -2 649 -8.5 c 128,-1,75
 651 -15 651 -15 651 -17 c 256,76,77
 651 -19 651 -19 650 -27 c 2,78,-1
 647 -41 l 2,79,80
 646 -41 646 -41 645 -41 c 0,81,82
 626 -41 626 -41 620.5 -32.5 c 128,-1,83
 615 -24 615 -24 616 -8 c 2,84,-1
 621 63 l 2,85,86
 621 64 621 64 622.5 67 c 128,-1,87
 624 70 624 70 624 72 c 0,88,89
 624 76 624 76 613 90 c 0,90,91
 612 90 612 90 595 94 c 0,92,93
 585 96 585 96 556 103 c 0,94,95
 515 109 515 109 515 168 c 0,96,97
 515 254 515 254 586 311 c 1,98,99
 589 295 589 295 595 268 c 1,100,101
 600 267 600 267 619 263 c 0,102,103
 623 262 623 262 655 250 c 1,104,105
 638 260 638 260 612 282 c 0,106,107
 602 294 602 294 602 323 c 0,108,109
 602 328 602 328 624 337 c 0,110,111
 645 346 645 346 654 347 c 0,112,113
 686 351 686 351 703 351 c 0,114,115
 776 351 776 351 822 314 c 1,116,117
 807 297 807 297 771 277 c 1,118,119
 785 276 785 276 812.5 287.5 c 128,-1,120
 840 299 840 299 836 299 c 1,121,122
 840 299 840 299 854 281 c 0,123,124
 864 267 864 267 871 255 c 0,125,126
 890 223 890 223 897 184 c 0,127,128
 897 169 897 169 897 164 c 2,129,-1
 897 159 l 2,31,32
870 158 m 0,130,131
 870 181 870 181 851.5 200 c 128,-1,132
 833 219 833 219 811 219 c 0,133,134
 786 219 786 219 765 196 c 128,-1,135
 744 173 744 173 744 148 c 0,136,137
 744 128 744 128 763 128 c 2,138,-1
 831 128 l 2,139,140
 870 129 870 129 870 158 c 0,130,131
736 76 m 2,141,-1
 736 94 l 1,142,143
 732 102 732 102 728 109 c 0,144,145
 724 121 724 121 715 142 c 1,146,-1
 708 73 l 2,147,148
 708 65 708 65 705 65 c 256,149,150
 702 65 702 65 701 67 c 0,151,152
 697 129 697 129 697 121 c 2,153,-1
 697 141 l 2,154,155
 695 143 695 143 694 143 c 0,156,157
 675 122 675 122 675 77 c 0,158,159
 675 51 675 51 679 46 c 1,160,161
 684 47 684 47 689 50 c 0,162,163
 692 51 692 51 703 51 c 256,164,165
 714 51 714 51 731 43 c 0,166,167
 736 43 736 43 736 76 c 2,141,-1
672 148 m 0,168,169
 672 173 672 173 650 196 c 128,-1,170
 628 219 628 219 602 219 c 0,171,172
 580 219 580 219 563 200 c 128,-1,173
 546 181 546 181 546 159 c 0,174,175
 546 138 546 138 565 133 c 0,176,177
 577 129 577 129 600 128 c 2,178,-1
 632 128 l 2,179,180
 672 128 672 128 672 148 c 0,168,169
EndSplineSet
EndChar
StartChar: I
Encoding: 73 73 142
AltUni2: 000069.ffffffff.0
Width: 0
Flags: W
LayerCount: 2
Fore
SplineSet
1664 396 m 1,0,-1
 1600 384 l 1,1,-1
 1548 364 l 1,2,-1
 1512 332 l 1,3,-1
 1540 296 l 1,4,-1
 1604 304 l 1,5,-1
 1716 336 l 1,6,-1
 1924 344 l 1,7,-1
 1972 364 l 1,8,-1
 1928 376 l 1,9,-1
 1732 396 l 1,10,-1
 1664 396 l 1,0,-1
1201 285 m 1,11,12
 1192 252 1192 252 1209 230 c 1,13,-1
 1371 255 l 2,14,15
 1402 258 1402 258 1432 272 c 1,16,-1
 1424 324 l 1,17,-1
 1201 285 l 1,11,12
EndSplineSet
EndChar
StartChar: J
Encoding: 74 74 44
Width: 1043
Flags: W
LayerCount: 2
Fore
SplineSet
546 403 m 0,0,1
 519 338 519 338 437 338 c 0,2,3
 421 338 421 338 404 334 c 0,4,5
 378 329 378 329 378 318 c 0,6,7
 378 316 378 316 382 311.5 c 128,-1,8
 386 307 386 307 390 307 c 1,9,10
 374 307 374 307 410.5 306 c 128,-1,11
 447 305 447 305 457 305 c 1,12,13
 403 273 403 273 275 275 c 0,14,15
 234 277 234 277 204 313 c 0,16,17
 174 347 174 347 174 390 c 0,18,19
 174 434 174 434 204.5 466 c 128,-1,20
 235 498 235 498 279 498 c 0,21,22
 290 498 290 498 306 493.5 c 128,-1,23
 322 489 322 489 329 489 c 0,24,25
 351 489 351 489 385.5 507.5 c 128,-1,26
 420 526 420 526 418 526 c 0,27,28
 412 461 412 461 374 439 c 0,29,30
 347 424 347 424 347 408 c 0,31,32
 347 399 347 399 359 394 c 0,33,34
 368 388 368 388 378 388 c 0,35,36
 395 388 395 388 410.5 408.5 c 128,-1,37
 426 429 426 429 424 444 c 0,38,39
 422 464 422 464 426 490 c 0,40,41
 428 498 428 498 435.5 509 c 128,-1,42
 443 520 443 520 450 521 c 1,43,44
 450 516 450 516 446 503 c 128,-1,45
 442 490 442 490 442 483 c 0,46,47
 442 470 442 470 448 463 c 1,48,49
 460 466 460 466 469 490 c 0,50,51
 476 508 476 508 477 525 c 1,52,53
 451 526 451 526 427 549 c 128,-1,54
 403 572 403 572 403 598 c 0,55,56
 403 602 403 602 404 607 c 1,57,58
 408 600 408 600 416 589 c 0,59,60
 426 573 426 573 431 573 c 0,61,62
 439 573 439 573 439 589 c 0,63,64
 439 609 439 609 429 625 c 0,65,66
 417 645 417 645 398 645 c 0,67,68
 390 645 390 645 372.5 635.5 c 128,-1,69
 355 626 355 626 340 626 c 0,70,71
 335 626 335 626 301 637 c 1,72,73
 363 647 363 647 363 655 c 0,74,75
 363 677 363 677 279 684 c 0,76,77
 270 685 270 685 249 686 c 1,78,79
 252 690 252 690 285 694 c 0,80,81
 313 697 313 697 324 697 c 0,82,83
 473 697 473 697 512 552 c 1,84,85
 520 557 520 557 520 570 c 0,86,87
 520 587 520 587 509 613 c 0,88,89
 506 624 506 624 498 643 c 1,90,91
 548 578 548 578 548 521 c 0,92,93
 548 490 548 490 534 465 c 0,94,95
 525 448 525 448 499 421.5 c 128,-1,96
 473 395 473 395 464 381 c 1,97,98
 499 391 499 391 509 395 c 0,99,100
 533 407 533 407 552 427 c 1,101,102
 552 420 552 420 546 403 c 0,0,1
382 591 m 0,103,104
 382 581 382 581 370.5 574 c 128,-1,105
 359 567 359 567 347 567 c 0,106,107
 333 567 333 567 321 583 c 0,108,109
 307 603 307 603 291 609 c 1,110,111
 295 613 295 613 299 613 c 0,112,113
 304 613 304 613 317.5 604 c 128,-1,114
 331 595 331 595 335 595 c 0,115,116
 338 595 338 595 345 604 c 128,-1,117
 352 613 352 613 361 613 c 0,118,119
 382 613 382 613 382 591 c 0,103,104
273 648 m 0,120,121
 273 637 273 637 261 634 c 2,122,-1
 244 632 l 2,123,124
 236 628 236 628 220 598 c 1,125,126
 217 607 217 607 213 624 c 1,127,128
 208 622 208 622 195 613 c 0,129,130
 190 609 190 609 177 600 c 1,131,132
 181 622 181 622 201 646 c 0,133,134
 223 672 223 672 246 672 c 0,135,136
 273 672 273 672 273 648 c 0,120,121
880 132 m 0,137,138
 880 121 880 121 871.5 111.5 c 128,-1,139
 863 102 863 102 851 102 c 0,140,141
 833 102 833 102 825 119 c 1,142,-1
 798 121 l 2,143,144
 790 121 790 121 766 113 c 0,145,146
 738 106 738 106 734 101 c 0,147,148
 729 95 729 95 725 70 c 0,149,150
 721 49 721 49 721 40 c 0,151,152
 721 24 721 24 725.5 17 c 128,-1,153
 730 10 730 10 745 5.5 c 128,-1,154
 760 1 760 1 764 1 c 0,155,156
 767 1 767 1 772 1 c 2,157,-1
 779 1 l 2,158,159
 785 1 785 1 793 -1 c 0,160,161
 805 -4 805 -4 803 -10 c 1,162,163
 795 -9 795 -9 776 -13 c 1,164,-1
 792 -21 l 1,165,166
 792 -28 792 -28 772 -28 c 0,167,168
 767 -28 767 -28 758.5 -25.5 c 128,-1,169
 750 -23 750 -23 747 -23 c 2,170,-1
 740 -23 l 1,171,172
 738 -28 738 -28 736 -40 c 1,173,174
 727 -40 727 -40 714 -29 c 128,-1,175
 701 -18 701 -18 697 -18 c 0,176,177
 694 -18 694 -18 687.5 -29 c 128,-1,178
 681 -40 681 -40 681 -44 c 1,179,180
 675 -40 675 -40 669 -28 c 0,181,182
 667 -22 667 -22 664 -14 c 1,183,184
 659 -15 659 -15 643 -38 c 1,185,-1
 641 -38 l 2,186,187
 639 -36 639 -36 635.5 -25 c 128,-1,188
 632 -14 632 -14 632 -14 c 1,189,190
 615 -9 615 -9 599 -9 c 0,191,192
 591 -9 591 -9 577 -12 c 2,193,-1
 561 -12 l 1,194,195
 564 -8 564 -8 581 1 c 0,196,197
 599 13 599 13 610 13 c 0,198,199
 612 13 612 13 614.5 12 c 128,-1,200
 617 11 617 11 619 11 c 0,201,202
 623 11 623 11 632 16 c 128,-1,203
 641 21 641 21 642 24 c 128,-1,204
 643 27 643 27 643 41 c 0,205,206
 643 73 643 73 626 89 c 0,207,208
 612 102 612 102 578 109 c 1,209,210
 569 76 569 76 528 76 c 0,211,212
 513 76 513 76 499.5 93 c 128,-1,213
 486 110 486 110 486 123 c 0,214,215
 486 144 486 144 504 157 c 1,216,217
 490 173 490 173 490 187 c 256,218,219
 490 201 490 201 498.5 212 c 128,-1,220
 507 223 507 223 521 225 c 1,221,222
 520 243 520 243 533 249 c 1,223,224
 528 256 528 256 528 271 c 0,225,226
 528 290 528 290 540 302 c 128,-1,227
 552 314 552 314 571 314 c 0,228,229
 591 314 591 314 603 300 c 1,230,231
 620 356 620 356 675 356 c 0,232,233
 702 356 702 356 724 334 c 0,234,235
 732 326 732 326 732 325 c 1,236,237
 725 325 725 325 738 327.5 c 128,-1,238
 751 330 751 330 758 330 c 0,239,240
 780 330 780 330 797 313 c 0,241,242
 811 299 811 299 818 277 c 0,243,244
 821 275 821 275 829 273 c 0,245,246
 842 266 842 266 842 252 c 0,247,248
 842 249 842 249 837 242 c 1,249,250
 873 221 873 221 873 184 c 0,251,252
 873 174 873 174 866 157 c 1,253,254
 880 148 880 148 880 132 c 0,137,138
746 210 m 1,255,256
 738 213 738 213 720 221 c 1,257,-1
 720 173 l 1,258,259
 747 188 747 188 746 210 c 1,255,256
776 144 m 1,260,-1
 764 158 l 1,261,262
 753 151 753 151 741.5 143 c 128,-1,263
 730 135 730 135 721 125 c 1,264,265
 747 138 747 138 776 144 c 1,260,-1
672 195 m 1,266,-1
 672 219 l 1,267,268
 659 221 659 221 656 221 c 2,269,-1
 656 213 l 1,270,-1
 672 195 l 1,266,-1
638 177 m 1,271,272
 629 187 629 187 624 196 c 1,273,274
 599 191 599 191 599 182 c 1,275,276
 607 183 607 183 620 180 c 128,-1,277
 633 177 633 177 638 177 c 1,271,272
649 106 m 1,278,-1
 649 114 l 2,279,280
 649 127 649 127 636 138 c 128,-1,281
 623 149 623 149 610 149 c 0,282,283
 594 149 594 149 581 141 c 1,284,285
 611 143 611 143 649 106 c 1,278,-1
EndSplineSet
EndChar
StartChar: K
Encoding: 75 75 45
Width: 1045
Flags: W
LayerCount: 2
Fore
SplineSet
886 62 m 0,0,1
 859 -2 859 -2 777 -2 c 0,2,3
 762 -2 762 -2 745 -6 c 0,4,5
 719 -11 719 -11 719 -21 c 0,6,7
 719 -24 719 -24 723 -28.5 c 128,-1,8
 727 -33 727 -33 730 -33 c 1,9,10
 715 -33 715 -33 751.5 -33.5 c 128,-1,11
 788 -34 788 -34 798 -34 c 1,12,13
 743 -67 743 -67 616 -64 c 0,14,15
 574 -63 574 -63 544 -27 c 0,16,17
 515 7 515 7 515 49 c 0,18,19
 515 94 515 94 545.5 125.5 c 128,-1,20
 576 157 576 157 620 157 c 0,21,22
 630 157 630 157 646.5 152.5 c 128,-1,23
 663 148 663 148 669 148 c 0,24,25
 691 148 691 148 725.5 167 c 128,-1,26
 760 186 760 186 759 186 c 0,27,28
 753 121 753 121 715 99 c 0,29,30
 689 83 689 83 689 68 c 0,31,32
 689 59 689 59 699 53 c 0,33,34
 708 48 708 48 719 48 c 0,35,36
 736 48 736 48 751.5 68 c 128,-1,37
 767 88 767 88 764 104 c 0,38,39
 763 124 763 124 767 150 c 0,40,41
 768 157 768 157 776 168 c 128,-1,42
 784 179 784 179 790 182 c 1,43,44
 790 176 790 176 786 163 c 128,-1,45
 782 150 782 150 782 143 c 0,46,47
 782 130 782 130 789 122 c 1,48,49
 801 126 801 126 810 151 c 0,50,51
 816 168 816 168 818 185 c 1,52,53
 792 186 792 186 767.5 208.5 c 128,-1,54
 743 231 743 231 743 257 c 0,55,56
 743 261 743 261 745 267 c 1,57,58
 749 260 749 260 756 248 c 0,59,60
 767 233 767 233 772 233 c 0,61,62
 780 233 780 233 780 248 c 0,63,64
 780 269 780 269 769 285 c 0,65,66
 758 304 758 304 738 304 c 0,67,68
 730 304 730 304 712.5 295 c 128,-1,69
 695 286 695 286 681 286 c 0,70,71
 676 286 676 286 642 296 c 1,72,73
 703 307 703 307 703 315 c 0,74,75
 703 337 703 337 620 343 c 0,76,77
 611 345 611 345 590 346 c 1,78,79
 593 350 593 350 625 354 c 0,80,81
 654 356 654 356 664 356 c 0,82,83
 814 356 814 356 853 212 c 1,84,85
 860 217 860 217 860 230 c 0,86,87
 860 247 860 247 850 273 c 0,88,89
 846 283 846 283 838 303 c 1,90,91
 889 238 889 238 889 181 c 0,92,93
 889 150 889 150 875 125 c 0,94,95
 866 108 866 108 840.5 82 c 128,-1,96
 815 56 815 56 805 40 c 1,97,98
 840 51 840 51 850 56 c 0,99,100
 873 66 873 66 893 87 c 1,101,102
 893 79 893 79 886 62 c 0,0,1
723 251 m 0,103,104
 723 241 723 241 711 233.5 c 128,-1,105
 699 226 699 226 689 226 c 0,106,107
 673 226 673 226 662 243 c 0,108,109
 647 263 647 263 632 269 c 1,110,111
 635 273 635 273 639 273 c 0,112,113
 645 273 645 273 658.5 264 c 128,-1,114
 672 255 672 255 676 255 c 0,115,116
 678 255 678 255 685.5 264 c 128,-1,117
 693 273 693 273 702 273 c 0,118,119
 723 273 723 273 723 251 c 0,103,104
613 308 m 0,120,121
 613 296 613 296 602 294 c 2,122,-1
 585 291 l 2,123,124
 577 287 577 287 560 257 c 1,125,126
 557 267 557 267 554 283 c 1,127,128
 548 282 548 282 535 273 c 0,129,130
 530 269 530 269 517 260 c 1,131,132
 521 282 521 282 542 306 c 0,133,134
 564 332 564 332 586 332 c 0,135,136
 613 332 613 332 613 308 c 0,120,121
453 413 m 0,137,138
 453 454 453 454 426 494 c 0,139,140
 408 519 408 519 374 567 c 0,141,142
 347 608 347 608 347 651 c 0,143,144
 347 671 347 671 357 715 c 1,145,146
 290 660 290 660 240 586 c 0,147,148
 179 497 179 497 179 428 c 0,149,150
 179 361 179 361 214 320 c 0,151,152
 253 276 253 276 317 276 c 0,153,154
 374 276 374 276 413.5 316 c 128,-1,155
 453 356 453 356 453 413 c 0,137,138
424 424 m 0,156,157
 424 390 424 390 397 390 c 0,158,159
 373 390 373 390 373 415 c 1,160,-1
 382 442 l 2,161,162
 391 469 391 469 391 485 c 0,163,164
 391 493 391 493 388 497 c 1,165,166
 403 489 403 489 413.5 465.5 c 128,-1,167
 424 442 424 442 424 424 c 0,156,157
EndSplineSet
EndChar
StartChar: L
Encoding: 76 76 143
AltUni2: 00006c.ffffffff.0
Width: 2276
Flags: W
LayerCount: 2
Fore
SplineSet
1622 468 m 1,0,-1
 1718 468 l 1,1,-1
 2054 432 l 1,2,-1
 2138 436 l 1,3,-1
 2210 456 l 1,4,-1
 2230 468 l 1,5,-1
 2210 424 l 1,6,-1
 2154 356 l 1,7,-1
 2230 372 l 1,8,-1
 2218 348 l 1,9,-1
 2094 256 l 1,10,-1
 2034 224 l 1,11,-1
 1754 132 l 1,12,-1
 1598 112 l 1,13,-1
 1518 120 l 1,14,-1
 1466 160 l 1,15,-1
 1170 128 l 1,16,-1
 1162 140 l 1,17,-1
 74 0 l 1,18,-1
 28 21 l 1,19,-1
 4 48 l 1,20,-1
 0 94 l 1,21,-1
 18 128 l 1,22,23
 42 150 42 150 78 156 c 2,24,-1
 1113 299 l 1,25,-1
 1122 320 l 1,26,-1
 1362 360 l 1,27,-1
 1434 380 l 1,28,-1
 1482 424 l 1,29,-1
 1546 452 l 1,30,-1
 1622 468 l 1,0,-1
1658 396 m 1,31,-1
 1594 384 l 1,32,-1
 1542 364 l 1,33,-1
 1506 332 l 1,34,-1
 1534 296 l 1,35,-1
 1598 304 l 1,36,-1
 1710 336 l 1,37,-1
 1918 344 l 1,38,-1
 1966 364 l 1,39,-1
 1922 376 l 1,40,-1
 1726 396 l 1,41,-1
 1658 396 l 1,31,-1
1195 285 m 1,42,43
 1186 252 1186 252 1203 230 c 1,44,-1
 1365 255 l 2,45,46
 1396 258 1396 258 1426 272 c 1,47,-1
 1418 324 l 1,48,-1
 1195 285 l 1,42,43
EndSplineSet
EndChar
StartChar: M
Encoding: 77 77 46
Width: 1058
Flags: W
LayerCount: 2
Fore
SplineSet
569 466 m 1,0,1
 524 492 524 492 511 492 c 0,2,3
 501 492 501 492 495.5 477 c 128,-1,4
 490 462 490 462 475 462 c 0,5,6
 468 462 468 462 447 468 c 1,7,8
 436 451 436 451 436 446 c 0,9,10
 436 439 436 439 445.5 430 c 128,-1,11
 455 421 455 421 462 421 c 0,12,13
 465 421 465 421 472.5 423 c 128,-1,14
 480 425 480 425 482 425 c 0,15,16
 490 425 490 425 490 399 c 256,17,18
 490 373 490 373 477 319 c 1,19,20
 463 381 463 381 445 381 c 0,21,22
 442 381 442 381 435 377 c 128,-1,23
 428 373 428 373 424 373 c 0,24,25
 407 373 407 373 394 405 c 1,26,27
 367 400 367 400 367 377 c 0,28,29
 367 365 367 365 378 358 c 128,-1,30
 389 351 389 351 389 348 c 0,31,32
 389 331 389 331 342 299 c 0,33,34
 317 280 317 280 308 274 c 1,35,36
 316 284 316 284 325 301 c 0,37,38
 334 321 334 321 334 331 c 0,39,40
 334 338 334 338 320 348 c 128,-1,41
 306 358 306 358 306 371 c 0,42,43
 306 381 306 381 312 396 c 1,44,45
 306 405 306 405 294 405 c 0,46,47
 270 405 270 405 270 390 c 1,48,-1
 270 390 l 1,49,50
 270 400 270 400 272 373 c 0,51,52
 272 353 272 353 242 353 c 0,53,54
 218 353 218 353 164 365 c 1,55,56
 226 379 226 379 226 400 c 1,57,-1
 226 400 l 1,58,59
 226 397 226 397 224 414 c 0,60,61
 221 433 221 433 250 447 c 1,62,63
 244 474 244 474 221 474 c 0,64,65
 217 474 217 474 208 461.5 c 128,-1,66
 199 449 199 449 190 449 c 0,67,68
 176 449 176 449 153 481 c 0,69,70
 143 496 143 496 121 526 c 1,71,72
 135 520 135 520 148 512 c 0,73,74
 166 504 166 504 177 504 c 0,75,76
 185 504 185 504 193.5 518.5 c 128,-1,77
 202 533 202 533 215 533 c 0,78,79
 216 533 216 533 238 526 c 1,80,81
 250 543 250 543 250 551 c 256,82,83
 250 559 250 559 240.5 568 c 128,-1,84
 231 577 231 577 225 577 c 0,85,86
 222 577 222 577 215.5 575 c 128,-1,87
 209 573 209 573 207 573 c 0,88,89
 196 573 196 573 196 600 c 0,90,91
 196 607 196 607 209 681 c 1,92,93
 209 673 209 673 217 648 c 0,94,95
 228 618 228 618 241 618 c 0,96,97
 243 618 243 618 250 621.5 c 128,-1,98
 257 625 257 625 261 625 c 0,99,100
 276 625 276 625 285 611 c 2,101,-1
 293 594 l 1,102,103
 306 594 306 594 314 603 c 128,-1,104
 322 612 322 612 322 625 c 256,105,106
 322 638 322 638 311 644.5 c 128,-1,107
 300 651 300 651 300 655 c 0,108,109
 300 667 300 667 339 696 c 0,110,111
 371 721 371 721 381 725 c 1,112,113
 355 690 355 690 355 674 c 1,114,-1
 355 674 l 1,115,116
 355 665 355 665 365 656 c 0,117,118
 377 646 377 646 380 641 c 0,119,120
 385 626 385 626 378 603 c 1,121,122
 394 591 394 591 402 591 c 0,123,124
 420 591 420 591 420 609 c 0,125,126
 420 611 420 611 418 620.5 c 128,-1,127
 416 630 416 630 417 631 c 0,128,129
 420 639 420 639 450 639 c 0,130,131
 469 639 469 639 529 629 c 1,132,133
 516 625 516 625 490 618 c 0,134,135
 465 611 465 611 465 603 c 0,136,137
 465 598 465 598 468.5 588 c 128,-1,138
 472 578 472 578 472 573 c 0,139,140
 472 565 472 565 462 557 c 2,141,-1
 441 543 l 1,142,143
 449 530 449 530 450 529 c 0,144,145
 456 521 456 521 467 521 c 0,146,147
 473 521 473 521 479 533.5 c 128,-1,148
 485 546 485 546 498 546 c 0,149,150
 515 546 515 546 534 516 c 0,151,152
 546 500 546 500 569 466 c 1,0,1
438 500 m 0,153,154
 438 538 438 538 410 566 c 128,-1,155
 382 594 382 594 345 594 c 0,156,157
 306 594 306 594 278 566.5 c 128,-1,158
 250 539 250 539 250 500 c 0,159,160
 248 462 248 462 277 434.5 c 128,-1,161
 306 407 306 407 345 407 c 0,162,163
 385 407 385 407 411.5 433.5 c 128,-1,164
 438 460 438 460 438 500 c 0,153,154
429 500 m 0,165,166
 429 464 429 464 405 440.5 c 128,-1,167
 381 417 381 417 345 417 c 256,168,169
 309 417 309 417 284 441 c 128,-1,170
 259 465 259 465 259 500 c 256,171,172
 259 535 259 535 284 559 c 128,-1,173
 309 583 309 583 345 583 c 0,174,175
 378 583 378 583 403.5 558.5 c 128,-1,176
 429 534 429 534 429 500 c 0,165,166
893 156 m 2,177,178
 893 115 893 115 864 101 c 0,179,180
 855 97 855 97 811 89 c 0,181,182
 783 84 783 84 783 67 c 2,183,-1
 783 18 l 2,184,185
 783 15 783 15 784 0 c 2,186,-1
 786 -19 l 2,187,188
 786 -29 786 -29 781 -49 c 1,189,190
 770 -52 770 -52 755 -55 c 1,191,192
 750 -36 750 -36 750 -30 c 0,193,194
 750 -27 750 -27 751.5 -20.5 c 128,-1,195
 753 -14 753 -14 753 -12 c 0,196,197
 753 -8 753 -8 746 11 c 1,198,-1
 737 11 l 2,199,200
 734 9 734 9 736 4 c 0,201,202
 737 -6 737 -6 737 -13 c 1,203,204
 727 -21 727 -21 708 -32 c 0,205,206
 705 -31 705 -31 706 -31 c 2,207,-1
 706 11 l 2,208,209
 705 14 705 14 699 14 c 2,210,-1
 692 14 l 1,211,-1
 685 -43 l 1,212,213
 676 -44 676 -44 664 -43 c 1,214,215
 660 -23 660 -23 649 15 c 1,216,-1
 645 15 l 1,217,218
 638 -5 638 -5 637 -6 c 0,219,220
 637 -9 637 -9 638.5 -16 c 128,-1,221
 640 -23 640 -23 640 -26 c 0,222,223
 640 -27 640 -27 640 -35 c 2,224,-1
 637 -49 l 2,225,226
 636 -51 636 -51 634 -51 c 0,227,228
 616 -51 616 -51 610 -41.5 c 128,-1,229
 604 -32 604 -32 604 -16 c 2,230,-1
 610 57 l 2,231,232
 610 58 610 58 611 61.5 c 128,-1,233
 612 65 612 65 612 66 c 0,234,235
 612 70 612 70 602 84 c 0,236,237
 601 85 601 85 584 89 c 0,238,239
 573 92 573 92 543 97 c 0,240,241
 502 105 502 105 502 165 c 0,242,243
 502 253 502 253 573 312 c 1,244,245
 577 295 577 295 584 267 c 1,246,247
 589 266 589 266 607 262 c 0,248,249
 611 261 611 261 645 249 c 1,250,251
 628 260 628 260 601 282 c 0,252,253
 590 295 590 295 590 323 c 0,254,255
 590 330 590 330 614 339 c 0,256,257
 633 347 633 347 643 348 c 0,258,259
 676 352 676 352 694 352 c 0,260,261
 770 352 770 352 816 314 c 1,262,263
 801 296 801 296 764 277 c 1,264,265
 779 275 779 275 807 287.5 c 128,-1,266
 835 300 835 300 829 300 c 1,267,268
 835 300 835 300 849 280 c 0,269,270
 861 266 861 266 867 254 c 0,271,272
 887 221 887 221 893 180 c 0,273,274
 893 166 893 166 893 161 c 2,275,-1
 893 156 l 2,177,178
864 154 m 0,276,277
 864 179 864 179 846 198 c 128,-1,278
 828 217 828 217 805 217 c 0,279,280
 779 217 779 217 756.5 193.5 c 128,-1,281
 734 170 734 170 734 144 c 0,282,283
 734 123 734 123 755 123 c 2,284,-1
 825 124 l 2,285,286
 864 124 864 124 864 154 c 0,276,277
728 70 m 2,287,-1
 728 88 l 1,288,289
 724 96 724 96 719 105 c 0,290,291
 716 117 716 117 706 139 c 1,292,-1
 699 67 l 2,293,294
 699 59 699 59 695 59 c 0,295,296
 693 59 693 59 692 61 c 0,297,298
 688 124 688 124 688 117 c 2,299,-1
 688 137 l 2,300,301
 686 139 686 139 685 139 c 0,302,303
 664 118 664 118 664 71 c 0,304,305
 664 45 664 45 669 39 c 0,306,307
 673 40 673 40 680 43 c 0,308,309
 682 44 682 44 694 44 c 256,310,311
 706 44 706 44 721 37 c 0,312,313
 728 37 728 37 728 70 c 2,287,-1
662 144 m 0,314,315
 662 170 662 170 639 193.5 c 128,-1,316
 616 217 616 217 590 217 c 0,317,318
 568 217 568 217 550.5 198 c 128,-1,319
 533 179 533 179 533 154 c 0,320,321
 533 135 533 135 552 128 c 0,322,323
 565 124 565 124 588 124 c 2,324,-1
 621 123 l 2,325,326
 662 123 662 123 662 144 c 0,314,315
EndSplineSet
EndChar
StartChar: Bananamana
Encoding: 78 78 144
AltUni2: 00006e.ffffffff.0
Width: 872
Flags: W
LayerCount: 2
Fore
SplineSet
663 537 m 1,0,-1
 713 537 l 1,1,-1
 718 526 l 1,2,-1
 718 509 l 1,3,-1
 728 390 l 1,4,-1
 718 286 l 1,5,-1
 701 222 l 1,6,-1
 681 176 l 1,7,-1
 643 117 l 1,8,-1
 612 83 l 1,9,-1
 556 41 l 1,10,-1
 492 11 l 1,11,-1
 401 -14 l 1,12,-1
 281 -23 l 1,13,-1
 266 -21 l 1,14,-1
 250 27 l 2,15,16
 251 33 251 33 257 34 c 2,17,-1
 337 68 l 1,18,-1
 396 107 l 1,19,-1
 480 185 l 1,20,-1
 570 307 l 1,21,-1
 647 457 l 1,22,-1
 661 491 l 1,23,-1
 663 504 l 1,24,-1
 663 537 l 1,0,-1
670 527 m 1,25,-1
 677 505 l 1,26,-1
 705 527 l 1,27,-1
 670 527 l 1,25,-1
EndSplineSet
EndChar
StartChar: O
Encoding: 79 79 47
Width: 0
Flags: W
LayerCount: 2
Fore
SplineSet
14 321 m 0,0,1
 14 532 14 532 162 680 c 128,-1,2
 310 828 310 828 521 828 c 0,3,4
 733 828 733 828 881 680.5 c 128,-1,5
 1029 533 1029 533 1029 321 c 256,6,7
 1029 109 1029 109 881 -39 c 128,-1,8
 733 -187 733 -187 521 -187 c 256,9,10
 309 -187 309 -187 161.5 -39 c 128,-1,11
 14 109 14 109 14 321 c 0,0,1
EndSplineSet
EndChar
StartChar: P
Encoding: 80 80 48
Width: 874
Flags: W
LayerCount: 2
Fore
SplineSet
432 706 m 2,0,-1
 479 706 l 1,1,-1
 499 704 l 1,2,-1
 499 700 l 1,3,4
 366 516 366 516 366 370 c 2,5,-1
 366 366 l 1,6,-1
 368 356 l 1,7,-1
 370 356 l 1,8,9
 462 581 462 581 633 581 c 0,10,11
 693 581 693 581 754 548 c 1,12,13
 825 461 825 461 825 328 c 2,14,-1
 825 285 l 1,15,-1
 823 261 l 1,16,-1
 821 261 l 1,17,18
 627 395 627 395 511 395 c 2,19,-1
 501 395 l 1,20,-1
 499 397 l 1,21,-1
 477 395 l 1,22,-1
 477 393 l 1,23,24
 702 296 702 296 702 131 c 0,25,26
 702 67 702 67 667 6 c 1,27,28
 576 -64 576 -64 434 -64 c 1,29,-1
 418 -62 l 1,30,-1
 396 -62 l 2,31,32
 382 -62 382 -62 382 -58 c 0,33,34
 515 132 515 132 515 261 c 2,35,-1
 515 287 l 1,36,-1
 513 287 l 1,37,38
 419 61 419 61 250 61 c 0,39,40
 180 61 180 61 123 97 c 1,41,42
 56 187 56 187 56 324 c 2,43,-1
 56 338 l 2,44,45
 56 370 56 370 60 380 c 1,46,47
 255 245 255 245 384 245 c 1,48,-1
 410 247 l 1,49,-1
 410 249 l 1,50,51
 181 344 181 344 181 506 c 2,52,-1
 181 520 l 2,53,54
 181 580 181 580 214 637 c 1,55,56
 303 706 303 706 432 706 c 2,0,-1
368 346 m 1,57,58
 380 286 380 286 410 255 c 1,59,-1
 418 249 l 1,60,61
 459 249 459 249 513 295 c 1,62,-1
 513 297 l 2,63,64
 513 333 513 333 473 386 c 1,65,-1
 465 393 l 1,66,67
 423 393 423 393 368 346 c 1,57,58
436 346 m 2,68,-1
 445 346 l 2,69,70
 461 346 461 346 465 324 c 1,71,-1
 465 322 l 1,72,73
 460 297 460 297 441 297 c 1,74,75
 416 303 416 303 416 322 c 2,76,-1
 416 324 l 1,77,78
 420 346 420 346 436 346 c 2,68,-1
EndSplineSet
EndChar
StartChar: Q
Encoding: 81 81 145
AltUni2: 000071.ffffffff.0
Width: 875
Flags: W
LayerCount: 2
Fore
SplineSet
698 532 m 1,0,-1
 594 471 l 1,1,2
 670 353 670 353 670 253 c 0,3,4
 670 171 670 171 621.5 121.5 c 128,-1,5
 573 72 573 72 491 72 c 0,6,7
 354 72 354 72 180 215 c 1,8,-1
 263 297 l 1,9,10
 382 189 382 189 487 189 c 0,11,12
 525 189 525 189 539.5 203 c 128,-1,13
 554 217 554 217 554 255 c 0,14,15
 554 331 554 331 508 389 c 1,16,-1
 434 285 l 1,17,-1
 434 569 l 1,18,-1
 698 532 l 1,0,-1
EndSplineSet
EndChar
StartChar: R
Encoding: 82 82 49
Width: 875
Flags: W
LayerCount: 2
Fore
SplineSet
769 191 m 0,0,1
 725 86 725 86 594 86 c 0,2,3
 570 86 570 86 542 80 c 0,4,5
 500 71 500 71 500 55 c 0,6,7
 500 50 500 50 507 43.5 c 128,-1,8
 514 37 514 37 519 37 c 1,9,10
 494 37 494 37 553 35.5 c 128,-1,11
 612 34 612 34 627 34 c 1,12,13
 540 -17 540 -17 336 -13 c 0,14,15
 269 -12 269 -12 221 46 c 0,16,17
 174 101 174 101 174 169 c 0,18,19
 174 241 174 241 222.5 291.5 c 128,-1,20
 271 342 271 342 343 342 c 0,21,22
 359 342 359 342 385.5 335 c 128,-1,23
 412 328 412 328 421 328 c 0,24,25
 458 328 458 328 513 358.5 c 128,-1,26
 568 389 568 389 565 389 c 0,27,28
 555 284 555 284 495 248 c 0,29,30
 452 223 452 223 452 199 c 0,31,32
 452 184 452 184 470 175 c 0,33,34
 484 168 484 168 501 168 c 0,35,36
 527 168 527 168 552 200 c 128,-1,37
 577 232 577 232 574 258 c 0,38,39
 571 288 571 288 578 330 c 0,40,41
 580 342 580 342 592.5 359.5 c 128,-1,42
 605 377 605 377 615 381 c 1,43,44
 615 372 615 372 608.5 351 c 128,-1,45
 602 330 602 330 602 320 c 0,46,47
 602 298 602 298 614 286 c 1,48,49
 632 293 632 293 646 331 c 0,50,51
 658 360 658 360 660 387 c 1,52,53
 618 389 618 389 579.5 425 c 128,-1,54
 541 461 541 461 541 503 c 0,55,56
 541 510 541 510 543 517 c 1,57,58
 549 508 549 508 561 489 c 0,59,60
 578 464 578 464 587 464 c 0,61,62
 599 464 599 464 599 489 c 0,63,64
 599 521 599 521 582 547 c 0,65,66
 563 578 563 578 533 578 c 0,67,68
 519 578 519 578 491 563 c 128,-1,69
 463 548 463 548 440 548 c 0,70,71
 433 548 433 548 378 566 c 1,72,73
 475 582 475 582 475 595 c 0,74,75
 475 629 475 629 342 641 c 0,76,77
 329 642 329 642 294 645 c 1,78,79
 298 650 298 650 351 656 c 0,80,81
 396 661 396 661 414 661 c 0,82,83
 652 661 652 661 716 430 c 1,84,85
 727 439 727 439 727 460 c 0,86,87
 727 487 727 487 711 528 c 0,88,89
 705 544 705 544 692 576 c 1,90,91
 774 472 774 472 774 379 c 0,92,93
 774 330 774 330 751 290 c 0,94,95
 736 263 736 263 695 221 c 128,-1,96
 654 179 654 179 639 156 c 1,97,98
 694 171 694 171 711 179 c 0,99,100
 749 196 749 196 780 230 c 1,101,102
 780 217 780 217 769 191 c 0,0,1
507 492 m 0,103,104
 507 475 507 475 488.5 463.5 c 128,-1,105
 470 452 470 452 452 452 c 0,106,107
 428 452 428 452 409 479 c 0,108,109
 386 512 386 512 362 522 c 1,110,111
 367 527 367 527 374 527 c 0,112,113
 383 527 383 527 404.5 513 c 128,-1,114
 426 499 426 499 432 499 c 0,115,116
 437 499 437 499 448.5 513 c 128,-1,117
 460 527 460 527 474 527 c 0,118,119
 507 527 507 527 507 492 c 0,103,104
333 584 m 0,120,121
 333 566 333 566 313 561 c 2,122,-1
 287 557 l 1,123,124
 273 550 273 550 246 502 c 1,125,126
 243 517 243 517 237 544 c 1,127,128
 228 543 228 543 207 528 c 0,129,130
 198 521 198 521 178 507 c 1,131,132
 184 543 184 543 218 580 c 0,133,134
 254 621 254 621 288 621 c 0,135,136
 333 621 333 621 333 584 c 0,120,121
EndSplineSet
EndChar
StartChar: S
Encoding: 83 83 50
Width: 874
Flags: W
LayerCount: 2
Fore
SplineSet
438 700 m 1,0,1
 476 655 476 655 513 596 c 1,2,-1
 535 624 l 1,3,-1
 554 624 l 2,4,5
 568 624 568 624 633 656 c 1,6,-1
 646 574 l 1,7,-1
 658 555 l 1,8,-1
 658 552 l 1,9,-1
 643 523 l 1,10,11
 772 513 772 513 772 505 c 0,12,13
 728 412 728 412 721 388 c 1,14,-1
 750 388 l 1,15,-1
 784 350 l 1,16,-1
 832 315 l 1,17,18
 767 276 767 276 753 243 c 1,19,-1
 721 243 l 1,20,-1
 772 126 l 1,21,-1
 643 111 l 1,22,-1
 658 85 l 1,23,24
 639 48 639 48 639 -18 c 1,25,-1
 630 -21 l 1,26,27
 583 7 583 7 532 13 c 1,28,-1
 520 38 l 1,29,-1
 441 -65 l 1,30,-1
 362 38 l 1,31,32
 348 7 348 7 343 7 c 2,33,-1
 312 10 l 1,34,-1
 245 -21 l 1,35,-1
 242 -12 l 1,36,37
 242 46 242 46 223 85 c 1,38,-1
 236 111 l 1,39,-1
 233 111 l 1,40,-1
 107 126 l 1,41,-1
 160 246 l 1,42,-1
 129 246 l 1,43,44
 106 284 106 284 50 315 c 1,45,-1
 50 319 l 1,46,47
 122 366 122 366 123 388 c 1,48,-1
 126 391 l 1,49,-1
 160 391 l 1,50,-1
 110 511 l 1,51,-1
 110 514 l 1,52,-1
 113 514 l 1,53,-1
 236 523 l 1,54,-1
 220 555 l 1,55,56
 242 581 242 581 242 653 c 1,57,-1
 245 656 l 1,58,-1
 249 656 l 1,59,-1
 315 627 l 1,60,-1
 340 627 l 1,61,-1
 365 596 l 1,62,63
 372 614 372 614 438 700 c 1,0,1
438 627 m 1,64,65
 438 620 438 620 384 536 c 1,66,-1
 438 438 l 1,67,-1
 441 438 l 1,68,-1
 498 533 l 1,69,-1
 498 536 l 1,70,-1
 444 627 l 1,71,-1
 438 627 l 1,64,65
268 590 m 1,72,-1
 268 555 l 1,73,74
 296 555 296 555 337 457 c 1,75,76
 353 436 353 436 397 344 c 1,77,-1
 394 341 l 1,78,-1
 390 341 l 1,79,-1
 186 334 l 1,80,-1
 182 331 l 1,81,-1
 179 331 l 1,82,-1
 145 347 l 1,83,-1
 119 334 l 1,84,-1
 119 300 l 1,85,-1
 151 287 l 1,86,-1
 176 300 l 1,87,-1
 394 293 l 1,88,-1
 397 290 l 1,89,-1
 286 92 l 1,90,-1
 264 82 l 1,91,-1
 264 47 l 1,92,-1
 296 35 l 1,93,94
 319 47 319 47 321 54 c 2,95,-1
 318 73 l 1,96,97
 408 225 408 225 441 265 c 1,98,99
 558 89 558 89 558 73 c 2,100,-1
 558 47 l 1,101,-1
 586 32 l 1,102,-1
 614 51 l 1,103,-1
 614 76 l 1,104,105
 568 113 568 113 545 177 c 1,106,-1
 482 290 l 1,107,-1
 485 293 l 1,108,-1
 703 300 l 1,109,-1
 731 284 l 1,110,-1
 734 284 l 1,111,112
 759 298 759 298 759 303 c 2,113,-1
 759 334 l 1,114,-1
 728 347 l 1,115,-1
 706 331 l 1,116,-1
 485 341 l 1,117,118
 583 546 583 546 602 546 c 1,119,120
 602 552 602 552 614 552 c 1,121,-1
 614 583 l 1,122,123
 597 601 597 601 583 602 c 1,124,125
 561 589 561 589 561 577 c 0,126,127
 561 548 561 548 526 501 c 1,128,-1
 444 369 l 1,129,-1
 441 369 l 1,130,131
 324 545 324 545 324 561 c 2,132,-1
 324 583 l 2,133,134
 324 592 324 592 293 602 c 1,135,-1
 268 590 l 1,72,-1
173 476 m 1,136,137
 176 462 176 462 223 378 c 1,138,-1
 337 378 l 1,139,140
 290 465 290 465 277 476 c 1,141,-1
 173 476 l 1,136,137
598 473 m 1,142,-1
 545 378 l 1,143,-1
 545 375 l 1,144,-1
 658 375 l 1,145,-1
 709 467 l 1,146,-1
 709 473 l 1,147,-1
 598 473 l 1,142,-1
170 164 m 1,148,-1
 170 161 l 1,149,-1
 277 161 l 1,150,151
 287 170 287 170 337 259 c 1,152,-1
 227 259 l 1,153,154
 216 250 216 250 170 164 c 1,148,-1
545 256 m 1,155,-1
 545 252 l 1,156,-1
 598 158 l 1,157,-1
 646 158 l 1,158,-1
 709 161 l 1,159,-1
 658 256 l 1,160,-1
 545 256 l 1,155,-1
438 196 m 1,161,-1
 384 98 l 1,162,163
 428 18 428 18 441 7 c 1,164,-1
 494 101 l 1,165,166
 463 161 463 161 438 196 c 1,161,-1
EndSplineSet
EndChar
StartChar: U
Encoding: 85 85 52
Width: 875
Flags: W
LayerCount: 2
Fore
SplineSet
633 197 m 0,0,1
 633 253 633 253 594 312 c 0,2,3
 569 346 569 346 521 416 c 0,4,5
 482 475 482 475 482 537 c 0,6,7
 482 564 482 564 496 628 c 1,8,9
 400 549 400 549 329 444 c 0,10,11
 242 316 242 316 242 216 c 0,12,13
 242 123 242 123 293 63 c 0,14,15
 347 0 347 0 439 0 c 0,16,17
 521 0 521 0 577 57 c 128,-1,18
 633 114 633 114 633 197 c 0,0,1
591 212 m 0,19,20
 591 163 591 163 554 163 c 0,21,22
 519 163 519 163 519 198 c 1,23,-1
 532 238 l 2,24,25
 544 277 544 277 544 298 c 0,26,27
 544 309 544 309 541 315 c 1,28,29
 561 304 561 304 576 270.5 c 128,-1,30
 591 237 591 237 591 212 c 0,19,20
EndSplineSet
EndChar
StartChar: V
Encoding: 86 86 53
Width: 1049
Flags: W
LayerCount: 2
Fore
SplineSet
556 491 m 2,0,1
 556 451 556 451 527 436 c 0,2,3
 519 432 519 432 475 425 c 0,4,5
 445 421 445 421 445 403 c 2,6,-1
 445 354 l 2,7,8
 445 351 445 351 447 335 c 2,9,-1
 449 315 l 2,10,11
 449 306 449 306 445 287 c 1,12,13
 433 284 433 284 417 280 c 1,14,15
 414 299 414 299 414 305 c 0,16,17
 414 309 414 309 415 315 c 128,-1,18
 416 321 416 321 416 323 c 0,19,20
 416 328 416 328 408 348 c 1,21,-1
 399 348 l 1,22,23
 398 344 398 344 398 339 c 0,24,25
 401 330 401 330 399 322 c 1,26,27
 389 314 389 314 371 302 c 0,28,29
 367 304 367 304 368 304 c 2,30,-1
 368 347 l 2,31,32
 367 349 367 349 363 349 c 2,33,-1
 355 349 l 1,34,-1
 347 292 l 1,35,36
 339 292 339 292 328 292 c 1,37,38
 323 313 323 313 312 352 c 1,39,-1
 307 352 l 1,40,41
 300 330 300 330 300 328 c 256,42,43
 300 326 300 326 301.5 319.5 c 128,-1,44
 303 313 303 313 303 310 c 0,45,46
 303 308 303 308 302 301 c 2,47,-1
 300 287 l 2,48,49
 299 286 299 286 297 286 c 0,50,51
 278 286 278 286 272.5 295 c 128,-1,52
 267 304 267 304 268 319 c 2,53,-1
 273 392 l 2,54,55
 273 393 273 393 274.5 396.5 c 128,-1,56
 276 400 276 400 276 401 c 0,57,58
 276 406 276 406 265 421 c 0,59,60
 263 421 263 421 246 425 c 0,61,62
 235 427 235 427 206 434 c 0,63,64
 164 442 164 442 164 500 c 0,65,66
 164 588 164 588 237 647 c 1,67,68
 239 631 239 631 247 604 c 1,69,70
 252 603 252 603 271 597 c 0,71,72
 274 597 274 597 307 584 c 1,73,74
 290 595 290 595 263 618 c 0,75,76
 252 630 252 630 252 659 c 0,77,78
 252 665 252 665 276 674 c 0,79,80
 297 683 297 683 307 683 c 0,81,82
 339 688 339 688 356 688 c 0,83,84
 432 688 432 688 479 649 c 1,85,86
 464 631 464 631 427 612 c 1,87,88
 441 612 441 612 469 623.5 c 128,-1,89
 497 635 497 635 493 635 c 1,90,91
 498 635 498 635 512 616 c 0,92,93
 523 601 523 601 529 590 c 0,94,95
 549 556 549 556 555 516 c 0,96,97
 555 503 555 503 556 496 c 2,98,-1
 556 491 l 2,0,1
527 490 m 0,99,100
 527 514 527 514 509.5 533 c 128,-1,101
 492 552 492 552 467 552 c 256,102,103
 442 552 442 552 420 528.5 c 128,-1,104
 398 505 398 505 398 481 c 0,105,106
 398 460 398 460 419 460 c 2,107,-1
 488 460 l 2,108,109
 527 460 527 460 527 490 c 0,99,100
390 405 m 2,110,-1
 390 425 l 1,111,112
 386 432 386 432 382 440 c 0,113,114
 378 452 378 452 369 474 c 1,115,-1
 363 404 l 2,116,117
 363 395 363 395 359 395 c 0,118,119
 356 395 356 395 355 396 c 0,120,121
 351 460 351 460 351 452 c 2,122,-1
 351 473 l 2,123,124
 350 475 350 475 347 475 c 0,125,126
 328 453 328 453 328 406 c 0,127,128
 328 380 328 380 332 374 c 1,129,130
 337 375 337 375 343 379 c 0,131,132
 345 380 345 380 356 380 c 0,133,134
 368 380 368 380 385 373 c 0,135,136
 390 373 390 373 390 405 c 2,110,-1
325 481 m 0,137,138
 325 506 325 506 302.5 529.5 c 128,-1,139
 280 553 280 553 254 553 c 0,140,141
 230 553 230 553 212.5 533.5 c 128,-1,142
 195 514 195 514 195 491 c 0,143,144
 195 470 195 470 216 464 c 0,145,146
 228 460 228 460 251 460 c 2,147,-1
 285 460 l 2,148,149
 325 458 325 458 325 481 c 0,137,138
891 66 m 0,150,151
 863 1 863 1 781 1 c 0,152,153
 766 1 766 1 749 -2 c 0,154,155
 723 -8 723 -8 723 -18 c 0,156,157
 723 -21 723 -21 727 -25.5 c 128,-1,158
 731 -30 731 -30 735 -30 c 1,159,160
 719 -30 719 -30 755.5 -30.5 c 128,-1,161
 792 -31 792 -31 802 -31 c 1,162,163
 748 -63 748 -63 620 -61 c 0,164,165
 579 -60 579 -60 549 -23 c 0,166,167
 519 10 519 10 519 53 c 0,168,169
 519 97 519 97 549.5 129 c 128,-1,170
 580 161 580 161 624 161 c 0,171,172
 634 161 634 161 650.5 156.5 c 128,-1,173
 667 152 667 152 673 152 c 0,174,175
 696 152 696 152 730 170.5 c 128,-1,176
 764 189 764 189 763 189 c 0,177,178
 757 124 757 124 719 102 c 0,179,180
 693 87 693 87 693 71 c 0,181,182
 693 62 693 62 703 57 c 0,183,184
 712 52 712 52 723 52 c 0,185,186
 740 52 740 52 755.5 72 c 128,-1,187
 771 92 771 92 768 108 c 0,188,189
 767 127 767 127 771 153 c 0,190,191
 772 161 772 161 780 172 c 128,-1,192
 788 183 788 183 794 186 c 1,193,194
 794 179 794 179 790.5 166 c 128,-1,195
 787 153 787 153 787 147 c 0,196,197
 787 134 787 134 793 126 c 1,198,199
 805 130 805 130 814 154 c 0,200,201
 820 171 820 171 822 188 c 1,202,203
 796 189 796 189 772 212 c 128,-1,204
 748 235 748 235 748 261 c 0,205,206
 748 265 748 265 749 270 c 1,207,208
 753 263 753 263 761 252 c 0,209,210
 771 236 771 236 776 236 c 0,211,212
 784 236 784 236 784 252 c 0,213,214
 784 273 784 273 774 288 c 0,215,216
 762 308 762 308 742 308 c 0,217,218
 735 308 735 308 717 298.5 c 128,-1,219
 699 289 699 289 685 289 c 0,220,221
 680 289 680 289 646 300 c 1,222,223
 707 310 707 310 707 318 c 0,224,225
 707 340 707 340 624 347 c 0,226,227
 615 348 615 348 594 349 c 1,228,229
 597 353 597 353 629 357 c 0,230,231
 658 360 658 360 668 360 c 0,232,233
 818 360 818 360 857 215 c 1,234,235
 865 221 865 221 865 234 c 0,236,237
 865 250 865 250 854 276 c 0,238,239
 850 287 850 287 842 306 c 1,240,241
 893 241 893 241 893 184 c 0,242,243
 893 153 893 153 879 128 c 0,244,245
 870 111 870 111 844.5 85 c 128,-1,246
 819 59 819 59 809 44 c 1,247,248
 844 54 844 54 854 59 c 0,249,250
 878 70 878 70 897 91 c 1,251,252
 897 83 897 83 891 66 c 0,150,151
727 254 m 0,253,254
 727 244 727 244 715 237 c 128,-1,255
 703 230 703 230 693 230 c 0,256,257
 677 230 677 230 666 247 c 0,258,259
 651 266 651 266 636 273 c 1,260,261
 640 276 640 276 644 276 c 0,262,263
 649 276 649 276 662.5 267 c 128,-1,264
 676 258 676 258 680 258 c 0,265,266
 683 258 683 258 690 267 c 128,-1,267
 697 276 697 276 706 276 c 0,268,269
 727 276 727 276 727 254 c 0,253,254
618 312 m 0,270,271
 618 300 618 300 606 297 c 2,272,-1
 589 295 l 2,273,274
 581 291 581 291 564 261 c 1,275,276
 562 270 562 270 558 287 c 1,277,278
 553 286 553 286 540 276 c 0,279,280
 534 273 534 273 521 263 c 1,281,282
 525 286 525 286 546 309 c 0,283,284
 568 335 568 335 590 335 c 0,285,286
 618 335 618 335 618 312 c 0,270,271
EndSplineSet
EndChar
StartChar: W
Encoding: 87 87 54
Width: 875
Flags: W
LayerCount: 2
Fore
SplineSet
818 264 m 1,0,1
 740 308 740 308 718 308 c 0,2,3
 702 308 702 308 693 283.5 c 128,-1,4
 684 259 684 259 657 259 c 0,5,6
 646 259 646 259 612 267 c 1,7,8
 593 238 593 238 593 230 c 0,9,10
 593 219 593 219 609 204 c 128,-1,11
 625 189 625 189 636 189 c 0,12,13
 643 189 643 189 655 192 c 128,-1,14
 667 195 667 195 671 195 c 0,15,16
 683 195 683 195 683 150 c 0,17,18
 683 107 683 107 663 18 c 1,19,20
 637 120 637 120 608 120 c 0,21,22
 604 120 604 120 591.5 114 c 128,-1,23
 579 108 579 108 573 108 c 0,24,25
 544 108 544 108 521 161 c 1,26,27
 475 154 475 154 475 114 c 0,28,29
 475 94 475 94 494.5 82 c 128,-1,30
 514 70 514 70 514 65 c 0,31,32
 514 38 514 38 435 -18 c 0,33,34
 393 -48 393 -48 377 -60 c 1,35,36
 391 -42 391 -42 405 -13 c 0,37,38
 421 20 421 20 421 38 c 0,39,40
 421 48 421 48 397 66 c 128,-1,41
 373 84 373 84 373 104 c 0,42,43
 373 121 373 121 385 146 c 1,44,45
 372 161 372 161 354 161 c 0,46,47
 314 161 314 161 314 135 c 1,48,-1
 314 135 l 1,49,50
 314 153 314 153 316 108 c 0,51,52
 317 75 317 75 266 75 c 0,53,54
 227 75 227 75 135 93 c 1,55,56
 239 119 239 119 239 153 c 1,57,-1
 239 153 l 1,58,59
 239 149 239 149 235 177 c 0,60,61
 231 208 231 208 279 233 c 1,62,63
 270 279 270 279 231 279 c 0,64,65
 225 279 225 279 209 258 c 128,-1,66
 193 237 193 237 179 237 c 0,67,68
 155 237 155 237 117 289 c 0,69,70
 99 315 99 315 62 366 c 1,71,72
 85 354 85 354 108 342 c 0,73,74
 138 328 138 328 156 328 c 0,75,76
 170 328 170 328 183.5 352.5 c 128,-1,77
 197 377 197 377 219 377 c 0,78,79
 222 377 222 377 259 365 c 1,80,81
 278 394 278 394 278 408 c 0,82,83
 278 420 278 420 263.5 435.5 c 128,-1,84
 249 451 249 451 237 451 c 0,85,86
 232 451 232 451 221.5 448 c 128,-1,87
 211 445 211 445 206 445 c 0,88,89
 188 445 188 445 188 490 c 0,90,91
 188 502 188 502 211 627 c 1,92,93
 210 612 210 612 224 571 c 0,94,95
 241 521 241 521 264 521 c 0,96,97
 268 521 268 521 280 527 c 128,-1,98
 292 533 292 533 299 533 c 0,99,100
 322 533 322 533 337 507 c 2,101,-1
 352 480 l 1,102,103
 373 480 373 480 387 495 c 128,-1,104
 401 510 401 510 401 531 c 0,105,106
 401 553 401 553 382.5 564.5 c 128,-1,107
 364 576 364 576 364 582 c 0,108,109
 364 603 364 603 430 653 c 0,110,111
 483 693 483 693 499 700 c 1,112,113
 456 642 456 642 456 615 c 1,114,-1
 456 615 l 1,115,116
 456 601 456 601 473 585 c 0,117,118
 494 566 494 566 497 558 c 0,119,120
 507 535 507 535 495 495 c 1,121,122
 522 476 522 476 536 476 c 0,123,124
 565 476 565 476 565 506 c 0,125,126
 565 509 565 509 562.5 525 c 128,-1,127
 560 541 560 541 561 543 c 0,128,129
 565 557 565 557 616 557 c 0,130,131
 648 557 648 557 749 539 c 1,132,133
 727 533 727 533 683 521 c 0,134,135
 643 509 643 509 643 494 c 0,136,137
 643 487 643 487 648 470 c 128,-1,138
 653 453 653 453 653 445 c 0,139,140
 653 431 653 431 635 419 c 2,141,-1
 601 395 l 1,142,143
 613 373 613 373 617 369 c 0,144,145
 627 357 627 357 644 357 c 0,146,147
 656 357 656 357 666 378 c 128,-1,148
 676 399 676 399 698 399 c 0,149,150
 725 399 725 399 759 349 c 0,151,152
 778 321 778 321 818 264 c 1,0,1
596 322 m 0,153,154
 596 386 596 386 549 433 c 128,-1,155
 502 480 502 480 438 480 c 0,156,157
 373 480 373 480 326 433.5 c 128,-1,158
 279 387 279 387 278 322 c 0,159,160
 277 258 277 258 325.5 211.5 c 128,-1,161
 374 165 374 165 438 165 c 0,162,163
 506 165 506 165 551.5 209.5 c 128,-1,164
 597 254 597 254 596 322 c 0,153,154
581 322 m 0,165,166
 581 261 581 261 540 221 c 128,-1,167
 499 181 499 181 438 181 c 0,168,169
 379 181 379 181 337 222 c 128,-1,170
 295 263 295 263 295 322 c 0,171,172
 295 380 295 380 337.5 421.5 c 128,-1,173
 380 463 380 463 438 463 c 256,174,175
 496 463 496 463 538.5 421 c 128,-1,176
 581 379 581 379 581 322 c 0,165,166
EndSplineSet
EndChar
StartChar: X
Encoding: 88 88 55
Width: 875
Flags: W
LayerCount: 2
Fore
SplineSet
479 80 m 1,0,-1
 479 105 l 1,1,2
 534 111 534 111 534 136 c 0,3,4
 534 154 534 154 519 172 c 2,5,-1
 418 294 l 1,6,-1
 338 202 l 2,7,8
 308 168 308 168 308 146 c 0,9,10
 308 112 308 112 363 105 c 1,11,-1
 363 80 l 1,12,-1
 168 80 l 1,13,-1
 168 105 l 1,14,15
 205 112 205 112 231 131 c 0,16,17
 249 145 249 145 280 180 c 2,18,-1
 400 316 l 1,19,-1
 261 481 l 2,20,21
 234 513 234 513 219 523 c 0,22,23
 199 537 199 537 163 541 c 1,24,-1
 163 567 l 1,25,-1
 393 567 l 1,26,-1
 393 542 l 1,27,28
 341 532 341 532 341 511 c 0,29,30
 341 497 341 497 355 480 c 2,31,-1
 447 371 l 1,32,-1
 521 460 l 2,33,34
 541 484 541 484 541 502 c 0,35,36
 541 532 541 532 492 541 c 1,37,-1
 492 567 l 1,38,-1
 675 567 l 1,39,-1
 675 542 l 1,40,41
 651 537 651 537 642 533 c 0,42,43
 612 519 612 519 550 450 c 0,44,45
 540 439 540 439 466 349 c 1,46,-1
 614 171 l 2,47,48
 662 113 662 113 712 105 c 1,49,-1
 712 80 l 1,50,-1
 479 80 l 1,0,-1
EndSplineSet
EndChar
StartChar: Y
Encoding: 89 89 146
AltUni2: 000079.ffffffff.0
Width: 875
Flags: W
LayerCount: 2
Fore
SplineSet
163 565 m 1,0,-1
 373 565 l 1,1,-1
 373 535 l 1,2,-1
 328 528 l 1,3,-1
 343 460 l 1,4,-1
 440 325 l 1,5,-1
 500 400 l 1,6,-1
 545 483 l 1,7,-1
 530 528 l 1,8,-1
 485 543 l 1,9,-1
 485 563 l 1,10,-1
 673 565 l 1,11,-1
 673 535 l 1,12,-1
 620 513 l 1,13,-1
 463 295 l 1,14,-1
 448 220 l 1,15,-1
 455 137 l 1,16,-1
 523 107 l 1,17,-1
 523 77 l 1,18,-1
 298 77 l 1,19,-1
 298 107 l 1,20,-1
 365 130 l 1,21,-1
 373 220 l 1,22,-1
 328 355 l 1,23,-1
 163 565 l 1,0,-1
EndSplineSet
EndChar
StartChar: Z
Encoding: 90 90 147
AltUni2: 00007a.ffffffff.0
Width: 875
Flags: W
LayerCount: 2
Fore
SplineSet
200 566 m 1,0,-1
 597 566 l 1,1,-1
 275 109 l 1,2,-1
 477 117 l 1,3,-1
 545 154 l 1,4,-1
 605 207 l 1,5,-1
 566 99 l 1,6,7
 571 83 571 83 522 79 c 1,8,-1
 163 79 l 1,9,-1
 185 132 l 1,10,-1
 485 536 l 1,11,-1
 335 536 l 1,12,-1
 260 506 l 1,13,-1
 200 461 l 1,14,-1
 200 566 l 1,0,-1
EndSplineSet
EndChar
StartChar: bracketleft
Encoding: 91 91 56
Width: 366
Flags: W
LayerCount: 2
Fore
SplineSet
350 -140 m 1,0,-1
 350 -178 l 1,1,-1
 148 -178 l 1,2,3
 136 -150 136 -150 136 -98 c 2,4,-1
 136 599 l 2,5,6
 136 650 136 650 148 678 c 1,7,-1
 350 678 l 1,8,-1
 350 641 l 1,9,-1
 309 641 l 2,10,11
 257 641 257 641 240 628 c 0,12,13
 218 613 218 613 218 564 c 2,14,-1
 218 -65 l 2,15,16
 218 -113 218 -113 240 -128 c 0,17,18
 257 -140 257 -140 309 -140 c 2,19,-1
 350 -140 l 1,0,-1
EndSplineSet
EndChar
StartChar: backslash
Encoding: 92 92 57
Width: 264
Flags: W
LayerCount: 2
Fore
SplineSet
188 -182 m 1,0,-1
 16 671 l 1,1,-1
 75 671 l 1,2,-1
 248 -182 l 1,3,-1
 188 -182 l 1,0,-1
EndSplineSet
EndChar
StartChar: bracketright
Encoding: 93 93 58
Width: 366
Flags: W
LayerCount: 2
Fore
SplineSet
15 -140 m 1,0,-1
 57 -140 l 2,1,2
 109 -140 109 -140 126 -128 c 0,3,4
 148 -113 148 -113 148 -64 c 2,5,-1
 148 565 l 2,6,7
 148 613 148 613 126 628 c 0,8,9
 109 640 109 640 57 640 c 2,10,-1
 16 640 l 1,11,-1
 16 678 l 1,12,-1
 218 678 l 1,13,14
 229 649 229 649 229 598 c 2,15,-1
 229 -99 l 2,16,17
 229 -149 229 -149 218 -178 c 1,18,-1
 15 -178 l 1,19,-1
 15 -140 l 1,0,-1
EndSplineSet
EndChar
StartChar: asciicircum
Encoding: 94 94 59
Width: 500
Flags: W
LayerCount: 2
Fore
SplineSet
84 384 m 1,0,-1
 30 384 l 1,1,-1
 221 666 l 1,2,-1
 278 666 l 1,3,-1
 470 384 l 1,4,-1
 415 384 l 1,5,-1
 249 625 l 1,6,-1
 84 384 l 1,0,-1
EndSplineSet
EndChar
StartChar: underscore
Encoding: 95 95 60
Width: 500
Flags: W
LayerCount: 2
Fore
SplineSet
500 -79 m 1,0,-1
 500 -132 l 1,1,-1
 0 -132 l 1,2,-1
 0 -79 l 1,3,-1
 500 -79 l 1,0,-1
EndSplineSet
EndChar
StartChar: d
Encoding: 100 100 63
Width: 1022
Flags: W
LayerCount: 2
Fore
SplineSet
559 470 m 0,0,1
 559 458 559 458 550 449 c 128,-1,2
 541 440 541 440 530 440 c 0,3,4
 512 440 512 440 503 457 c 1,5,-1
 477 458 l 2,6,7
 469 458 469 458 443 452 c 0,8,9
 417 444 417 444 413 439 c 0,10,11
 407 432 407 432 403 408 c 0,12,13
 400 388 400 388 400 378 c 0,14,15
 400 363 400 363 404.5 356 c 128,-1,16
 409 349 409 349 424 344 c 128,-1,17
 439 339 439 339 443 339 c 0,18,19
 444 339 444 339 450 339 c 2,20,-1
 456 339 l 2,21,22
 464 339 464 339 472 337 c 0,23,24
 483 334 483 334 481 328 c 1,25,26
 473 330 473 330 454 324 c 1,27,-1
 469 317 l 1,28,29
 469 310 469 310 451 310 c 0,30,31
 446 310 446 310 437 312 c 128,-1,32
 428 314 428 314 425 314 c 2,33,-1
 418 314 l 1,34,35
 417 309 417 309 415 297 c 1,36,37
 405 298 405 298 392 308.5 c 128,-1,38
 379 319 379 319 376 319 c 0,39,40
 372 319 372 319 366 308.5 c 128,-1,41
 360 298 360 298 360 294 c 1,42,43
 352 298 352 298 347 309 c 0,44,45
 346 317 346 317 342 323 c 1,46,47
 337 323 337 323 321 300 c 1,48,-1
 318 300 l 2,49,50
 317 301 317 301 314 312 c 128,-1,51
 311 323 311 323 311 323 c 1,52,53
 292 330 292 330 278 330 c 0,54,55
 270 330 270 330 255 326 c 1,56,-1
 239 327 l 2,57,58
 243 330 243 330 259 340 c 0,59,60
 278 350 278 350 288 350 c 0,61,62
 290 350 290 350 293 350 c 128,-1,63
 296 350 296 350 298 350 c 0,64,65
 301 350 301 350 309.5 354 c 128,-1,66
 318 358 318 358 319.5 361.5 c 128,-1,67
 321 365 321 365 321 379 c 0,68,69
 321 412 321 412 304 427 c 0,70,71
 290 441 290 441 256 448 c 1,72,73
 247 415 247 415 205 415 c 0,74,75
 192 415 192 415 178.5 431.5 c 128,-1,76
 165 448 165 448 165 461 c 0,77,78
 165 482 165 482 182 496 c 1,79,80
 169 510 169 510 169 526 c 0,81,82
 169 540 169 540 177.5 550.5 c 128,-1,83
 186 561 186 561 200 562 c 1,84,85
 199 581 199 581 212 587 c 1,86,87
 205 594 205 594 205 609 c 0,88,89
 205 629 205 629 217.5 641 c 128,-1,90
 230 653 230 653 249 653 c 0,91,92
 269 653 269 653 282 639 c 1,93,94
 299 695 299 695 352 695 c 0,95,96
 381 695 381 695 402 672 c 0,97,98
 409 664 409 664 409 662 c 1,99,100
 403 662 403 662 416.5 665 c 128,-1,101
 430 668 430 668 437 668 c 0,102,103
 459 668 459 668 476 652 c 0,104,105
 490 638 490 638 495 614 c 0,106,107
 499 614 499 614 508 612 c 0,108,109
 520 605 520 605 520 590 c 0,110,111
 520 587 520 587 516 579 c 1,112,113
 552 558 552 558 552 523 c 0,114,115
 552 513 552 513 544 495 c 1,116,117
 559 486 559 486 559 470 c 0,0,1
424 548 m 1,118,119
 417 551 417 551 399 560 c 1,120,-1
 399 512 l 1,121,122
 425 526 425 526 424 548 c 1,118,119
455 482 m 1,123,-1
 443 497 l 1,124,125
 431 490 431 490 419.5 481.5 c 128,-1,126
 408 473 408 473 400 462 c 1,127,128
 425 477 425 477 455 482 c 1,123,-1
351 532 m 1,129,-1
 351 557 l 1,130,131
 338 560 338 560 334 560 c 1,132,-1
 334 551 l 1,133,-1
 351 532 l 1,129,-1
317 516 m 1,134,135
 308 525 308 525 301 535 c 1,136,137
 278 529 278 529 278 521 c 1,138,139
 285 521 285 521 298 518.5 c 128,-1,140
 311 516 311 516 317 516 c 1,134,135
326 445 m 1,141,-1
 326 452 l 2,142,143
 326 465 326 465 313.5 476 c 128,-1,144
 301 487 301 487 288 487 c 0,145,146
 273 487 273 487 259 479 c 1,147,148
 288 482 288 482 326 445 c 1,141,-1
851 61 m 0,149,150
 851 100 851 100 824 141 c 0,151,152
 807 165 807 165 773 214 c 0,153,154
 746 256 746 256 746 299 c 0,155,156
 746 318 746 318 755 363 c 1,157,158
 689 307 689 307 638 234 c 0,159,160
 578 144 578 144 578 74 c 0,161,162
 578 9 578 9 613 -32 c 0,163,164
 651 -77 651 -77 716 -77 c 0,165,166
 773 -77 773 -77 812 -37.5 c 128,-1,167
 851 2 851 2 851 61 c 0,149,150
822 71 m 0,168,169
 822 37 822 37 796 37 c 0,170,171
 772 37 772 37 772 61 c 1,172,-1
 781 89 l 2,173,174
 789 117 789 117 789 131 c 0,175,176
 789 139 789 139 787 143 c 1,177,178
 800 136 800 136 811 112 c 128,-1,179
 822 88 822 88 822 71 c 0,168,169
EndSplineSet
EndChar
StartChar: f
Encoding: 102 102 186
Width: 1035
Flags: W
LayerCount: 2
Fore
SplineSet
590 470 m 1,0,1
 545 496 545 496 532 496 c 0,2,3
 522 496 522 496 516.5 481 c 128,-1,4
 511 466 511 466 496 466 c 0,5,6
 489 466 489 466 468 471 c 1,7,8
 457 454 457 454 457 449 c 0,9,10
 457 443 457 443 466.5 433.5 c 128,-1,11
 476 424 476 424 483 424 c 0,12,13
 486 424 486 424 493.5 426 c 128,-1,14
 501 428 501 428 503 428 c 0,15,16
 511 428 511 428 511 402 c 256,17,18
 511 376 511 376 498 323 c 1,19,20
 484 384 484 384 466 384 c 0,21,22
 463 384 463 384 456 380 c 128,-1,23
 449 376 449 376 445 376 c 0,24,25
 428 376 428 376 415 409 c 1,26,27
 388 404 388 404 388 380 c 0,28,29
 388 368 388 368 399 361 c 128,-1,30
 410 354 410 354 410 352 c 0,31,32
 410 335 410 335 363 302 c 0,33,34
 338 284 338 284 329 278 c 1,35,36
 337 288 337 288 346 305 c 0,37,38
 355 324 355 324 355 335 c 0,39,40
 355 341 355 341 341 351.5 c 128,-1,41
 327 362 327 362 327 375 c 0,42,43
 327 384 327 384 333 400 c 1,44,45
 327 409 327 409 315 409 c 0,46,47
 291 409 291 409 291 393 c 1,48,-1
 291 393 l 1,49,50
 291 404 291 404 293 376 c 0,51,52
 293 357 293 357 263 357 c 0,53,54
 239 357 239 357 185 368 c 1,55,56
 247 383 247 383 247 404 c 1,57,-1
 247 404 l 1,58,59
 247 401 247 401 245 418 c 0,60,61
 242 436 242 436 271 450 c 1,62,63
 265 478 265 478 242 478 c 0,64,65
 238 478 238 478 229 465.5 c 128,-1,66
 220 453 220 453 211 453 c 0,67,68
 197 453 197 453 174 484 c 0,69,70
 164 500 164 500 142 530 c 1,71,72
 156 523 156 523 169 515 c 0,73,74
 187 508 187 508 198 508 c 0,75,76
 206 508 206 508 214.5 522 c 128,-1,77
 223 536 223 536 236 536 c 0,78,79
 237 536 237 536 259 530 c 1,80,81
 271 547 271 547 271 554 c 0,82,83
 271 562 271 562 261.5 571 c 128,-1,84
 252 580 252 580 246 580 c 0,85,86
 243 580 243 580 236.5 578 c 128,-1,87
 230 576 230 576 228 576 c 0,88,89
 217 576 217 576 217 604 c 0,90,91
 217 610 217 610 230 684 c 1,92,93
 230 677 230 677 238 652 c 0,94,95
 249 622 249 622 262 622 c 0,96,97
 264 622 264 622 271 625 c 128,-1,98
 278 628 278 628 282 628 c 0,99,100
 297 628 297 628 306 614 c 2,101,-1
 314 597 l 1,102,103
 327 597 327 597 335 606 c 128,-1,104
 343 615 343 615 343 628 c 256,105,106
 343 641 343 641 332 647.5 c 128,-1,107
 321 654 321 654 321 658 c 0,108,109
 321 670 321 670 360 700 c 0,110,111
 392 725 392 725 402 729 c 1,112,113
 376 693 376 693 376 678 c 1,114,-1
 376 678 l 1,115,116
 376 669 376 669 386 660 c 0,117,118
 398 649 398 649 401 644 c 0,119,120
 406 630 406 630 399 606 c 1,121,122
 415 595 415 595 423 595 c 0,123,124
 441 595 441 595 441 613 c 0,125,126
 441 614 441 614 439 624 c 128,-1,127
 437 634 437 634 438 635 c 0,128,129
 441 643 441 643 471 643 c 0,130,131
 490 643 490 643 550 632 c 1,132,133
 537 628 537 628 511 622 c 0,134,135
 486 614 486 614 486 606 c 0,136,137
 486 601 486 601 489.5 591.5 c 128,-1,138
 493 582 493 582 493 576 c 0,139,140
 493 569 493 569 483 561 c 2,141,-1
 462 547 l 1,142,143
 470 534 470 534 471 532 c 0,144,145
 477 524 477 524 488 524 c 0,146,147
 494 524 494 524 500 536.5 c 128,-1,148
 506 549 506 549 519 549 c 0,149,150
 536 549 536 549 555 519 c 0,151,152
 567 504 567 504 590 470 c 1,0,1
459 504 m 0,153,154
 459 541 459 541 431 569 c 128,-1,155
 403 597 403 597 366 597 c 0,156,157
 327 597 327 597 299 570 c 128,-1,158
 271 543 271 543 271 504 c 0,159,160
 269 466 269 466 298 438 c 128,-1,161
 327 410 327 410 366 410 c 0,162,163
 406 410 406 410 432.5 436.5 c 128,-1,164
 459 463 459 463 459 504 c 0,153,154
450 504 m 0,165,166
 450 467 450 467 426 443.5 c 128,-1,167
 402 420 402 420 366 420 c 256,168,169
 330 420 330 420 305 444.5 c 128,-1,170
 280 469 280 469 280 504 c 256,171,172
 280 539 280 539 305 563 c 128,-1,173
 330 587 330 587 366 587 c 0,174,175
 399 587 399 587 424.5 562 c 128,-1,176
 450 537 450 537 450 504 c 0,165,166
884 55 m 0,177,178
 884 94 884 94 857 136 c 0,179,180
 840 159 840 159 806 209 c 0,181,182
 779 250 779 250 779 293 c 0,183,184
 779 313 779 313 788 357 c 1,185,186
 722 301 722 301 671 228 c 0,187,188
 611 138 611 138 611 68 c 0,189,190
 611 3 611 3 646 -38 c 0,191,192
 684 -82 684 -82 749 -82 c 0,193,194
 806 -82 806 -82 845 -42.5 c 128,-1,195
 884 -3 884 -3 884 55 c 0,177,178
855 66 m 0,196,197
 855 32 855 32 829 32 c 0,198,199
 805 32 805 32 805 55 c 1,200,-1
 814 84 l 2,201,202
 822 111 822 111 822 125 c 0,203,204
 822 133 822 133 820 137 c 1,205,206
 833 131 833 131 844 107 c 128,-1,207
 855 83 855 83 855 66 c 0,196,197
EndSplineSet
EndChar
StartChar: dagger
Encoding: 107 107 80
AltUni2: 002020.ffffffff.0
Width: 875
Flags: W
LayerCount: 2
Fore
SplineSet
392 670 m 1,0,-1
 790 271 l 1,1,-1
 707 173 l 1,2,-1
 687 193 l 1,3,4
 703 237 703 237 703 266 c 0,5,6
 703 314 703 314 658 359 c 2,7,-1
 599 418 l 1,8,-1
 325 145 l 2,9,10
 286 106 286 106 286 77 c 0,11,12
 286 49 286 49 312 27 c 2,13,-1
 319 21 l 1,14,-1
 298 0 l 1,15,-1
 120 179 l 1,16,-1
 140 199 l 1,17,-1
 150 190 l 2,18,19
 178 165 178 165 199 165 c 0,20,21
 228 165 228 165 266 203 c 2,22,-1
 540 477 l 1,23,-1
 479 537 l 2,24,25
 444 571 444 571 422 577 c 0,26,27
 381 588 381 588 321 568 c 2,28,-1
 315 566 l 1,29,-1
 296 585 l 1,30,-1
 392 670 l 1,0,-1
EndSplineSet
EndChar
StartChar: o
Encoding: 111 111 66
Width: 0
Flags: W
LayerCount: 2
Fore
SplineSet
49 321 m 0,0,1
 49 483 49 483 163 597 c 128,-1,2
 277 711 277 711 439 711 c 0,3,4
 602 711 602 711 716 597.5 c 128,-1,5
 830 484 830 484 830 321 c 256,6,7
 830 158 830 158 716 44 c 128,-1,8
 602 -70 602 -70 439 -70 c 256,9,10
 276 -70 276 -70 162.5 44 c 128,-1,11
 49 158 49 158 49 321 c 0,0,1
EndSplineSet
EndChar
StartChar: apple
Encoding: 112 112 148
AltUni2: 00f000.ffffffff.0
Width: 782
Flags: W
LayerCount: 2
Fore
SplineSet
661 443 m 1,0,1
 583 384 583 384 583 308 c 0,2,3
 583 204 583 204 680 163 c 1,4,5
 602 -26 602 -26 515 -26 c 0,6,7
 497 -26 497 -26 476 -17 c 2,8,-1
 436 0 l 2,9,10
 426 1 426 1 404 1 c 0,11,12
 364 1 364 1 354 -2 c 2,13,-1
 312 -19 l 2,14,15
 290 -28 290 -28 275 -28 c 0,16,17
 220 -28 220 -28 168 51 c 0,18,19
 86 173 86 173 86 297 c 0,20,21
 86 386 86 386 132 445 c 0,22,23
 181 510 181 510 268 510 c 0,24,25
 300 510 300 510 343 494 c 0,26,27
 375 481 375 481 389 481 c 0,28,29
 405 481 405 481 432 491 c 0,30,31
 489 512 489 512 520 512 c 0,32,33
 611 512 611 512 661 443 c 1,0,1
522 672 m 1,34,-1
 522 662 l 2,35,36
 522 600 522 600 481 553 c 0,37,38
 439 504 439 504 377 504 c 1,39,40
 378 573 378 573 416 618 c 128,-1,41
 454 663 454 663 522 672 c 1,34,-1
EndSplineSet
EndChar
StartChar: s
Encoding: 115 115 68
Width: 0
Flags: W
LayerCount: 2
Fore
SplineSet
440 627 m 1,0,1
 440 620 440 620 387 536 c 1,2,-1
 440 438 l 1,3,-1
 444 438 l 1,4,-1
 500 533 l 1,5,-1
 500 536 l 1,6,-1
 447 627 l 1,7,-1
 440 627 l 1,0,1
270 590 m 1,8,-1
 270 555 l 1,9,10
 298 555 298 555 340 457 c 1,11,12
 355 436 355 436 399 344 c 1,13,-1
 396 341 l 1,14,-1
 393 341 l 1,15,-1
 188 334 l 1,16,-1
 185 331 l 1,17,-1
 182 331 l 1,18,-1
 147 347 l 1,19,-1
 122 334 l 1,20,-1
 122 300 l 1,21,-1
 154 287 l 1,22,-1
 179 300 l 1,23,-1
 396 293 l 1,24,-1
 399 290 l 1,25,-1
 289 92 l 1,26,-1
 267 82 l 1,27,-1
 267 47 l 1,28,-1
 299 35 l 1,29,30
 322 47 322 47 324 54 c 2,31,-1
 321 73 l 1,32,33
 410 225 410 225 444 265 c 1,34,35
 560 89 560 89 560 73 c 2,36,-1
 560 47 l 1,37,-1
 589 32 l 1,38,-1
 617 51 l 1,39,-1
 617 76 l 1,40,41
 570 113 570 113 548 177 c 1,42,-1
 485 290 l 1,43,-1
 488 293 l 1,44,-1
 705 300 l 1,45,-1
 734 284 l 1,46,-1
 737 284 l 1,47,48
 762 298 762 298 762 303 c 2,49,-1
 762 334 l 1,50,-1
 730 347 l 1,51,-1
 708 331 l 1,52,-1
 488 341 l 1,53,54
 585 546 585 546 604 546 c 1,55,56
 604 552 604 552 617 552 c 1,57,-1
 617 583 l 1,58,59
 600 601 600 601 585 602 c 1,60,61
 563 589 563 589 563 577 c 0,62,63
 563 548 563 548 529 501 c 1,64,-1
 447 369 l 1,65,-1
 444 369 l 1,66,67
 327 545 327 545 327 561 c 2,68,-1
 327 583 l 2,69,70
 327 592 327 592 295 602 c 1,71,-1
 270 590 l 1,8,-1
176 476 m 1,72,73
 178 462 178 462 226 378 c 1,74,-1
 340 378 l 1,75,76
 292 465 292 465 280 476 c 1,77,-1
 176 476 l 1,72,73
601 473 m 1,78,-1
 548 378 l 1,79,-1
 548 375 l 1,80,-1
 661 375 l 1,81,-1
 711 467 l 1,82,-1
 711 473 l 1,83,-1
 601 473 l 1,78,-1
172 164 m 1,84,-1
 172 161 l 1,85,-1
 280 161 l 1,86,87
 290 170 290 170 340 259 c 1,88,-1
 229 259 l 1,89,90
 219 250 219 250 172 164 c 1,84,-1
548 256 m 1,91,-1
 548 252 l 1,92,-1
 601 158 l 1,93,-1
 648 158 l 1,94,-1
 711 161 l 1,95,-1
 661 256 l 1,96,-1
 548 256 l 1,91,-1
440 196 m 1,97,-1
 387 98 l 1,98,99
 431 18 431 18 444 7 c 1,100,-1
 497 101 l 1,101,102
 466 161 466 161 440 196 c 1,97,-1
EndSplineSet
EndChar
StartChar: braceleft
Encoding: 123 123 73
Width: 258
Flags: W
LayerCount: 2
Fore
SplineSet
82 248 m 1,0,1
 143 217 143 217 143 132 c 2,2,-1
 143 -40 l 2,3,4
 143 -100 143 -100 161 -121 c 128,-1,5
 179 -142 179 -142 238 -143 c 1,6,-1
 238 -183 l 1,7,-1
 224 -183 l 2,8,9
 150 -183 150 -183 119 -146 c 0,10,11
 91 -112 91 -112 91 -35 c 2,12,-1
 91 132 l 2,13,14
 91 173 91 173 81 193 c 0,15,16
 69 218 69 218 34 228 c 1,17,-1
 34 268 l 1,18,19
 69 278 69 278 81 303 c 0,20,21
 91 323 91 323 91 364 c 2,22,-1
 91 547 l 2,23,24
 91 682 91 682 224 682 c 2,25,-1
 238 682 l 1,26,-1
 238 642 l 1,27,28
 180 640 180 640 161.5 620 c 128,-1,29
 143 600 143 600 143 542 c 2,30,-1
 143 362 l 2,31,32
 143 317 143 317 132 294 c 0,33,34
 119 266 119 266 82 248 c 1,0,1
EndSplineSet
EndChar
StartChar: bar
Encoding: 124 124 74
Width: 500
Flags: W
LayerCount: 2
Fore
SplineSet
226 666 m 1,0,-1
 272 666 l 1,1,-1
 272 -171 l 1,2,-1
 226 -171 l 1,3,-1
 226 666 l 1,0,-1
EndSplineSet
EndChar
StartChar: braceright
Encoding: 125 125 75
Width: 258
Flags: W
LayerCount: 2
Fore
SplineSet
175 250 m 1,0,1
 114 280 114 280 114 365 c 2,2,-1
 114 538 l 2,3,4
 114 598 114 598 96 619 c 128,-1,5
 78 640 78 640 19 641 c 1,6,-1
 19 682 l 1,7,-1
 33 682 l 2,8,9
 107 682 107 682 138 645 c 0,10,11
 166 611 166 611 166 534 c 2,12,-1
 166 367 l 2,13,14
 166 326 166 326 176 306 c 0,15,16
 188 280 188 280 223 269 c 1,17,-1
 223 230 l 1,18,19
 188 219 188 219 176 194 c 0,20,21
 166 174 166 174 166 133 c 2,22,-1
 166 -49 l 2,23,24
 166 -184 166 -184 33 -184 c 2,25,-1
 27 -184 l 2,26,27
 23 -183 23 -183 19 -183 c 1,28,-1
 19 -143 l 1,29,30
 77 -141 77 -141 95.5 -121 c 128,-1,31
 114 -101 114 -101 114 -43 c 2,32,-1
 114 137 l 2,33,34
 114 181 114 181 126.5 206.5 c 128,-1,35
 139 232 139 232 175 250 c 1,0,1
EndSplineSet
EndChar
StartChar: asciitilde
Encoding: 126 126 76
Width: 500
Flags: W
LayerCount: 2
Fore
SplineSet
463 710 m 1,0,-1
 494 685 l 1,1,2
 430 568 430 568 362 568 c 0,3,4
 337 568 337 568 247 608 c 2,5,-1
 200 629 l 2,6,7
 160 647 160 647 138 647 c 0,8,9
 90 647 90 647 35 555 c 1,10,-1
 5 581 l 1,11,12
 72 693 72 693 135 693 c 0,13,14
 167 693 167 693 264 649 c 0,15,16
 341 614 341 614 360 614 c 0,17,18
 413 614 413 614 463 710 c 1,0,-1
EndSplineSet
EndChar
StartChar: exclamdown
Encoding: 161 161 99
Width: 285
Flags: W
LayerCount: 2
Fore
SplineSet
163 -188 m 2,0,-1
 120 -188 l 2,1,2
 87 -188 87 -188 87 -155 c 0,3,4
 88 -152 88 -152 88 -148 c 2,5,-1
 121 286 l 2,6,7
 123 308 123 308 136 308 c 2,8,-1
 152 308 l 2,9,10
 162 308 162 308 163 289 c 2,11,-1
 197 -153 l 2,12,13
 197 -188 197 -188 163 -188 c 2,0,-1
83 440 m 256,14,15
 83 465 83 465 100.5 482.5 c 128,-1,16
 118 500 118 500 143 500 c 256,17,18
 168 500 168 500 186 482.5 c 128,-1,19
 204 465 204 465 204 440 c 256,20,21
 204 415 204 415 186 397.5 c 128,-1,22
 168 380 168 380 143 380 c 256,23,24
 118 380 118 380 100.5 397.5 c 128,-1,25
 83 415 83 415 83 440 c 256,14,15
EndSplineSet
EndChar
StartChar: cent
Encoding: 162 162 100
Width: 539
Flags: W
LayerCount: 2
Fore
SplineSet
227 102 m 1,0,-1
 333 406 l 1,1,2
 314 410 314 410 298 410 c 0,3,4
 233 410 233 410 196 363 c 0,5,6
 162 320 162 320 162 253 c 0,7,8
 162 158 162 158 227 102 c 1,0,-1
196 13 m 1,9,10
 84 76 84 76 84 216 c 0,11,12
 84 276 84 276 111 331 c 0,13,14
 140 390 140 390 190.5 421 c 128,-1,15
 241 452 241 452 315 452 c 0,16,17
 325 452 325 452 345 450 c 2,18,-1
 348 450 l 1,19,-1
 395 586 l 1,20,-1
 434 586 l 1,21,-1
 385 445 l 1,22,23
 467 430 467 430 467 359 c 0,24,25
 467 317 467 317 432 317 c 0,26,27
 405 317 405 317 383 362 c 0,28,29
 374 381 374 381 365 389 c 1,30,-1
 258 82 l 1,31,32
 291 67 291 67 327 67 c 0,33,34
 413 67 413 67 448 130 c 1,35,-1
 470 115 l 1,36,37
 455 56 455 56 404.5 23 c 128,-1,38
 354 -10 354 -10 291 -10 c 0,39,40
 260 -10 260 -10 229 0 c 1,41,-1
 190 -112 l 1,42,-1
 153 -112 l 1,43,-1
 196 13 l 1,9,10
EndSplineSet
EndChar
StartChar: sterling
Encoding: 163 163 101
Width: 661
Flags: W
LayerCount: 2
Fore
SplineSet
251 111 m 1,0,1
 226 35 226 35 192 -27 c 1,2,3
 232 -14 232 -14 261 -14 c 0,4,5
 300 -14 300 -14 336 -33 c 0,6,7
 359 -45 359 -45 401 -78 c 0,8,9
 455 -120 455 -120 483 -120 c 0,10,11
 530 -120 530 -120 530 -85 c 0,12,13
 530 -70 530 -70 516 -50 c 0,14,15
 496 -22 496 -22 496 -8 c 0,16,17
 496 11 496 11 509.5 25 c 128,-1,18
 523 39 523 39 542 39 c 0,19,20
 565 39 565 39 578.5 20.5 c 128,-1,21
 592 2 592 2 592 -21 c 0,22,23
 592 -86 592 -86 547.5 -135.5 c 128,-1,24
 503 -185 503 -185 439 -185 c 0,25,26
 387 -185 387 -185 309 -119 c 0,27,28
 251 -70 251 -70 203 -70 c 0,29,30
 189 -70 189 -70 170 -74 c 1,31,-1
 165 -84 l 2,32,33
 114 -186 114 -186 71 -186 c 0,34,35
 55 -186 55 -186 43.5 -173.5 c 128,-1,36
 32 -161 32 -161 32 -144 c 0,37,38
 32 -94 32 -94 118 -46 c 1,39,-1
 123 -27 l 1,40,-1
 163 111 l 1,41,-1
 44 111 l 1,42,-1
 52 151 l 1,43,-1
 176 151 l 1,44,-1
 184 181 l 1,45,-1
 216 296 l 2,46,47
 258 446 258 446 293 513 c 0,48,49
 319 562 319 562 352 600 c 0,50,51
 421 679 421 679 522 679 c 0,52,53
 563 679 563 679 596 666 c 0,54,55
 640 648 640 648 640 613 c 0,56,57
 640 595 640 595 631 581 c 0,58,59
 621 564 621 564 604 564 c 0,60,61
 584 564 584 564 553 593 c 0,62,63
 513 631 513 631 475 631 c 0,64,65
 413 631 413 631 370 525 c 0,66,67
 352 481 352 481 324 368 c 0,68,69
 312 317 312 317 282 213 c 0,70,71
 279 198 279 198 269 165 c 2,72,-1
 264 151 l 1,73,-1
 389 151 l 1,74,-1
 378 111 l 1,75,-1
 251 111 l 1,0,1
EndSplineSet
EndChar
StartChar: currency
Encoding: 164 164 102
Width: 666
Flags: W
LayerCount: 2
Fore
SplineSet
336 530 m 0,0,1
 262 530 262 530 209.5 478.5 c 128,-1,2
 157 427 157 427 157 353 c 256,3,4
 157 279 157 279 208.5 227.5 c 128,-1,5
 260 176 260 176 334 176 c 0,6,7
 407 176 407 176 457.5 228 c 128,-1,8
 508 280 508 280 508 353 c 0,9,10
 508 425 508 425 457.5 477.5 c 128,-1,11
 407 530 407 530 336 530 c 0,0,1
61 119 m 1,12,-1
 154 211 l 1,13,14
 103 278 103 278 103 353 c 0,15,16
 103 429 103 429 155 496 c 1,17,-1
 61 590 l 1,18,-1
 94 623 l 1,19,-1
 188 530 l 1,20,21
 258 582 258 582 333 582 c 0,22,23
 407 582 407 582 476 532 c 1,24,-1
 568 623 l 1,25,-1
 601 589 l 1,26,-1
 510 498 l 1,27,28
 563 432 563 432 563 352 c 0,29,30
 563 277 563 277 512 211 c 1,31,-1
 604 119 l 1,32,-1
 571 85 l 1,33,-1
 479 177 l 1,34,35
 411 123 411 123 334 123 c 0,36,37
 259 123 259 123 187 177 c 1,38,-1
 95 85 l 1,39,-1
 61 119 l 1,12,-1
EndSplineSet
EndChar
StartChar: yen
Encoding: 165 165 103
Width: 647
Flags: W
LayerCount: 2
Fore
SplineSet
325 382 m 1,0,-1
 356 331 l 1,1,-1
 387 382 l 1,2,-1
 325 382 l 1,0,-1
370 265 m 1,3,-1
 580 265 l 1,4,-1
 580 227 l 1,5,-1
 370 227 l 1,6,-1
 370 150 l 2,7,8
 370 95 370 95 384 70 c 0,9,10
 402 36 402 36 452 36 c 2,11,-1
 458 36 l 1,12,-1
 458 0 l 1,13,-1
 188 0 l 1,14,-1
 188 36 l 1,15,-1
 196 36 l 2,16,17
 245 36 245 36 264 70 c 0,18,19
 277 94 277 94 277 149 c 2,20,-1
 277 226 l 1,21,-1
 66 226 l 1,22,-1
 66 265 l 1,23,-1
 277 265 l 1,24,-1
 277 279 l 1,25,-1
 214 382 l 1,26,-1
 66 382 l 1,27,-1
 66 420 l 1,28,-1
 190 420 l 1,29,-1
 105 559 l 2,30,31
 82 597 82 597 69 608 c 0,32,33
 51 624 51 624 14 629 c 1,34,-1
 14 666 l 1,35,-1
 277 666 l 1,36,-1
 277 630 l 1,37,38
 243 627 243 627 232 622 c 0,39,40
 210 613 210 613 210 587 c 0,41,42
 210 566 210 566 222 547 c 2,43,-1
 301 420 l 1,44,-1
 411 420 l 1,45,-1
 454 491 l 2,46,47
 482 537 482 537 482 565 c 0,48,49
 482 621 482 621 416 629 c 1,50,-1
 416 666 l 1,51,-1
 632 666 l 1,52,-1
 632 630 l 1,53,54
 600 624 600 624 573 593 c 0,55,56
 561 579 561 579 532 534 c 2,57,-1
 460 420 l 1,58,-1
 580 420 l 1,59,-1
 580 382 l 1,60,-1
 436 382 l 1,61,-1
 370 279 l 1,62,-1
 370 265 l 1,3,-1
EndSplineSet
EndChar
StartChar: brokenbar
Encoding: 166 166 104
Width: 200
Flags: W
LayerCount: 2
Fore
SplineSet
66 0 m 1,0,-1
 66 264 l 1,1,-1
 134 264 l 1,2,-1
 134 0 l 1,3,-1
 66 0 l 1,0,-1
134 419 m 1,4,-1
 66 419 l 1,5,-1
 66 683 l 1,6,-1
 134 683 l 1,7,-1
 134 419 l 1,4,-1
EndSplineSet
EndChar
StartChar: section
Encoding: 167 167 105
Width: 417
Flags: W
LayerCount: 2
Fore
SplineSet
313 -85 m 1,0,1
 333 -33 333 -33 333 12 c 0,2,3
 333 142 333 142 241 295 c 2,4,-1
 182 393 l 2,5,6
 117 501 117 501 106 560 c 1,7,8
 86 518 86 518 86 453 c 0,9,10
 86 387 86 387 116 304 c 0,11,12
 138 243 138 243 211 135 c 0,13,14
 275 40 275 40 300 -21 c 0,15,16
 312 -51 312 -51 313 -85 c 1,0,1
253 679 m 0,17,18
 294 679 294 679 325 664 c 0,19,20
 366 646 366 646 366 609 c 0,21,22
 366 592 366 592 353.5 580.5 c 128,-1,23
 341 569 341 569 323 569 c 0,24,25
 304 569 304 569 277 591 c 0,26,27
 222 636 222 636 194 636 c 0,28,29
 172 636 172 636 158.5 621 c 128,-1,30
 145 606 145 606 145 583 c 0,31,32
 145 548 145 548 231 408 c 0,33,34
 329 248 329 248 342 214 c 0,35,36
 378 122 378 122 378 33 c 0,37,38
 378 -69 378 -69 325 -127 c 0,39,40
 271 -188 271 -188 170 -188 c 0,41,42
 127 -188 127 -188 95 -175 c 0,43,44
 52 -157 52 -157 52 -120 c 0,45,46
 52 -102 52 -102 66.5 -90.5 c 128,-1,47
 81 -79 81 -79 100 -79 c 0,48,49
 124 -79 124 -79 153 -107 c 0,50,51
 192 -145 192 -145 224 -145 c 0,52,53
 246 -145 246 -145 259.5 -129.5 c 128,-1,54
 273 -114 273 -114 273 -92 c 0,55,56
 273 -58 273 -58 239 -3 c 0,57,58
 234 6 234 6 184 77 c 0,59,60
 112 179 112 179 81 252 c 0,61,62
 40 347 40 347 40 448 c 0,63,64
 40 546 40 546 98 612.5 c 128,-1,65
 156 679 156 679 253 679 c 0,17,18
EndSplineSet
EndChar
StartChar: dieresis
Encoding: 168 168 106
Width: 457
Flags: W
LayerCount: 2
Fore
SplineSet
265 580 m 256,0,1
 265 600 265 600 279 613.5 c 128,-1,2
 293 627 293 627 313 627 c 256,3,4
 333 627 333 627 347 613.5 c 128,-1,5
 361 600 361 600 361 580 c 256,6,7
 361 560 361 560 347 546 c 128,-1,8
 333 532 333 532 313 532 c 256,9,10
 293 532 293 532 279 546 c 128,-1,11
 265 560 265 560 265 580 c 256,0,1
101 580 m 256,12,13
 101 600 101 600 115 613.5 c 128,-1,14
 129 627 129 627 149 627 c 256,15,16
 169 627 169 627 182.5 613.5 c 128,-1,17
 196 600 196 600 196 580 c 256,18,19
 196 560 196 560 182.5 546 c 128,-1,20
 169 532 169 532 149 532 c 256,21,22
 129 532 129 532 115 546 c 128,-1,23
 101 560 101 560 101 580 c 256,12,13
EndSplineSet
EndChar
StartChar: copyright
Encoding: 169 169 107
Width: 784
Flags: W
LayerCount: 2
Fore
SplineSet
581 296 m 1,0,1
 575 219 575 219 524.5 173 c 128,-1,2
 474 127 474 127 397 127 c 0,3,4
 307 127 307 127 254 187 c 0,5,6
 202 244 202 244 202 335 c 256,7,8
 202 426 202 426 255.5 485 c 128,-1,9
 309 544 309 544 399 544 c 0,10,11
 465 544 465 544 515 508 c 0,12,13
 569 469 569 469 575 405 c 1,14,-1
 531 405 l 1,15,16
 521 453 521 453 485 479 c 128,-1,17
 449 505 449 505 398 505 c 0,18,19
 327 505 327 505 287.5 456.5 c 128,-1,20
 248 408 248 408 248 335 c 256,21,22
 248 262 248 262 285 216 c 0,23,24
 326 166 326 166 397 166 c 0,25,26
 519 166 519 166 536 296 c 1,27,-1
 581 296 l 1,0,1
391 642 m 256,28,29
 263 642 263 642 173.5 551.5 c 128,-1,30
 84 461 84 461 84 333 c 256,31,32
 84 205 84 205 173.5 114 c 128,-1,33
 263 23 263 23 391 23 c 256,34,35
 519 23 519 23 608.5 114 c 128,-1,36
 698 205 698 205 698 333 c 256,37,38
 698 461 698 461 608.5 551.5 c 128,-1,39
 519 642 519 642 391 642 c 256,28,29
392 678 m 256,40,41
 536 678 536 678 636.5 577.5 c 128,-1,42
 737 477 737 477 737 333 c 256,43,44
 737 189 737 189 636.5 88.5 c 128,-1,45
 536 -12 536 -12 391 -12 c 0,46,47
 248 -12 248 -12 147 89 c 128,-1,48
 46 190 46 190 46 333 c 0,49,50
 46 477 46 477 147 577.5 c 128,-1,51
 248 678 248 678 392 678 c 256,40,41
EndSplineSet
EndChar
StartChar: ordfeminine
Encoding: 170 170 108
Width: 438
Flags: W
LayerCount: 2
Fore
SplineSet
294 531 m 1,0,1
 280 521 280 521 252 519 c 2,2,-1
 209 516 l 2,3,4
 125 510 125 510 125 455 c 0,5,6
 125 398 125 398 193 398 c 0,7,8
 294 398 294 398 294 511 c 2,9,-1
 294 531 l 1,0,1
371 315 m 1,10,-1
 371 285 l 1,11,-1
 83 285 l 1,12,-1
 83 315 l 1,13,-1
 371 315 l 1,10,-1
346 375 m 1,14,-1
 303 375 l 1,15,16
 295 391 295 391 295 410 c 2,17,-1
 295 421 l 1,18,19
 269 390 269 390 247 378.5 c 128,-1,20
 225 367 225 367 187 367 c 0,21,22
 82 367 82 367 82 453 c 0,23,24
 82 535 82 535 207 545 c 2,25,-1
 256 549 l 2,26,27
 279 551 279 551 287 557 c 128,-1,28
 295 563 295 563 295 584 c 0,29,30
 295 647 295 647 219 647 c 0,31,32
 146 647 146 647 138 575 c 1,33,-1
 98 575 l 1,34,35
 105 678 105 678 222 678 c 0,36,37
 336 678 336 678 336 583 c 2,38,-1
 336 455 l 2,39,40
 336 397 336 397 346 375 c 1,14,-1
EndSplineSet
EndChar
StartChar: guillemotleft
Encoding: 171 171 109
Width: 335
Flags: W
LayerCount: 2
Fore
SplineSet
110 247 m 1,0,-1
 199 29 l 1,1,-1
 175 29 l 1,2,-1
 30 247 l 1,3,-1
 174 467 l 1,4,-1
 199 467 l 1,5,-1
 110 247 l 1,0,-1
249 247 m 1,6,-1
 299 72 l 1,7,-1
 277 72 l 1,8,-1
 179 247 l 1,9,-1
 277 418 l 1,10,-1
 299 418 l 1,11,-1
 249 247 l 1,6,-1
EndSplineSet
EndChar
StartChar: logicalnot
Encoding: 172 172 110
Width: 500
Flags: W
LayerCount: 2
Fore
SplineSet
445 0 m 1,0,-1
 445 220 l 1,1,-1
 11 220 l 1,2,-1
 11 263 l 1,3,-1
 489 263 l 1,4,-1
 489 0 l 1,5,-1
 445 0 l 1,0,-1
EndSplineSet
EndChar
StartChar: macron
Encoding: 175 175 112
AltUni2: 0002c9.ffffffff.0
Width: 494
Flags: W
LayerCount: 2
Fore
SplineSet
110 547 m 1,0,-1
 110 609 l 1,1,-1
 391 609 l 1,2,-1
 391 547 l 1,3,-1
 110 547 l 1,0,-1
EndSplineSet
EndChar
StartChar: degree
Encoding: 176 176 113
Width: 500
Flags: W
LayerCount: 2
Fore
SplineSet
249 642 m 256,0,1
 206 642 206 642 176.5 612 c 128,-1,2
 147 582 147 582 147 539 c 256,3,4
 147 496 147 496 176.5 465.5 c 128,-1,5
 206 435 206 435 249 435 c 256,6,7
 292 435 292 435 321.5 465.5 c 128,-1,8
 351 496 351 496 351 539 c 256,9,10
 351 582 351 582 321.5 612 c 128,-1,11
 292 642 292 642 249 642 c 256,0,1
250 679 m 256,12,13
 309 679 309 679 350.5 638.5 c 128,-1,14
 392 598 392 598 392 539 c 256,15,16
 392 480 392 480 350.5 439.5 c 128,-1,17
 309 399 309 399 250 399 c 256,18,19
 191 399 191 399 149 439.5 c 128,-1,20
 107 480 107 480 107 539 c 256,21,22
 107 598 107 598 149 638.5 c 128,-1,23
 191 679 191 679 250 679 c 256,12,13
EndSplineSet
EndChar
StartChar: plusminus
Encoding: 177 177 114
Width: 500
Flags: W
LayerCount: 2
Fore
SplineSet
11 119 m 1,0,-1
 489 119 l 1,1,-1
 489 72 l 1,2,-1
 11 72 l 1,3,-1
 11 119 l 1,0,-1
11 391 m 1,4,-1
 226 391 l 1,5,-1
 226 593 l 1,6,-1
 273 593 l 1,7,-1
 273 392 l 1,8,-1
 489 392 l 1,9,-1
 489 345 l 1,10,-1
 274 345 l 1,11,-1
 274 160 l 1,12,-1
 227 160 l 1,13,-1
 227 345 l 1,14,-1
 11 345 l 1,15,-1
 11 391 l 1,4,-1
EndSplineSet
EndChar
StartChar: acute
Encoding: 180 180 115
Width: 334
Flags: W
LayerCount: 2
Fore
SplineSet
135 511 m 1,0,-1
 101 511 l 1,1,-1
 141 626 l 2,2,3
 148 645 148 645 156 651.5 c 128,-1,4
 164 658 164 658 183 658 c 2,5,-1
 212 658 l 2,6,7
 239 658 239 658 239 643 c 0,8,9
 239 635 239 635 234 629 c 2,10,-1
 135 511 l 1,0,-1
EndSplineSet
EndChar
StartChar: mu
Encoding: 181 181 116
AltUni2: 0003bc.ffffffff.0
Width: 500
Flags: W
LayerCount: 2
Fore
SplineSet
52 -166 m 1,0,-1
 52 481 l 1,1,-1
 107 481 l 1,2,-1
 107 204 l 2,3,4
 107 152 107 152 115 126 c 0,5,6
 125 89 125 89 158 63 c 0,7,8
 196 32 196 32 242 32 c 0,9,10
 312 32 312 32 352 90 c 0,11,12
 388 141 388 141 388 214 c 2,13,-1
 388 481 l 1,14,-1
 443 481 l 1,15,-1
 443 0 l 1,16,-1
 389 0 l 1,17,-1
 389 93 l 1,18,19
 338 -14 338 -14 242 -14 c 0,20,21
 156 -14 156 -14 107 64 c 1,22,-1
 107 -166 l 1,23,-1
 52 -166 l 1,0,-1
EndSplineSet
EndChar
StartChar: paragraph
Encoding: 182 182 117
Width: 539
Flags: W
LayerCount: 2
Fore
SplineSet
233 -99 m 1,0,-1
 233 314 l 1,1,2
 228 313 228 313 217 313 c 0,3,4
 137 313 137 313 85 361 c 128,-1,5
 33 409 33 409 33 488 c 0,6,7
 33 543 33 543 61.5 587.5 c 128,-1,8
 90 632 90 632 141 650 c 0,9,10
 189 667 189 667 251 667 c 2,11,-1
 472 667 l 1,12,-1
 472 635 l 1,13,-1
 424 635 l 1,14,-1
 424 -99 l 1,15,-1
 384 -99 l 1,16,-1
 384 635 l 1,17,-1
 274 635 l 1,18,-1
 274 -99 l 1,19,-1
 233 -99 l 1,0,-1
EndSplineSet
EndChar
StartChar: periodcentered
Encoding: 183 183 118
AltUni2: 002219.ffffffff.0
Width: 105
Flags: W
LayerCount: 2
Fore
SplineSet
0 395 m 1,0,-1
 105 395 l 1,1,-1
 105 290 l 1,2,-1
 0 290 l 1,3,-1
 0 395 l 1,0,-1
EndSplineSet
EndChar
StartChar: cedilla
Encoding: 184 184 119
Width: 362
Flags: W
LayerCount: 2
Fore
SplineSet
170 0 m 1,0,-1
 208 0 l 1,1,-1
 196 -30 l 1,2,3
 248 -44 248 -44 248 -92 c 0,4,5
 248 -166 248 -166 142 -166 c 2,6,-1
 110 -166 l 1,7,-1
 110 -135 l 1,8,9
 114 -134 114 -134 120 -134 c 0,10,11
 183 -134 183 -134 183 -101 c 0,12,13
 183 -70 183 -70 136 -70 c 1,14,-1
 170 0 l 1,0,-1
EndSplineSet
EndChar
StartChar: ordmasculine
Encoding: 186 186 120
Width: 875
Flags: W
LayerCount: 2
Fore
SplineSet
471 338 m 2,0,1
 471 259 471 259 488 196 c 0,2,3
 514 99 514 99 573 99 c 0,4,5
 669 99 669 99 669 299 c 0,6,7
 669 546 669 546 565 546 c 0,8,9
 471 546 471 546 471 354 c 2,10,-1
 471 338 l 2,0,1
399 309 m 0,11,12
 399 402 399 402 438 480 c 0,13,14
 487 577 487 577 572 577 c 0,15,16
 654 577 654 577 702 494 c 0,17,18
 741 426 741 426 741 337 c 0,19,20
 741 244 741 244 702 167 c 0,21,22
 653 72 653 72 569 72 c 0,23,24
 488 72 488 72 440 154 c 0,25,26
 399 223 399 223 399 309 c 0,11,12
322 572 m 1,27,-1
 322 174 l 2,28,29
 322 103 322 103 381 103 c 2,30,-1
 391 103 l 1,31,-1
 391 76 l 1,32,-1
 179 76 l 1,33,-1
 179 103 l 1,34,-1
 193 103 l 2,35,36
 253 103 253 103 253 174 c 2,37,-1
 253 435 l 2,38,39
 253 507 253 507 202 507 c 2,40,-1
 181 507 l 1,41,-1
 181 534 l 1,42,-1
 189 534 l 2,43,44
 251 534 251 534 301 572 c 1,45,-1
 322 572 l 1,27,-1
EndSplineSet
EndChar
StartChar: Eleven
Encoding: 187 187 149
Width: 875
Flags: W
LayerCount: 2
Fore
SplineSet
322 571 m 1,0,-1
 322 173 l 2,1,2
 322 102 322 102 381 102 c 2,3,-1
 391 102 l 1,4,-1
 391 75 l 1,5,-1
 179 75 l 1,6,-1
 179 102 l 1,7,-1
 193 102 l 2,8,9
 253 102 253 102 253 173 c 2,10,-1
 253 434 l 2,11,12
 253 506 253 506 202 506 c 2,13,-1
 181 506 l 1,14,-1
 181 533 l 1,15,-1
 189 533 l 2,16,17
 251 533 251 533 301 571 c 1,18,-1
 322 571 l 1,0,-1
576 571 m 1,19,-1
 576 173 l 2,20,21
 576 102 576 102 635 102 c 2,22,-1
 645 102 l 1,23,-1
 645 75 l 1,24,-1
 433 75 l 1,25,-1
 433 102 l 1,26,-1
 447 102 l 2,27,28
 507 102 507 102 507 173 c 2,29,-1
 507 434 l 2,30,31
 507 506 507 506 456 506 c 2,32,-1
 435 506 l 1,33,-1
 435 533 l 1,34,-1
 443 533 l 2,35,36
 505 533 505 533 555 571 c 1,37,-1
 576 571 l 1,19,-1
EndSplineSet
EndChar
StartChar: twelve
Encoding: 188 188 140
Width: 875
Flags: W
LayerCount: 2
Fore
SplineSet
317 564 m 1,0,-1
 317 179 l 2,1,2
 317 110 317 110 374 110 c 2,3,-1
 384 110 l 1,4,-1
 384 83 l 1,5,-1
 179 83 l 1,6,-1
 179 110 l 1,7,-1
 191 110 l 2,8,9
 249 110 249 110 249 179 c 2,10,-1
 249 432 l 2,11,12
 249 502 249 502 201 502 c 2,13,-1
 180 502 l 1,14,-1
 180 528 l 1,15,-1
 188 528 l 2,16,17
 248 528 248 528 296 564 c 1,18,-1
 317 564 l 1,0,-1
716 201 m 1,19,-1
 681 82 l 1,20,-1
 388 82 l 1,21,-1
 388 108 l 1,22,23
 409 132 409 132 481 204 c 0,24,25
 524 247 524 247 567 296 c 0,26,27
 588 320 588 320 600 336 c 0,28,29
 625 374 625 374 625 412 c 256,30,31
 625 450 625 450 602 479 c 128,-1,32
 579 508 579 508 541 508 c 0,33,34
 462 508 462 508 417 400 c 1,35,-1
 391 410 l 1,36,37
 445 560 445 560 559 560 c 0,38,39
 615 560 615 560 655 522 c 128,-1,40
 695 484 695 484 695 427 c 0,41,42
 695 354 695 354 612 285 c 2,43,-1
 555 239 l 2,44,45
 500 193 500 193 464 152 c 0,46,47
 461 149 461 149 454 141 c 1,48,-1
 607 141 l 2,49,50
 642 141 642 141 659 154 c 256,51,52
 676 167 676 167 690 201 c 1,53,-1
 716 201 l 1,19,-1
EndSplineSet
EndChar
StartChar: Thirteen
Encoding: 189 189 139
Width: 875
Flags: W
LayerCount: 2
Fore
SplineSet
315 549 m 1,0,-1
 315 169 l 2,1,2
 315 102 315 102 372 102 c 2,3,-1
 381 102 l 1,4,-1
 381 76 l 1,5,-1
 179 76 l 1,6,-1
 179 102 l 1,7,-1
 192 102 l 2,8,9
 250 102 250 102 250 169 c 2,10,-1
 250 418 l 2,11,12
 250 487 250 487 201 487 c 2,13,-1
 181 487 l 1,14,-1
 181 513 l 1,15,-1
 189 513 l 2,16,17
 248 513 248 513 295 549 c 1,18,-1
 315 549 l 1,0,-1
485 297 m 1,19,-1
 473 319 l 1,20,-1
 482 324 l 2,21,22
 527 352 527 352 565.5 380.5 c 128,-1,23
 604 409 604 409 604 445 c 0,24,25
 604 470 604 470 585 486.5 c 128,-1,26
 566 503 566 503 543 503 c 0,27,28
 485 503 485 503 421 433 c 1,29,-1
 401 448 l 1,30,31
 467 548 467 548 563 548 c 0,32,33
 605 548 605 548 634 527 c 0,34,35
 668 504 668 504 668 464 c 0,36,37
 668 436 668 436 644 409 c 0,38,39
 630 394 630 394 596 368 c 2,40,-1
 587 360 l 2,41,42
 593 361 593 361 602 361 c 0,43,44
 646 361 646 361 674 327.5 c 128,-1,45
 702 294 702 294 702 251 c 0,46,47
 702 175 702 175 638 125 c 0,48,49
 580 77 580 77 503 77 c 0,50,51
 432 77 432 77 392 107 c 1,52,-1
 406 127 l 1,53,54
 453 105 453 105 492 105 c 0,55,56
 548 105 548 105 592 142 c 128,-1,57
 636 179 636 179 636 234 c 0,58,59
 636 271 636 271 614 297 c 128,-1,60
 592 323 592 323 556 323 c 0,61,62
 524 323 524 323 485 297 c 1,19,-1
EndSplineSet
EndChar
StartChar: Fourteen
Encoding: 190 190 141
Width: 875
Flags: W
LayerCount: 2
Fore
SplineSet
317 554 m 1,0,-1
 317 170 l 2,1,2
 317 102 317 102 374 102 c 2,3,-1
 383 102 l 1,4,-1
 383 76 l 1,5,-1
 179 76 l 1,6,-1
 179 102 l 1,7,-1
 192 102 l 2,8,9
 250 102 250 102 250 170 c 2,10,-1
 250 422 l 2,11,12
 250 491 250 491 201 491 c 2,13,-1
 181 491 l 1,14,-1
 181 517 l 1,15,-1
 189 517 l 2,16,17
 248 517 248 517 296 554 c 1,18,-1
 317 554 l 1,0,-1
601 252 m 1,19,-1
 601 504 l 1,20,-1
 431 252 l 1,21,-1
 601 252 l 1,19,-1
654 212 m 1,22,-1
 654 172 l 2,23,24
 654 105 654 105 701 105 c 2,25,-1
 714 105 l 1,26,-1
 714 79 l 1,27,-1
 523 79 l 1,28,-1
 523 105 l 1,29,-1
 538 105 l 2,30,31
 585 105 585 105 585 171 c 2,32,-1
 585 212 l 1,33,-1
 393 212 l 1,34,-1
 393 252 l 1,35,-1
 596 548 l 1,36,-1
 654 548 l 1,37,-1
 654 246 l 1,38,-1
 659 246 l 2,39,40
 688 246 688 246 702 292 c 1,41,-1
 726 292 l 1,42,-1
 714 212 l 1,43,-1
 654 212 l 1,22,-1
EndSplineSet
EndChar
StartChar: Fifteen
Encoding: 191 191 150
Width: 875
Flags: W
LayerCount: 2
Fore
SplineSet
322 572 m 1,0,-1
 322 174 l 2,1,2
 322 103 322 103 381 103 c 2,3,-1
 391 103 l 1,4,-1
 391 76 l 1,5,-1
 179 76 l 1,6,-1
 179 103 l 1,7,-1
 193 103 l 2,8,9
 253 103 253 103 253 174 c 2,10,-1
 253 435 l 2,11,12
 253 507 253 507 202 507 c 2,13,-1
 181 507 l 1,14,-1
 181 534 l 1,15,-1
 189 534 l 2,16,17
 251 534 251 534 301 572 c 1,18,-1
 322 572 l 1,0,-1
462 562 m 1,19,-1
 643 562 l 2,20,21
 678 562 678 562 685 570 c 1,22,-1
 711 570 l 1,23,-1
 696 502 l 1,24,-1
 475 502 l 1,25,-1
 454 404 l 1,26,27
 501 423 501 423 538 423 c 0,28,29
 610 423 610 423 659.5 375 c 128,-1,30
 709 327 709 327 709 255 c 0,31,32
 709 171 709 171 645 120 c 0,33,34
 585 73 585 73 500 73 c 0,35,36
 450 73 450 73 402 88 c 1,37,-1
 412 113 l 1,38,39
 452 102 452 102 483 102 c 0,40,41
 545 102 545 102 591.5 143 c 128,-1,42
 638 184 638 184 638 245 c 0,43,44
 638 298 638 298 603.5 332 c 128,-1,45
 569 366 569 366 517 366 c 0,46,47
 468 366 468 366 426 332 c 1,48,-1
 409 335 l 1,49,-1
 462 562 l 1,19,-1
EndSplineSet
EndChar
StartChar: Sixteen
Encoding: 192 192 151
Width: 875
Flags: W
LayerCount: 2
Fore
SplineSet
322 572 m 1,0,-1
 322 174 l 2,1,2
 322 103 322 103 381 103 c 2,3,-1
 391 103 l 1,4,-1
 391 76 l 1,5,-1
 179 76 l 1,6,-1
 179 103 l 1,7,-1
 193 103 l 2,8,9
 253 103 253 103 253 174 c 2,10,-1
 253 435 l 2,11,12
 253 507 253 507 202 507 c 2,13,-1
 181 507 l 1,14,-1
 181 534 l 1,15,-1
 189 534 l 2,16,17
 251 534 251 534 301 572 c 1,18,-1
 322 572 l 1,0,-1
474 308 m 1,19,20
 473 293 473 293 473 278 c 0,21,22
 473 220 473 220 493 171 c 0,23,24
 519 107 519 107 569 107 c 0,25,26
 612 107 612 107 634 151 c 0,27,28
 650 185 650 185 650 234 c 0,29,30
 650 285 650 285 635 322 c 0,31,32
 613 372 613 372 568 372 c 0,33,34
 513 372 513 372 474 308 c 1,19,20
479 357 m 1,35,36
 534 409 534 409 590 409 c 0,37,38
 650 409 650 409 687 361 c 0,39,40
 721 317 721 317 721 254 c 0,41,42
 721 186 721 186 681 135 c 0,43,44
 637 78 637 78 571 78 c 0,45,46
 493 78 493 78 445 146 c 0,47,48
 403 206 403 206 403 288 c 0,49,50
 403 376 403 376 451 449.5 c 128,-1,51
 499 523 499 523 580 554 c 0,52,53
 625 571 625 571 676 571 c 1,54,-1
 676 545 l 1,55,56
 568 540 568 540 515 459 c 0,57,58
 488 417 488 417 479 357 c 1,35,36
EndSplineSet
EndChar
StartChar: Seventeen
Encoding: 193 193 152
Width: 875
Flags: W
LayerCount: 2
Fore
SplineSet
318 563 m 1,0,-1
 318 177 l 2,1,2
 318 108 318 108 375 108 c 2,3,-1
 384 108 l 1,4,-1
 384 82 l 1,5,-1
 179 82 l 1,6,-1
 179 108 l 1,7,-1
 193 108 l 2,8,9
 251 108 251 108 251 177 c 2,10,-1
 251 430 l 2,11,12
 251 500 251 500 201 500 c 2,13,-1
 181 500 l 1,14,-1
 181 526 l 1,15,-1
 189 526 l 2,16,17
 249 526 249 526 297 563 c 1,18,-1
 318 563 l 1,0,-1
574 79 m 1,19,-1
 504 79 l 1,20,-1
 504 87 l 2,21,22
 504 154 504 154 546 256 c 0,23,24
 610 408 610 408 664 490 c 1,25,-1
 668 497 l 1,26,-1
 504 497 l 2,27,28
 468 497 468 497 449.5 482 c 128,-1,29
 431 467 431 467 421 432 c 1,30,-1
 394 432 l 1,31,-1
 424 564 l 1,32,-1
 442 564 l 1,33,34
 457 557 457 557 496 557 c 2,35,-1
 712 557 l 1,36,-1
 712 519 l 1,37,38
 700 502 700 502 682 465 c 0,39,40
 647 397 647 397 618 307 c 0,41,42
 575 173 575 173 574 79 c 1,19,-1
EndSplineSet
EndChar
StartChar: Eighteen
Encoding: 194 194 153
Width: 875
Flags: W
LayerCount: 2
Fore
SplineSet
318 567 m 1,0,-1
 318 180 l 2,1,2
 318 111 318 111 375 111 c 2,3,-1
 385 111 l 1,4,-1
 385 85 l 1,5,-1
 179 85 l 1,6,-1
 179 111 l 1,7,-1
 192 111 l 2,8,9
 251 111 251 111 251 180 c 2,10,-1
 251 434 l 2,11,12
 251 504 251 504 201 504 c 2,13,-1
 181 504 l 1,14,-1
 181 530 l 1,15,-1
 189 530 l 2,16,17
 249 530 249 530 297 567 c 1,18,-1
 318 567 l 1,0,-1
523 318 m 1,19,20
 450 284 450 284 450 212 c 0,21,22
 450 166 450 166 480 137.5 c 128,-1,23
 510 109 510 109 555 109 c 0,24,25
 597 109 597 109 626 131.5 c 128,-1,26
 655 154 655 154 655 194 c 0,27,28
 655 255 655 255 577 292 c 2,29,-1
 523 318 l 1,19,20
578 366 m 1,30,31
 643 395 643 395 643 452 c 0,32,33
 643 491 643 491 615.5 515 c 128,-1,34
 588 539 588 539 548 539 c 0,35,36
 515 539 515 539 489 520 c 256,37,38
 463 501 463 501 463 468 c 0,39,40
 463 428 463 428 500 404 c 0,41,42
 508 399 508 399 566 372 c 2,43,-1
 578 366 l 1,30,31
495 329 m 1,44,-1
 485 337 l 1,45,46
 438 369 438 369 423 388 c 0,47,48
 405 413 405 413 405 446 c 0,49,50
 405 501 405 501 452 536 c 0,51,52
 494 569 494 569 552 569 c 0,53,54
 606 569 606 569 648 541 c 0,55,56
 694 509 694 509 694 456 c 0,57,58
 694 392 694 392 606 353 c 1,59,60
 707 304 707 304 707 216 c 0,61,62
 707 153 707 153 658 116 c 0,63,64
 616 83 616 83 551 83 c 0,65,66
 489 83 489 83 445 114 c 0,67,68
 394 149 394 149 394 207 c 0,69,70
 394 266 394 266 449 303 c 0,71,72
 463 313 463 313 495 329 c 1,44,-1
EndSplineSet
EndChar
StartChar: nineteen
Encoding: 195 195 154
Width: 875
Flags: W
LayerCount: 2
Fore
SplineSet
320 574 m 1,0,-1
 320 181 l 2,1,2
 320 111 320 111 379 111 c 2,3,-1
 389 111 l 1,4,-1
 389 84 l 1,5,-1
 179 84 l 1,6,-1
 179 111 l 1,7,-1
 193 111 l 2,8,9
 252 111 252 111 252 181 c 2,10,-1
 252 439 l 2,11,12
 252 510 252 510 202 510 c 2,13,-1
 181 510 l 1,14,-1
 181 537 l 1,15,-1
 189 537 l 2,16,17
 250 537 250 537 300 574 c 1,18,-1
 320 574 l 1,0,-1
644 343 m 1,19,20
 645 359 645 359 645 373 c 0,21,22
 645 431 645 431 625 479 c 0,23,24
 598 542 598 542 549 542 c 0,25,26
 506 542 506 542 486 499 c 0,27,28
 469 464 469 464 469 417 c 0,29,30
 469 366 469 366 485 329 c 0,31,32
 506 280 506 280 551 280 c 0,33,34
 605 280 605 280 644 343 c 1,19,20
639 294 m 1,35,36
 584 242 584 242 529 242 c 0,37,38
 469 242 469 242 432 291 c 0,39,40
 399 334 399 334 399 396 c 0,41,42
 399 463 399 463 438 516 c 0,43,44
 482 573 482 573 547 573 c 0,45,46
 626 573 626 573 672 505 c 0,47,48
 715 444 715 444 715 362 c 0,49,50
 715 244 715 244 637.5 163.5 c 128,-1,51
 560 83 560 83 443 82 c 1,52,-1
 443 108 l 1,53,54
 479 110 479 110 500 116 c 0,55,56
 619 152 619 152 639 294 c 1,35,36
EndSplineSet
EndChar
StartChar: twenty
Encoding: 196 196 155
Width: 875
Flags: W
LayerCount: 2
Fore
SplineSet
439 310 m 0,0,1
 439 397 439 397 475 471 c 0,2,3
 522 563 522 563 602 563 c 0,4,5
 679 563 679 563 725 484 c 0,6,7
 761 420 761 420 761 336 c 0,8,9
 761 248 761 248 725 176 c 0,10,11
 678 86 678 86 599 86 c 0,12,13
 523 86 523 86 477 163 c 0,14,15
 439 228 439 228 439 310 c 0,0,1
507 337 m 2,16,17
 507 262 507 262 523 203 c 0,18,19
 547 111 547 111 603 111 c 0,20,21
 694 111 694 111 694 300 c 0,22,23
 694 534 694 534 595 534 c 0,24,25
 507 534 507 534 507 352 c 2,26,-1
 507 337 l 2,16,17
443 205 m 1,27,-1
 408 88 l 1,28,-1
 120 88 l 1,29,-1
 120 112 l 1,30,31
 141 136 141 136 213 207 c 0,32,33
 255 250 255 250 297 297 c 0,34,35
 319 321 319 321 329 338 c 0,36,37
 355 374 355 374 355 413 c 0,38,39
 355 449 355 449 331.5 477.5 c 128,-1,40
 308 506 308 506 272 506 c 0,41,42
 194 506 194 506 150 400 c 1,43,-1
 123 410 l 1,44,45
 176 559 176 559 289 559 c 0,46,47
 345 559 345 559 384.5 521 c 128,-1,48
 424 483 424 483 424 427 c 0,49,50
 424 356 424 356 341 288 c 2,51,-1
 285 241 l 2,52,53
 231 195 231 195 196 156 c 0,54,55
 193 154 193 154 186 144 c 1,56,-1
 336 144 l 2,57,58
 371 144 371 144 389 159 c 0,59,60
 404 171 404 171 419 205 c 1,61,-1
 443 205 l 1,27,-1
EndSplineSet
EndChar
StartChar: multiply
Encoding: 215 215 130
Width: 564
Flags: W
LayerCount: 2
Fore
SplineSet
522 61 m 1,0,-1
 473 13 l 1,1,-1
 281 204 l 1,2,-1
 90 13 l 1,3,-1
 42 61 l 1,4,-1
 232 253 l 1,5,-1
 42 444 l 1,6,-1
 90 493 l 1,7,-1
 281 302 l 1,8,-1
 473 493 l 1,9,-1
 522 444 l 1,10,-1
 330 253 l 1,11,-1
 522 61 l 1,0,-1
EndSplineSet
EndChar
StartChar: germandbls
Encoding: 223 223 132
Width: 559
Flags: W
LayerCount: 2
Fore
SplineSet
95 386 m 1,0,-1
 22 386 l 1,1,-1
 22 412 l 2,2,3
 22 427 22 427 29 433 c 0,4,5
 34 436 34 436 52 440 c 0,6,7
 85 446 85 446 97 490 c 2,8,-1
 108 532 l 2,9,10
 126 602 126 602 177.5 641 c 128,-1,11
 229 680 229 680 302 680 c 256,12,13
 375 680 375 680 427 646 c 0,14,15
 488 607 488 607 488 538 c 0,16,17
 488 448 488 448 350 400 c 1,18,19
 463 376 463 376 501 288 c 0,20,21
 520 244 520 244 520 197 c 0,22,23
 520 120 520 120 476 60 c 0,24,25
 428 -6 428 -6 354 -6 c 0,26,27
 320 -6 320 -6 297 9 c 0,28,29
 269 26 269 26 269 58 c 0,30,31
 269 76 269 76 280.5 88 c 128,-1,32
 292 100 292 100 310 100 c 0,33,34
 341 100 341 100 344 59 c 0,35,36
 347 25 347 25 377 25 c 0,37,38
 410 25 410 25 428 72 c 0,39,40
 441 107 441 107 441 147 c 0,41,42
 441 205 441 205 415 260 c 0,43,44
 386 319 386 319 339 347 c 0,45,46
 312 363 312 363 271 372 c 1,47,-1
 271 412 l 1,48,49
 397 437 397 437 397 534 c 0,50,51
 397 579 397 579 364 609.5 c 128,-1,52
 331 640 331 640 286 640 c 0,53,54
 215 640 215 640 191 578 c 0,55,56
 177 542 177 542 177 472 c 2,57,-1
 177 129 l 2,58,59
 177 35 177 35 229 35 c 2,60,-1
 232 35 l 1,61,-1
 232 0 l 1,62,-1
 21 0 l 1,63,-1
 21 36 l 1,64,-1
 25 36 l 2,65,66
 95 36 95 36 95 149 c 2,67,-1
 95 386 l 1,0,-1
EndSplineSet
EndChar
StartChar: aring
Encoding: 229 229 133
Width: 1000
Flags: W
LayerCount: 2
Fore
SplineSet
438 711 m 1,0,-1
 443 711 l 1,1,2
 506 598 506 598 513 591 c 1,3,-1
 632 659 l 1,4,-1
 635 659 l 1,5,-1
 635 520 l 1,6,-1
 776 520 l 1,7,-1
 778 518 l 1,8,-1
 780 518 l 1,9,-1
 709 395 l 1,10,-1
 830 322 l 1,11,-1
 709 250 l 1,12,-1
 780 128 l 1,13,-1
 776 125 l 1,14,-1
 637 125 l 1,15,-1
 637 -16 l 1,16,17
 630 -16 630 -16 512 54 c 1,18,-1
 443 -66 l 1,19,-1
 438 -66 l 1,20,21
 374 49 374 49 367 54 c 1,22,-1
 245 -14 l 1,23,-1
 245 125 l 1,24,-1
 104 125 l 1,25,-1
 102 126 l 1,26,-1
 101 126 l 1,27,-1
 171 249 l 1,28,29
 157 260 157 260 49 321 c 1,30,-1
 49 322 l 2,31,32
 51 326 51 326 171 393 c 1,33,-1
 171 396 l 1,34,-1
 101 518 l 1,35,-1
 102 520 l 1,36,-1
 243 520 l 1,37,-1
 243 659 l 1,38,-1
 245 661 l 1,39,-1
 245 663 l 1,40,41
 366 592 366 592 371 592 c 1,42,-1
 438 711 l 1,0,-1
EndSplineSet
EndChar
StartChar: ccedilla
Encoding: 231 231 134
Width: 875
Flags: W
LayerCount: 2
Fore
SplineSet
807 368 m 0,0,1
 807 343 807 343 794 326 c 0,2,3
 793 325 793 325 761 292 c 0,4,5
 620 148 620 148 433 -36 c 0,6,7
 417 -49 417 -49 390 -49 c 0,8,9
 362 -49 362 -49 348 -36 c 0,10,11
 216 84 216 84 90 222 c 0,12,13
 76 237 76 237 76 267 c 0,14,15
 76 292 76 292 87 306 c 0,16,17
 113 331 113 331 126 344 c 0,18,19
 287 509 287 509 454 672 c 0,20,21
 464 682 464 682 493 682 c 0,22,23
 511 682 511 682 517 679 c 0,24,25
 529 675 529 675 552 652 c 0,26,27
 656 552 656 552 797 406 c 0,28,29
 807 396 807 396 807 368 c 0,0,1
708 256 m 1,30,-1
 670 517 l 1,31,-1
 611 415 l 1,32,33
 488 493 488 493 386 493 c 0,34,35
 305 493 305 493 254 444 c 128,-1,36
 203 395 203 395 203 314 c 0,37,38
 203 241 203 241 251 143 c 0,39,40
 294 55 294 55 351 -5 c 1,41,-1
 429 80 l 1,42,43
 385 127 385 127 354 187 c 0,44,45
 318 257 318 257 318 312 c 0,46,47
 318 349 318 349 334.5 363.5 c 128,-1,48
 351 378 351 378 388 378 c 0,49,50
 467 378 467 378 528 331 c 1,51,52
 493 306 493 306 425 256 c 1,53,-1
 708 256 l 1,30,-1
EndSplineSet
EndChar
StartChar: divide
Encoding: 247 247 135
Width: 500
Flags: W
LayerCount: 2
Fore
SplineSet
11 365 m 1,0,-1
 489 365 l 1,1,-1
 489 318 l 1,2,-1
 11 318 l 1,3,-1
 11 365 l 1,0,-1
249 195 m 0,4,5
 267 195 267 195 279.5 182.5 c 128,-1,6
 292 170 292 170 292 152 c 256,7,8
 292 134 292 134 279.5 121.5 c 128,-1,9
 267 109 267 109 249 109 c 256,10,11
 231 109 231 109 219 121.5 c 128,-1,12
 207 134 207 134 207 152 c 0,13,14
 207 169 207 169 219.5 182 c 128,-1,15
 232 195 232 195 249 195 c 0,4,5
249 574 m 0,16,17
 267 574 267 574 279.5 562 c 128,-1,18
 292 550 292 550 292 532 c 256,19,20
 292 514 292 514 279.5 501.5 c 128,-1,21
 267 489 267 489 249 489 c 256,22,23
 231 489 231 489 219 501.5 c 128,-1,24
 207 514 207 514 207 532 c 0,25,26
 207 549 207 549 219.5 561.5 c 128,-1,27
 232 574 232 574 249 574 c 0,16,17
EndSplineSet
EndChar
StartChar: oslash
Encoding: 248 248 136
Width: 875
Flags: W
LayerCount: 2
Fore
SplineSet
49 321 m 256,0,1
 49 484 49 484 163 597.5 c 128,-1,2
 277 711 277 711 440 711 c 0,3,4
 602 711 602 711 716 597 c 128,-1,5
 830 483 830 483 830 321 c 0,6,7
 830 158 830 158 716.5 44 c 128,-1,8
 603 -70 603 -70 440 -70 c 256,9,10
 277 -70 277 -70 163 44 c 128,-1,11
 49 158 49 158 49 321 c 256,0,1
EndSplineSet
EndChar
StartChar: Smurf
Encoding: 254 254 138
Width: 694
Flags: W
LayerCount: 2
Fore
SplineSet
220 619 m 1,0,-1
 332 615 l 1,1,-1
 440 588 l 1,2,-1
 466 568 l 1,3,4
 482 565 482 565 501 538 c 1,5,-1
 504 513 l 1,6,7
 496 497 496 497 484 489 c 2,8,-1
 472 483 l 1,9,-1
 452 475 l 1,10,-1
 440 472 l 1,11,-1
 375 472 l 1,12,-1
 369 457 l 2,13,14
 365 445 365 445 365 429 c 1,15,-1
 373 429 l 2,16,17
 406 429 406 429 407 406 c 1,18,-1
 419 384 l 1,19,-1
 440 354 l 1,20,-1
 466 335 l 1,21,-1
 493 315 l 1,22,-1
 513 311 l 1,23,-1
 534 311 l 1,24,25
 541 327 541 327 558 335 c 2,26,-1
 586 354 l 1,27,-1
 620 365 l 1,28,-1
 654 352 l 1,29,30
 694 260 694 260 597 207 c 1,31,-1
 588 204 l 2,32,33
 568 194 568 194 549 194 c 1,34,35
 573 152 573 152 543.5 108 c 128,-1,36
 514 64 514 64 458 31 c 1,37,-1
 446 21 l 1,38,-1
 373 0 l 1,39,-1
 337 0 l 1,40,-1
 292 11 l 1,41,-1
 273 14 l 1,42,-1
 257 19 l 1,43,-1
 234 27 l 1,44,-1
 221 32 l 1,45,-1
 184 21 l 1,46,-1
 137 21 l 1,47,-1
 101 32 l 1,48,-1
 54 77 l 1,49,-1
 40 98 l 2,50,51
 31 114 31 114 21 129 c 1,52,-1
 16 149 l 1,53,-1
 11 174 l 1,54,-1
 4 196 l 1,55,-1
 0 225 l 1,56,-1
 0 305 l 2,57,58
 0 321 0 321 5 340 c 2,59,-1
 11 386 l 1,60,-1
 15 398 l 1,61,-1
 21 420 l 1,62,-1
 36 454 l 1,63,-1
 54 483 l 1,64,-1
 69 511 l 1,65,-1
 86 543 l 1,66,-1
 133 590 l 1,67,-1
 160 602 l 2,68,69
 182 609 182 609 220 619 c 1,0,-1
EndSplineSet
EndChar
StartChar: dotlessi
Encoding: 305 305 156
Width: 264
Flags: W
LayerCount: 2
Fore
SplineSet
181 450 m 1,0,-1
 181 129 l 2,1,2
 181 35 181 35 238 35 c 2,3,-1
 242 35 l 1,4,-1
 242 0 l 1,5,-1
 25 0 l 1,6,-1
 25 35 l 1,7,-1
 34 35 l 2,8,9
 99 35 99 35 99 128 c 2,10,-1
 99 342 l 1,11,-1
 25 382 l 1,12,-1
 25 400 l 1,13,-1
 157 450 l 1,14,-1
 181 450 l 1,0,-1
EndSplineSet
EndChar
StartChar: OE
Encoding: 338 338 85
Width: 1007
Flags: W
LayerCount: 2
Fore
SplineSet
162 372 m 0,0,1
 162 259 162 259 208 163 c 0,2,3
 266 43 266 43 367 43 c 0,4,5
 457 43 457 43 506 136 c 0,6,7
 545 210 545 210 545 309 c 0,8,9
 545 420 545 420 501 511 c 0,10,11
 446 627 446 627 347 627 c 0,12,13
 279 627 279 627 227 574 c 0,14,15
 162 507 162 507 162 372 c 0,0,1
665 370 m 1,16,-1
 738 370 l 2,17,18
 793 370 793 370 814 390.5 c 128,-1,19
 835 411 835 411 839 466 c 1,20,-1
 884 466 l 1,21,-1
 884 226 l 1,22,-1
 840 226 l 1,23,24
 831 283 831 283 809 305.5 c 128,-1,25
 787 328 787 328 732 328 c 2,26,-1
 667 328 l 1,27,-1
 667 326 l 2,28,29
 667 156 667 156 512 39 c 1,30,-1
 744 39 l 2,31,32
 794 39 794 39 817 46 c 0,33,34
 849 55 849 55 878 85 c 0,35,36
 899 107 899 107 904 113 c 0,37,38
 914 125 914 125 937 162 c 2,39,-1
 942 170 l 1,40,-1
 983 170 l 1,41,-1
 950 0 l 1,42,-1
 399 0 l 2,43,44
 278 0 278 0 215 32 c 0,45,46
 172 54 172 54 133 95 c 0,47,48
 43 191 43 191 43 338 c 0,49,50
 43 436 43 436 86 513 c 0,51,52
 132 594 132 594 218 634 c 0,53,54
 286 666 286 666 390 666 c 2,55,-1
 933 666 l 1,56,-1
 939 513 l 1,57,-1
 904 513 l 1,58,-1
 899 522 l 2,59,60
 870 574 870 574 858 589 c 0,61,62
 827 627 827 627 723 627 c 2,63,-1
 507 627 l 1,64,65
 641 551 641 551 665 373 c 1,66,-1
 665 370 l 1,16,-1
EndSplineSet
EndChar
StartChar: oe
Encoding: 339 339 96
Width: 743
Flags: W
LayerCount: 2
Fore
SplineSet
609 307 m 1,0,1
 593 414 593 414 517 414 c 0,2,3
 439 414 439 414 430 307 c 1,4,-1
 609 307 l 1,0,1
128 257 m 0,5,6
 128 25 128 25 249 25 c 0,7,8
 353 25 353 25 353 178 c 0,9,10
 353 265 353 265 333 324 c 0,11,12
 303 414 303 414 233 414 c 0,13,14
 128 414 128 414 128 257 c 0,5,6
430 273 m 1,15,16
 436 67 436 67 584 67 c 0,17,18
 652 67 652 67 695 124 c 1,19,-1
 716 111 l 1,20,21
 696 58 696 58 650.5 24 c 128,-1,22
 605 -10 605 -10 550 -10 c 0,23,24
 456 -10 456 -10 396 61 c 1,25,26
 331 -10 331 -10 240 -10 c 0,27,28
 150 -10 150 -10 93 60 c 0,29,30
 39 125 39 125 39 217 c 0,31,32
 39 312 39 312 94 378 c 0,33,34
 153 449 153 449 246 449 c 0,35,36
 335 449 335 449 396 381 c 1,37,38
 450 449 450 449 536 449 c 0,39,40
 686 449 686 449 706 273 c 1,41,-1
 430 273 l 1,15,16
EndSplineSet
EndChar
StartChar: florin
Encoding: 402 402 77
Width: 565
Flags: W
LayerCount: 2
Fore
SplineSet
514 439 m 1,0,-1
 505 397 l 1,1,-1
 397 397 l 1,2,-1
 328 141 l 2,3,4
 303 47 303 47 270 -51 c 0,5,6
 226 -184 226 -184 138 -184 c 0,7,8
 115 -184 115 -184 96 -171.5 c 128,-1,9
 77 -159 77 -159 77 -137 c 0,10,11
 77 -109 77 -109 104 -109 c 0,12,13
 122 -109 122 -109 140 -140 c 0,14,15
 149 -155 149 -155 160 -155 c 0,16,17
 184 -155 184 -155 200 -99 c 0,18,19
 207 -61 207 -61 214 -24 c 2,20,21
 214 -24 214 -24 255 162 c 2,22,-1
 258 176 l 1,23,-1
 313 397 l 1,24,-1
 213 397 l 1,25,-1
 222 439 l 1,26,-1
 323 439 l 1,27,-1
 335 492 l 2,28,29
 380 689 380 689 479 689 c 0,30,31
 503 689 503 689 524 677 c 0,32,33
 549 663 549 663 549 641 c 0,34,35
 549 610 549 610 519 610 c 0,36,37
 499 610 499 610 491 634 c 2,38,-1
 486 649 l 2,39,40
 482 660 482 660 467 660 c 0,41,42
 434 660 434 660 428 591 c 2,43,-1
 425 554 l 1,44,-1
 416 495 l 1,45,-1
 407 452 l 1,46,-1
 405 439 l 1,47,-1
 514 439 l 1,0,-1
EndSplineSet
EndChar
StartChar: circumflex
Encoding: 710 710 82
Width: 470
Flags: W
LayerCount: 2
Fore
SplineSet
223 602 m 1,0,-1
 151 511 l 1,1,-1
 108 511 l 1,2,-1
 190 658 l 1,3,-1
 274 658 l 1,4,-1
 363 511 l 1,5,-1
 316 511 l 1,6,-1
 223 602 l 1,0,-1
EndSplineSet
EndChar
StartChar: caron
Encoding: 711 711 157
Width: 416
Flags: W
LayerCount: 2
Fore
SplineSet
222 566 m 1,0,-1
 295 658 l 1,1,-1
 338 658 l 1,2,-1
 256 511 l 1,3,-1
 172 511 l 1,4,-1
 82 658 l 1,5,-1
 129 658 l 1,6,-1
 222 566 l 1,0,-1
EndSplineSet
EndChar
StartChar: breve
Encoding: 728 728 158
Width: 496
Flags: W
LayerCount: 2
Fore
SplineSet
106 660 m 1,0,-1
 147 660 l 1,1,2
 166 572 166 572 246 572 c 0,3,4
 324 572 324 572 345 660 c 1,5,-1
 386 660 l 1,6,7
 382 590 382 590 350 546 c 0,8,9
 313 496 313 496 246 496 c 256,10,11
 179 496 179 496 142 546 c 0,12,13
 110 590 110 590 106 660 c 1,0,-1
EndSplineSet
EndChar
StartChar: dotaccent
Encoding: 729 729 159
Width: 281
Flags: W
LayerCount: 2
Fore
SplineSet
92 580 m 256,0,1
 92 600 92 600 106 613.5 c 128,-1,2
 120 627 120 627 140 627 c 256,3,4
 160 627 160 627 173.5 613.5 c 128,-1,5
 187 600 187 600 187 580 c 256,6,7
 187 560 187 560 173.5 546 c 128,-1,8
 160 532 160 532 140 532 c 256,9,10
 120 532 120 532 106 546 c 128,-1,11
 92 560 92 560 92 580 c 256,0,1
EndSplineSet
EndChar
StartChar: ring
Encoding: 730 730 160
Width: 358
Flags: W
LayerCount: 2
Fore
SplineSet
130 580 m 256,0,1
 130 559 130 559 145 544 c 128,-1,2
 160 529 160 529 181 529 c 256,3,4
 202 529 202 529 216.5 544 c 128,-1,5
 231 559 231 559 231 580 c 0,6,7
 231 600 231 600 216 615 c 128,-1,8
 201 630 201 630 181 630 c 0,9,10
 160 630 160 630 145 615.5 c 128,-1,11
 130 601 130 601 130 580 c 256,0,1
100 580 m 256,12,13
 100 614 100 614 123.5 637 c 128,-1,14
 147 660 147 660 181 660 c 0,15,16
 214 660 214 660 237.5 636.5 c 128,-1,17
 261 613 261 613 261 580 c 0,18,19
 261 546 261 546 238 522.5 c 128,-1,20
 215 499 215 499 181 499 c 256,21,22
 147 499 147 499 123.5 522.5 c 128,-1,23
 100 546 100 546 100 580 c 256,12,13
EndSplineSet
EndChar
StartChar: ogonek
Encoding: 731 731 161
Width: 390
Flags: W
LayerCount: 2
Fore
SplineSet
125 7 m 1,0,-1
 150 7 l 1,1,2
 137 -16 137 -16 137 -39 c 0,3,4
 137 -81 137 -81 167 -106.5 c 128,-1,5
 197 -132 197 -132 239 -132 c 0,6,7
 269 -132 269 -132 296 -121 c 1,8,-1
 306 -137 l 1,9,10
 241 -173 241 -173 196 -173 c 256,11,12
 151 -173 151 -173 121 -152 c 0,13,14
 87 -127 87 -127 87 -84 c 0,15,16
 87 -26 87 -26 125 7 c 1,0,-1
EndSplineSet
EndChar
StartChar: tilde
Encoding: 732 732 93
Width: 502
Flags: W
LayerCount: 2
Fore
SplineSet
133 520 m 1,0,-1
 103 535 l 1,1,2
 129 641 129 641 195 641 c 0,3,4
 219 641 219 641 265 615.5 c 128,-1,5
 311 590 311 590 328 590 c 0,6,7
 361 590 361 590 384 642 c 1,8,-1
 410 628 l 1,9,10
 404 586 404 586 384 557 c 0,11,12
 359 521 359 521 320 521 c 0,13,14
 292 521 292 521 248 544 c 0,15,16
 198 570 198 570 186 570 c 0,17,18
 155 570 155 570 133 520 c 1,0,-1
EndSplineSet
EndChar
StartChar: hungarumlaut
Encoding: 733 733 162
Width: 431
Flags: W
LayerCount: 2
Fore
SplineSet
238 511 m 1,0,-1
 204 511 l 1,1,-1
 243 626 l 2,2,3
 250 645 250 645 258 651.5 c 128,-1,4
 266 658 266 658 286 658 c 2,5,-1
 314 658 l 2,6,7
 341 658 341 658 341 643 c 0,8,9
 341 635 341 635 336 629 c 2,10,-1
 238 511 l 1,0,-1
123 511 m 1,11,-1
 89 511 l 1,12,-1
 128 626 l 2,13,14
 135 645 135 645 143 651.5 c 128,-1,15
 151 658 151 658 171 658 c 2,16,-1
 199 658 l 2,17,18
 226 658 226 658 226 643 c 0,19,20
 226 635 226 635 221 629 c 2,21,-1
 123 511 l 1,11,-1
EndSplineSet
EndChar
StartChar: Delta
Encoding: 916 916 163
AltUni2: 002206.ffffffff.0
Width: 666
Flags: W
LayerCount: 2
Fore
SplineSet
75 44 m 1,0,-1
 589 44 l 1,1,-1
 330 617 l 1,2,-1
 75 44 l 1,0,-1
3 0 m 1,3,-1
 296 666 l 1,4,-1
 363 666 l 1,5,-1
 663 0 l 1,6,-1
 3 0 l 1,3,-1
EndSplineSet
EndChar
StartChar: Omega
Encoding: 937 937 164
AltUni2: 002126.ffffffff.0
Width: 666
Flags: W
LayerCount: 2
Fore
SplineSet
12 0 m 1,0,-1
 12 51 l 1,1,-1
 213 51 l 1,2,3
 17 160 17 160 17 360 c 0,4,5
 17 497 17 497 106.5 590 c 128,-1,6
 196 683 196 683 333 683 c 0,7,8
 469 683 469 683 559 590 c 128,-1,9
 649 497 649 497 649 360 c 0,10,11
 649 160 649 160 453 51 c 1,12,-1
 654 51 l 1,13,-1
 654 0 l 1,14,-1
 385 0 l 1,15,-1
 385 48 l 1,16,17
 479 101 479 101 523 159 c 0,18,19
 589 245 589 245 589 355 c 0,20,21
 589 469 589 469 519 548 c 0,22,23
 446 631 446 631 334 631 c 0,24,25
 219 631 219 631 148 551 c 128,-1,26
 77 471 77 471 77 355 c 0,27,28
 77 160 77 160 282 48 c 1,29,-1
 282 0 l 1,30,-1
 12 0 l 1,0,-1
EndSplineSet
EndChar
StartChar: pi
Encoding: 960 960 165
Width: 558
Flags: W
LayerCount: 2
Fore
SplineSet
100 0 m 1,0,-1
 100 471 l 1,1,-1
 31 471 l 1,2,-1
 31 517 l 1,3,-1
 527 517 l 1,4,-1
 527 471 l 1,5,-1
 459 471 l 1,6,-1
 459 0 l 1,7,-1
 403 0 l 1,8,-1
 403 471 l 1,9,-1
 157 471 l 1,10,-1
 157 0 l 1,11,-1
 100 0 l 1,0,-1
EndSplineSet
EndChar
StartChar: endash
Encoding: 8211 8211 91
Width: 500
Flags: W
LayerCount: 2
Fore
SplineSet
11 365 m 1,0,-1
 489 365 l 1,1,-1
 489 318 l 1,2,-1
 11 318 l 1,3,-1
 11 365 l 1,0,-1
EndSplineSet
EndChar
StartChar: emdash
Encoding: 8212 8212 92
Width: 977
Flags: W
LayerCount: 2
Fore
SplineSet
-5 266 m 1,0,-1
 983 266 l 1,1,-1
 983 222 l 1,2,-1
 -5 222 l 1,3,-1
 -5 266 l 1,0,-1
EndSplineSet
EndChar
StartChar: quoteleft
Encoding: 8216 8216 86
Width: 285
Flags: W
LayerCount: 2
Fore
SplineSet
225 678 m 1,0,-1
 240 646 l 1,1,2
 191 628 191 628 170 612 c 0,3,4
 134 586 134 586 134 547 c 0,5,6
 134 514 134 514 164 514 c 2,7,-1
 173 514 l 2,8,9
 234 514 234 514 234 462 c 0,10,11
 234 406 234 406 174 406 c 0,12,13
 130 406 130 406 103 441 c 0,14,15
 79 472 79 472 79 518 c 0,16,17
 79 560 79 560 102 596.5 c 128,-1,18
 125 633 125 633 163 653 c 0,19,20
 188 666 188 666 225 678 c 1,0,-1
EndSplineSet
EndChar
StartChar: quoteright
Encoding: 8217 8217 87
Width: 254
Flags: W
LayerCount: 2
Fore
SplineSet
52 407 m 1,0,-1
 38 439 l 1,1,2
 86 456 86 456 108 472 c 0,3,4
 143 498 143 498 143 537 c 0,5,6
 143 571 143 571 114 571 c 2,7,-1
 105 571 l 2,8,9
 44 571 44 571 44 623 c 0,10,11
 44 678 44 678 103 678 c 0,12,13
 147 678 147 678 173 645.5 c 128,-1,14
 199 613 199 613 199 567 c 0,15,16
 199 475 199 475 114 431 c 0,17,18
 87 417 87 417 52 407 c 1,0,-1
EndSplineSet
EndChar
StartChar: quotedblleft
Encoding: 8220 8220 88
Width: 498
Flags: W
LayerCount: 2
Fore
SplineSet
222 678 m 1,0,-1
 237 646 l 1,1,2
 188 628 188 628 167 612 c 0,3,4
 131 586 131 586 131 547 c 0,5,6
 131 514 131 514 160 514 c 2,7,-1
 169 514 l 2,8,9
 231 514 231 514 231 462 c 0,10,11
 231 406 231 406 171 406 c 0,12,13
 127 406 127 406 100 441 c 0,14,15
 76 472 76 472 76 518 c 0,16,17
 76 560 76 560 99 596.5 c 128,-1,18
 122 633 122 633 160 653 c 0,19,20
 185 666 185 666 222 678 c 1,0,-1
441 678 m 1,21,-1
 456 646 l 1,22,23
 407 628 407 628 386 612 c 0,24,25
 350 586 350 586 350 547 c 0,26,27
 350 514 350 514 379 514 c 2,28,-1
 388 514 l 2,29,30
 450 514 450 514 450 462 c 0,31,32
 450 406 450 406 390 406 c 0,33,34
 346 406 346 406 319 441 c 0,35,36
 295 472 295 472 295 518 c 0,37,38
 295 635 295 635 441 678 c 1,21,-1
EndSplineSet
EndChar
StartChar: quotedblright
Encoding: 8221 8221 89
Width: 498
Flags: W
LayerCount: 2
Fore
SplineSet
299 407 m 1,0,-1
 285 439 l 1,1,2
 333 456 333 456 355 472 c 0,3,4
 390 498 390 498 390 537 c 0,5,6
 390 571 390 571 361 571 c 2,7,-1
 353 571 l 2,8,9
 291 571 291 571 291 622 c 0,10,11
 291 678 291 678 351 678 c 0,12,13
 395 678 395 678 422 644 c 0,14,15
 446 612 446 612 446 567 c 0,16,17
 446 475 446 475 361 431 c 0,18,19
 334 417 334 417 299 407 c 1,0,-1
81 407 m 1,20,-1
 66 439 l 1,21,22
 114 457 114 457 136 472 c 0,23,24
 172 499 172 499 172 537 c 0,25,26
 172 571 172 571 142 571 c 2,27,-1
 133 571 l 2,28,29
 72 571 72 571 72 623 c 0,30,31
 72 678 72 678 132 678 c 0,32,33
 176 678 176 678 203 644 c 0,34,35
 227 612 227 612 227 567 c 0,36,37
 227 525 227 525 204 488 c 128,-1,38
 181 451 181 451 143 431 c 0,39,40
 117 417 117 417 81 407 c 1,20,-1
EndSplineSet
EndChar
StartChar: quotedblbase
Encoding: 8222 8222 78
Width: 498
Flags: W
LayerCount: 2
Fore
SplineSet
294 -111 m 1,0,-1
 279 -79 l 1,1,2
 328 -61 328 -61 349 -46 c 0,3,4
 385 -20 385 -20 385 18 c 0,5,6
 385 52 385 52 355 52 c 2,7,-1
 346 52 l 2,8,9
 285 52 285 52 285 104 c 0,10,11
 285 159 285 159 345 159 c 0,12,13
 389 159 389 159 416 125 c 0,14,15
 440 93 440 93 440 48 c 0,16,17
 440 7 440 7 416.5 -30 c 128,-1,18
 393 -67 393 -67 356 -87 c 0,19,20
 333 -99 333 -99 294 -111 c 1,0,-1
75 -111 m 1,21,-1
 60 -79 l 1,22,23
 109 -61 109 -61 130 -46 c 0,24,25
 166 -20 166 -20 166 18 c 0,26,27
 166 52 166 52 137 52 c 2,28,-1
 128 52 l 2,29,30
 66 52 66 52 66 104 c 0,31,32
 66 159 66 159 126 159 c 0,33,34
 170 159 170 159 197 125 c 0,35,36
 221 93 221 93 221 48 c 0,37,38
 221 6 221 6 197.5 -30 c 128,-1,39
 174 -66 174 -66 137 -87 c 0,40,41
 112 -101 112 -101 75 -111 c 1,21,-1
EndSplineSet
EndChar
StartChar: daggerdbl
Encoding: 8225 8225 81
Width: 488
Flags: W
LayerCount: 2
Fore
SplineSet
278 248 m 1,0,-1
 261 83 l 1,1,-1
 400 116 l 2,2,3
 403 117 403 117 411 117 c 0,4,5
 452 117 452 117 452 64 c 0,6,7
 452 12 452 12 418 12 c 0,8,9
 415 12 415 12 410 13 c 2,10,-1
 261 43 l 1,11,-1
 293 -137 l 2,12,13
 294 -143 294 -143 294 -150 c 0,14,15
 294 -187 294 -187 250 -187 c 0,16,17
 192 -187 192 -187 192 -158 c 0,18,19
 192 -149 192 -149 193 -143 c 2,20,-1
 222 43 l 1,21,-1
 74 13 l 2,22,23
 71 12 71 12 65 12 c 0,24,25
 43 12 43 12 36 31 c 0,26,27
 32 41 32 41 32 69 c 0,28,29
 32 118 32 118 62 118 c 0,30,31
 70 118 70 118 74 117 c 2,32,-1
 222 83 l 1,33,-1
 205 248 l 1,34,-1
 222 413 l 1,35,-1
 74 379 l 2,36,37
 68 377 68 377 63 377 c 0,38,39
 32 377 32 377 32 420 c 0,40,41
 32 451 32 451 35 462 c 0,42,43
 42 484 42 484 66 484 c 2,44,-1
 70 484 l 2,45,46
 72 483 72 483 74 483 c 2,47,-1
 222 452 l 1,48,-1
 193 649 l 1,49,50
 193 683 193 683 237 683 c 0,51,52
 266 683 266 683 276 680 c 0,53,54
 295 673 295 673 295 650 c 0,55,56
 295 645 295 645 293 634 c 2,57,-1
 261 452 l 1,58,-1
 410 482 l 2,59,60
 413 483 413 483 418 483 c 0,61,62
 452 483 452 483 452 436 c 0,63,64
 452 378 452 378 411 378 c 0,65,66
 404 378 404 378 400 379 c 2,67,-1
 261 413 l 1,68,-1
 278 248 l 1,0,-1
EndSplineSet
EndChar
StartChar: bullet
Encoding: 8226 8226 90
Width: 255
Flags: W
LayerCount: 2
Fore
SplineSet
127 407 m 0,0,1
 156 407 156 407 176 387.5 c 128,-1,2
 196 368 196 368 196 339 c 0,3,4
 196 311 196 311 175.5 291 c 128,-1,5
 155 271 155 271 127 271 c 256,6,7
 99 271 99 271 79 291 c 128,-1,8
 59 311 59 311 59 339 c 256,9,10
 59 367 59 367 79 387 c 128,-1,11
 99 407 99 407 127 407 c 0,0,1
EndSplineSet
EndChar
StartChar: ellipsis
Encoding: 8230 8230 79
Width: 1007
Flags: W
LayerCount: 2
Fore
SplineSet
780 49 m 256,0,1
 780 74 780 74 797.5 91.5 c 128,-1,2
 815 109 815 109 840 109 c 256,3,4
 865 109 865 109 883 91.5 c 128,-1,5
 901 74 901 74 901 49 c 0,6,7
 901 23 901 23 883.5 6 c 128,-1,8
 866 -11 866 -11 840 -11 c 0,9,10
 815 -11 815 -11 797.5 6.5 c 128,-1,11
 780 24 780 24 780 49 c 256,0,1
443 49 m 256,12,13
 443 74 443 74 460.5 91.5 c 128,-1,14
 478 109 478 109 503 109 c 256,15,16
 528 109 528 109 546 91.5 c 128,-1,17
 564 74 564 74 564 49 c 0,18,19
 564 23 564 23 546.5 6 c 128,-1,20
 529 -11 529 -11 503 -11 c 0,21,22
 478 -11 478 -11 460.5 6.5 c 128,-1,23
 443 24 443 24 443 49 c 256,12,13
106 49 m 0,24,25
 106 74 106 74 124 91.5 c 128,-1,26
 142 109 142 109 167 109 c 256,27,28
 192 109 192 109 209.5 91.5 c 128,-1,29
 227 74 227 74 227 49 c 256,30,31
 227 24 227 24 209.5 6.5 c 128,-1,32
 192 -11 192 -11 167 -11 c 0,33,34
 141 -11 141 -11 123.5 6 c 128,-1,35
 106 23 106 23 106 49 c 0,24,25
EndSplineSet
EndChar
StartChar: perthousand
Encoding: 8240 8240 83
Width: 1061
Flags: W
LayerCount: 2
Fore
SplineSet
830 164 m 2,0,-1
 830 156 l 2,1,2
 830 35 830 35 912 35 c 256,3,4
 994 35 994 35 994 163 c 0,5,6
 994 286 994 286 914 286 c 0,7,8
 830 286 830 286 830 164 c 2,0,-1
491 164 m 2,9,10
 491 35 491 35 573 35 c 256,11,12
 655 35 655 35 655 163 c 0,13,14
 655 286 655 286 575 286 c 0,15,16
 532 286 532 286 510 249 c 0,17,18
 491 218 491 218 491 172 c 2,19,-1
 491 164 l 2,9,10
67 485 m 2,20,-1
 67 477 l 2,21,22
 67 356 67 356 149 356 c 256,23,24
 231 356 231 356 231 484 c 0,25,26
 231 608 231 608 151 608 c 0,27,28
 67 608 67 608 67 485 c 2,20,-1
783 165 m 1,29,30
 786 326 786 326 915 326 c 0,31,32
 981 326 981 326 1013 277 c 0,33,34
 1041 236 1041 236 1041 167 c 0,35,36
 1041 -4 1041 -4 910 -4 c 0,37,38
 782 -4 782 -4 782 157 c 1,39,-1
 783 165 l 1,29,30
443 165 m 2,40,41
 443 326 443 326 576 326 c 0,42,43
 642 326 642 326 674 277 c 0,44,45
 702 236 702 236 702 167 c 0,46,47
 702 -4 702 -4 571 -4 c 0,48,49
 443 -4 443 -4 443 157 c 2,50,-1
 443 165 l 2,40,41
511 643 m 1,51,-1
 260 0 l 1,52,-1
 211 0 l 1,53,-1
 462 643 l 1,54,-1
 511 643 l 1,51,-1
20 486 m 2,55,56
 20 558 20 558 50 600 c 0,57,58
 84 648 84 648 152 648 c 0,59,60
 218 648 218 648 250 599 c 0,61,62
 278 557 278 557 278 488 c 0,63,64
 278 415 278 415 250 370 c 0,65,66
 217 316 217 316 148 316 c 0,67,68
 20 316 20 316 20 478 c 2,69,-1
 20 486 l 2,55,56
EndSplineSet
EndChar
StartChar: guilsinglleft
Encoding: 8249 8249 84
Width: 244
Flags: W
LayerCount: 2
Fore
SplineSet
119 245 m 1,0,-1
 207 31 l 1,1,-1
 183 31 l 1,2,-1
 39 245 l 1,3,-1
 183 464 l 1,4,-1
 207 464 l 1,5,-1
 119 245 l 1,0,-1
EndSplineSet
EndChar
StartChar: guilsinglright
Encoding: 8250 8250 95
Width: 244
Flags: W
LayerCount: 2
Fore
SplineSet
120 245 m 1,0,-1
 32 464 l 1,1,-1
 56 464 l 1,2,-1
 200 245 l 1,3,-1
 56 31 l 1,4,-1
 32 31 l 1,5,-1
 120 245 l 1,0,-1
EndSplineSet
EndChar
StartChar: fraction
Encoding: 8260 8260 166
Width: 164
Flags: W
LayerCount: 2
Fore
SplineSet
306 661 m 1,0,-1
 -101 0 l 1,1,-1
 -141 0 l 1,2,-1
 266 661 l 1,3,-1
 306 661 l 1,0,-1
EndSplineSet
EndChar
StartChar: trademark
Encoding: 8482 8482 94
Width: 846
Flags: W
LayerCount: 2
Fore
SplineSet
330 666 m 1,0,-1
 330 628 l 1,1,-1
 195 628 l 1,2,-1
 195 267 l 1,3,-1
 149 267 l 1,4,-1
 149 628 l 1,5,-1
 12 628 l 1,6,-1
 12 666 l 1,7,-1
 330 666 l 1,0,-1
778 666 m 1,8,-1
 778 267 l 1,9,-1
 737 267 l 1,10,-1
 737 617 l 1,11,-1
 590 266 l 1,12,-1
 562 266 l 1,13,-1
 419 616 l 1,14,-1
 419 266 l 1,15,-1
 376 266 l 1,16,-1
 376 666 l 1,17,-1
 441 666 l 1,18,-1
 575 348 l 1,19,-1
 714 666 l 1,20,-1
 778 666 l 1,8,-1
EndSplineSet
EndChar
StartChar: partialdiff
Encoding: 8706 8706 167
Width: 500
Flags: W
LayerCount: 2
Fore
SplineSet
245 391 m 0,0,1
 173 391 173 391 124.5 337.5 c 128,-1,2
 76 284 76 284 76 211 c 0,3,4
 76 140 76 140 124 86.5 c 128,-1,5
 172 33 172 33 242 33 c 0,6,7
 315 33 315 33 361 87 c 128,-1,8
 407 141 407 141 407 215 c 0,9,10
 407 290 407 290 363 340.5 c 128,-1,11
 319 391 319 391 245 391 c 0,0,1
392 371 m 1,12,13
 383 422 383 422 353 477 c 128,-1,14
 323 532 323 532 285 563 c 0,15,16
 233 605 233 605 165 628 c 0,17,18
 136 638 136 638 91 643 c 1,19,-1
 105 675 l 1,20,21
 167 669 167 669 209 651 c 0,22,23
 393 572 393 572 446 346 c 0,24,25
 458 295 458 295 458 245 c 0,26,27
 458 137 458 137 404 67 c 0,28,29
 345 -11 345 -11 240 -11 c 0,30,31
 149 -11 149 -11 87 54.5 c 128,-1,32
 25 120 25 120 25 212 c 256,33,34
 25 304 25 304 87 370 c 128,-1,35
 149 436 149 436 240 436 c 0,36,37
 319 436 319 436 392 371 c 1,12,13
EndSplineSet
EndChar
StartChar: product
Encoding: 8719 8719 168
Width: 666
Flags: W
LayerCount: 2
Fore
SplineSet
4 750 m 1,0,-1
 662 750 l 1,1,-1
 662 711 l 1,2,-1
 578 711 l 1,3,-1
 578 -210 l 1,4,-1
 662 -210 l 1,5,-1
 662 -250 l 1,6,-1
 438 -250 l 1,7,-1
 438 -211 l 1,8,-1
 528 -211 l 1,9,-1
 528 710 l 1,10,-1
 139 710 l 1,11,-1
 139 -210 l 1,12,-1
 227 -210 l 1,13,-1
 227 -250 l 1,14,-1
 4 -250 l 1,15,-1
 4 -211 l 1,16,-1
 89 -211 l 1,17,-1
 89 710 l 1,18,-1
 4 710 l 1,19,-1
 4 750 l 1,0,-1
EndSplineSet
EndChar
StartChar: summation
Encoding: 8721 8721 169
Width: 1445
Flags: W
LayerCount: 2
Fore
SplineSet
1291 498 m 0,0,1
 1292 447 1292 447 1231 447 c 0,2,3
 1215 447 1215 447 1186 459 c 1,4,-1
 1192 496 l 1,5,-1
 1201 496 l 1,6,7
 1198 480 1198 480 1207.5 468.5 c 128,-1,8
 1217 457 1217 457 1233 457 c 0,9,10
 1265 457 1265 457 1267 474 c 2,11,-1
 1267 493 l 2,12,13
 1267 498 1267 498 1226 511.5 c 128,-1,14
 1185 525 1185 525 1185 553 c 0,15,16
 1185 595 1185 595 1243 596 c 0,17,18
 1251 596 1251 596 1283 589 c 1,19,-1
 1278 558 l 1,20,-1
 1268 558 l 1,21,22
 1270 586 1270 586 1238 586 c 0,23,24
 1228 586 1228 586 1218.5 579 c 128,-1,25
 1209 572 1209 572 1209 562 c 0,26,27
 1209 545 1209 545 1232 538 c 2,28,29
 1232 538 1232 538 1269 532 c 1,30,31
 1291 524 1291 524 1291 498 c 0,0,1
1166 531 m 0,32,33
 1167 500 1167 500 1145.5 476.5 c 128,-1,34
 1124 453 1124 453 1093 453 c 2,35,-1
 1010 453 l 1,36,-1
 1010 462 l 1,37,38
 1023 459 1023 459 1023 473 c 2,39,-1
 1023 578 l 2,40,41
 1023 586 1023 586 1005 587 c 1,42,-1
 1005 596 l 1,43,-1
 1112 596 l 2,44,45
 1136 596 1136 596 1151 576 c 128,-1,46
 1166 556 1166 556 1166 531 c 0,32,33
996 453 m 1,47,-1
 960 453 l 1,48,-1
 910 525 l 1,49,-1
 910 529 l 1,50,51
 949 529 949 529 949 560 c 0,52,53
 949 568 949 568 942.5 577 c 128,-1,54
 936 586 936 586 929 587 c 2,55,-1
 899 587 l 1,56,-1
 899 462 l 1,57,-1
 918 462 l 1,58,-1
 918 453 l 1,59,-1
 851 453 l 1,60,-1
 851 462 l 1,61,-1
 871 462 l 1,62,-1
 871 579 l 2,63,64
 871 587 871 587 851 587 c 1,65,-1
 851 596 l 1,66,-1
 947 596 l 2,67,68
 959 596 959 596 968 586.5 c 128,-1,69
 977 577 977 577 977 565 c 0,70,71
 977 543 977 543 942 526 c 1,72,73
 946 519 946 519 978 472 c 0,74,75
 985 462 985 462 995 462 c 1,76,-1
 996 453 l 1,47,-1
1459 121 m 1,77,-1
 1459 89 l 1,78,-1
 1450 89 l 1,79,80
 1450 108 1450 108 1439 112 c 0,81,82
 1435 113 1435 113 1410 113 c 1,83,-1
 1410 0 l 2,84,85
 1410 -12 1410 -12 1430 -12 c 1,86,-1
 1430 -21 l 1,87,-1
 1364 -21 l 1,88,-1
 1364 -12 l 1,89,90
 1382 -12 1382 -12 1382 0 c 2,91,-1
 1382 113 l 1,92,93
 1359 113 1359 113 1354 111 c 0,94,95
 1344 107 1344 107 1344 89 c 1,96,-1
 1335 89 l 1,97,-1
 1335 121 l 1,98,-1
 1459 121 l 1,77,-1
1420 -66 m 2,99,100
 1416 -69 1416 -69 1404 -93 c 1,101,-1
 1373 -93 l 2,102,103
 1373 -91 1373 -91 1377.5 -81 c 128,-1,104
 1382 -71 1382 -71 1382 -66 c 1,105,-1
 1420 -66 l 2,99,100
841 453 m 1,106,-1
 779 453 l 1,107,-1
 779 462 l 1,108,109
 789 461 789 461 793 462.5 c 128,-1,110
 797 464 797 464 795 468 c 2,111,-1
 781 501 l 1,112,-1
 731 501 l 1,113,114
 721 479 721 479 721 469 c 0,115,116
 721 462 721 462 726 462 c 2,117,-1
 736 462 l 1,118,-1
 736 453 l 1,119,-1
 689 453 l 1,120,-1
 689 462 l 1,121,122
 698 459 698 459 707 476 c 2,123,-1
 755 596 l 1,124,-1
 770 596 l 1,125,-1
 822 478 l 2,126,127
 828 465 828 465 830 463.5 c 128,-1,128
 832 462 832 462 841 462 c 1,129,-1
 841 453 l 1,106,-1
996 322 m 1,130,131
 968 279 968 279 940 257 c 1,132,-1
 918 257 l 1,133,134
 927 268 927 268 943.5 270 c 128,-1,135
 960 272 960 272 972 290 c 0,136,137
 992 319 992 319 996 322 c 1,130,131
1300 -88 m 1,138,-1
 1277 -88 l 1,139,140
 1267 -69 1267 -69 1248 -69 c 0,141,142
 1242 -69 1242 -69 1230 -70 c 0,143,144
 1220 -71 1220 -71 1215 -70 c 0,145,146
 1206 -69 1206 -69 1200 -65 c 1,147,-1
 1278 -65 l 2,148,149
 1300 -65 1300 -65 1300 -88 c 1,138,-1
668 486 m 1,150,151
 668 480 668 480 665.5 469.5 c 128,-1,152
 663 459 663 459 663 453 c 1,153,-1
 545 453 l 1,154,-1
 545 462 l 1,155,-1
 632 587 l 1,156,-1
 585 587 l 2,157,158
 572 587 572 587 569 584 c 128,-1,159
 566 581 566 581 562 567 c 1,160,-1
 555 567 l 1,161,-1
 555 596 l 1,162,-1
 668 596 l 1,163,-1
 668 589 l 1,164,-1
 579 462 l 1,165,-1
 641 462 l 2,166,167
 646 462 646 462 649 465 c 0,168,169
 658 470 658 470 660 486 c 1,170,-1
 668 486 l 1,150,151
1185 -67 m 1,171,172
 1140 -88 1140 -88 1133 -90 c 0,173,174
 1123 -93 1123 -93 1090 -93 c 0,175,176
 1053 -93 1053 -93 1042 -90 c 0,177,178
 1039 -89 1039 -89 1034 -80 c 128,-1,179
 1029 -71 1029 -71 1018 -66 c 1,180,-1
 1051 -66 l 1,181,-1
 1051 -89 l 1,182,-1
 1110 -89 l 1,183,-1
 1128 -72 l 1,184,185
 1124 -67 1124 -67 1116 -67 c 2,186,-1
 1185 -67 l 1,171,172
531 462 m 1,187,-1
 530 453 l 1,188,-1
 463 453 l 1,189,-1
 463 462 l 1,190,-1
 482 462 l 1,191,-1
 482 587 l 1,192,-1
 464 587 l 1,193,-1
 464 596 l 1,194,-1
 530 596 l 1,195,-1
 530 587 l 1,196,-1
 510 587 l 1,197,-1
 510 462 l 1,198,-1
 531 462 l 1,187,-1
1028 53 m 0,199,200
 1028 17 1028 17 1005 -4.5 c 128,-1,201
 982 -26 982 -26 946 -26 c 0,202,203
 911 -26 911 -26 890.5 -6.5 c 128,-1,204
 870 13 870 13 870 48 c 0,205,206
 870 122 870 122 951 122 c 0,207,208
 983 122 983 122 1005.5 103.5 c 128,-1,209
 1028 85 1028 85 1028 53 c 0,199,200
501 731 m 1,210,211
 479 731 479 731 474 718 c 2,212,-1
 400 458 l 1,213,-1
 387 458 l 1,214,-1
 302 682 l 1,215,-1
 209 458 l 1,216,-1
 196 458 l 1,217,218
 172 577 172 577 170 589 c 0,219,220
 151 672 151 672 132 711 c 0,221,222
 123 730 123 730 104 730 c 1,223,-1
 104 740 l 1,224,-1
 210 740 l 1,225,-1
 209 730 l 1,226,227
 187 730 187 730 183 729 c 0,228,229
 176 726 176 726 176 715 c 0,230,231
 176 679 176 679 222 519 c 1,232,-1
 311 740 l 1,233,-1
 319 740 l 1,234,-1
 403 524 l 1,235,236
 413 554 413 554 457 719 c 0,237,238
 460 729 460 729 447 731 c 2,239,-1
 421 731 l 1,240,-1
 421 740 l 1,241,-1
 501 740 l 1,242,-1
 501 731 l 1,210,211
1445 -44 m 1024,243,-1
858 249 m 1,244,-1
 846 189 l 1,245,-1
 833 189 l 1,246,247
 835 227 835 227 812 239 c 0,248,249
 797 247 797 247 757 247 c 0,250,251
 699 247 699 247 667 213.5 c 128,-1,252
 635 180 635 180 635 122 c 0,253,254
 635 62 635 62 671.5 29.5 c 128,-1,255
 708 -3 708 -3 768 -3 c 0,256,257
 824 -3 824 -3 853 20 c 1,258,-1
 857 16 l 1,259,-1
 847 -6 l 1,260,261
 800 -26 800 -26 755 -26 c 0,262,263
 684 -26 684 -26 640 11 c 0,264,265
 592 50 592 50 592 120 c 0,266,267
 592 187 592 187 642 228 c 0,268,269
 688 266 688 266 757 266 c 0,270,271
 816 266 816 266 858 249 c 1,244,-1
989 -87 m 1,272,-1
 957 -87 l 1,273,274
 952 -69 952 -69 920 -69 c 0,275,276
 914 -69 914 -69 888.5 -78.5 c 128,-1,277
 863 -88 863 -88 862 -87 c 2,278,-1
 836 -87 l 1,279,280
 871 -64 871 -64 920 -64 c 256,281,282
 969 -64 969 -64 989 -87 c 1,272,-1
588 -16 m 1,283,-1
 225 -16 l 1,284,-1
 225 -7 l 1,285,-1
 282 -7 l 1,286,-1
 282 65 l 1,287,-1
 315 65 l 1,288,-1
 315 88 l 1,289,-1
 427 88 l 1,290,-1
 427 323 l 1,291,-1
 407 323 l 1,292,-1
 407 352 l 1,293,-1
 397 352 l 1,294,-1
 397 389 l 1,295,-1
 421 389 l 1,296,-1
 421 376 l 1,297,-1
 450 376 l 1,298,-1
 450 389 l 1,299,-1
 478 389 l 1,300,-1
 478 376 l 1,301,-1
 503 376 l 1,302,-1
 503 390 l 1,303,-1
 531 389 l 1,304,-1
 531 352 l 1,305,-1
 517 352 l 1,306,-1
 517 323 l 1,307,-1
 501 323 l 1,308,-1
 501 41 l 1,309,-1
 531 41 l 1,310,-1
 531 -7 l 1,311,-1
 588 -7 l 1,312,-1
 588 -16 l 1,283,-1
812 -82 m 1,313,314
 786 -74 786 -74 721 -74 c 0,315,316
 626 -74 626 -74 567 -117 c 1,317,-1
 521 -110 l 1,318,319
 597 -64 597 -64 709 -64 c 0,320,321
 777 -64 777 -64 812 -82 c 1,313,314
1135 526 m 0,322,323
 1135 586 1135 586 1096 586 c 2,324,-1
 1052 586 l 1,325,-1
 1052 462 l 1,326,-1
 1092 462 l 2,327,328
 1110 462 1110 462 1124 486 c 0,329,330
 1135 506 1135 506 1135 526 c 0,322,323
778 510 m 1,331,-1
 756 563 l 1,332,-1
 734 510 l 1,333,-1
 778 510 l 1,331,-1
995 46 m 0,334,335
 995 113 995 113 949 113 c 256,336,337
 903 113 903 113 903 50 c 0,338,339
 903 34 903 34 911 14 c 0,340,341
 924 -17 924 -17 951 -17 c 0,342,343
 995 -17 995 -17 995 46 c 0,334,335
474 218 m 1,344,-1
 474 263 l 2,345,346
 474 269 474 269 462 283 c 1,347,348
 450 276 450 276 450 263 c 2,349,-1
 450 218 l 1,350,-1
 474 218 l 1,344,-1
1197 -22 m 1,351,-1
 1135 -22 l 1,352,-1
 1135 -13 l 1,353,354
 1145 -14 1145 -14 1148.5 -12.5 c 128,-1,355
 1152 -11 1152 -11 1151 -7 c 2,356,-1
 1137 26 l 1,357,-1
 1087 26 l 1,358,359
 1077 5 1077 5 1077 -6 c 0,360,361
 1077 -13 1077 -13 1082 -13 c 2,362,-1
 1092 -13 l 1,363,-1
 1092 -22 l 1,364,-1
 1045 -22 l 1,365,-1
 1045 -13 l 1,366,367
 1053 -15 1053 -15 1063 1 c 2,368,-1
 1111 121 l 1,369,-1
 1126 121 l 1,370,-1
 1178 3 l 2,371,372
 1183 -9 1183 -9 1185 -11 c 128,-1,373
 1187 -13 1187 -13 1197 -13 c 1,374,-1
 1197 -22 l 1,351,-1
1134 35 m 1,375,-1
 1112 88 l 1,376,-1
 1090 35 l 1,377,-1
 1134 35 l 1,375,-1
1319 24 m 0,378,379
 1320 -27 1320 -27 1260 -27 c 0,380,381
 1244 -27 1244 -27 1214 -16 c 1,382,-1
 1221 22 l 1,383,-1
 1230 22 l 1,384,385
 1227 5 1227 5 1236 -6 c 128,-1,386
 1245 -17 1245 -17 1262 -17 c 0,387,388
 1294 -17 1294 -17 1296 0 c 2,389,-1
 1296 19 l 2,390,391
 1296 24 1296 24 1255 37.5 c 128,-1,392
 1214 51 1214 51 1214 79 c 0,393,394
 1214 121 1214 121 1272 122 c 0,395,396
 1280 122 1280 122 1312 115 c 1,397,-1
 1307 84 l 1,398,-1
 1297 84 l 1,399,400
 1299 112 1299 112 1267 112 c 0,401,402
 1257 112 1257 112 1247.5 105 c 128,-1,403
 1238 98 1238 98 1238 88 c 0,404,405
 1238 71 1238 71 1261 64 c 0,406,407
 1262 63 1262 63 1298 58 c 1,408,409
 1319 50 1319 50 1319 24 c 0,378,379
EndSplineSet
EndChar
StartChar: radical
Encoding: 8730 8730 170
Width: 666
Flags: W
LayerCount: 2
Fore
SplineSet
632 782 m 1,0,-1
 632 743 l 1,1,-1
 488 743 l 1,2,-1
 209 -14 l 1,3,-1
 103 312 l 1,4,-1
 34 312 l 1,5,-1
 34 352 l 1,6,-1
 134 352 l 1,7,-1
 213 100 l 1,8,-1
 456 782 l 1,9,-1
 632 782 l 1,0,-1
EndSplineSet
EndChar
StartChar: infinity
Encoding: 8734 8734 171
Width: 666
Flags: W
LayerCount: 2
Fore
SplineSet
304 334 m 1,0,1
 226 441 226 441 147 441 c 0,2,3
 100 441 100 441 72 411.5 c 128,-1,4
 44 382 44 382 44 335 c 256,5,6
 44 288 44 288 72 257.5 c 128,-1,7
 100 227 100 227 147 227 c 0,8,9
 222 227 222 227 304 334 c 1,0,1
361 334 m 1,10,11
 442 227 442 227 520 227 c 0,12,13
 566 227 566 227 593.5 256.5 c 128,-1,14
 621 286 621 286 621 333 c 0,15,16
 621 382 621 382 593.5 411.5 c 128,-1,17
 566 441 566 441 518 441 c 256,18,19
 470 441 470 441 428 407 c 0,20,21
 402 386 402 386 361 334 c 1,10,11
333 371 m 1,22,23
 416 487 416 487 518 487 c 0,24,25
 586 487 586 487 626.5 445.5 c 128,-1,26
 667 404 667 404 667 336 c 256,27,28
 667 268 667 268 626.5 225 c 128,-1,29
 586 182 586 182 519 182 c 0,30,31
 419 182 419 182 333 298 c 1,32,33
 245 182 245 182 149 182 c 0,34,35
 81 182 81 182 40.5 224.5 c 128,-1,36
 0 267 0 267 0 335 c 256,37,38
 0 403 0 403 40.5 445 c 128,-1,39
 81 487 81 487 149 487 c 0,40,41
 247 487 247 487 333 371 c 1,22,23
EndSplineSet
EndChar
StartChar: integral
Encoding: 8747 8747 172
Width: 500
Flags: W
LayerCount: 2
Fore
SplineSet
411 618 m 1,0,-1
 365 618 l 1,1,2
 366 628 366 628 366 640 c 0,3,4
 366 679 366 679 361 693 c 0,5,6
 352 720 352 720 322 720 c 0,7,8
 277 720 277 720 277 650 c 2,9,-1
 277 -128 l 2,10,11
 277 -250 277 -250 186 -250 c 0,12,13
 129 -250 129 -250 107 -203 c 0,14,15
 91 -171 91 -171 89 -106 c 1,16,-1
 137 -106 l 1,17,-1
 137 -142 l 2,18,19
 137 -219 137 -219 184 -219 c 256,20,21
 231 -219 231 -219 231 -140 c 2,22,-1
 231 620 l 2,23,24
 231 750 231 750 321 750 c 0,25,26
 372 750 372 750 392 713 c 0,27,28
 406 688 406 688 411 629 c 1,29,-1
 411 618 l 1,0,-1
EndSplineSet
EndChar
StartChar: approxequal
Encoding: 8776 8776 173
AltUni2: 0022f2.ffffffff.0
Width: 500
Flags: W
LayerCount: 2
Fore
SplineSet
462 342 m 1,0,-1
 493 317 l 1,1,2
 428 200 428 200 362 200 c 0,3,4
 333 200 333 200 246.5 239.5 c 128,-1,5
 160 279 160 279 138 279 c 0,6,7
 90 279 90 279 36 187 c 1,8,-1
 6 213 l 1,9,10
 74 325 74 325 136 325 c 0,11,12
 168 325 168 325 264 281 c 0,13,14
 343 245 343 245 359 245 c 0,15,16
 411 245 411 245 462 342 c 1,0,-1
462 507 m 1,17,-1
 493 482 l 1,18,19
 428 365 428 365 362 365 c 0,20,21
 335 365 335 365 249 404.5 c 128,-1,22
 163 444 163 444 138 444 c 0,23,24
 91 444 91 444 36 352 c 1,25,-1
 6 378 l 1,26,27
 74 490 74 490 136 490 c 0,28,29
 167 490 167 490 264 446 c 0,30,31
 343 410 343 410 359 410 c 0,32,33
 411 410 411 410 462 507 c 1,17,-1
EndSplineSet
EndChar
StartChar: notequal
Encoding: 8800 8800 174
Width: 500
Flags: W
LayerCount: 2
Fore
SplineSet
276 436 m 1,0,-1
 336 557 l 1,1,-1
 380 542 l 1,2,-1
 327 436 l 1,3,-1
 493 436 l 1,4,-1
 493 391 l 1,5,-1
 305 391 l 1,6,-1
 251 281 l 1,7,-1
 493 281 l 1,8,-1
 493 235 l 1,9,-1
 228 235 l 1,10,-1
 160 99 l 1,11,-1
 115 114 l 1,12,-1
 176 236 l 1,13,-1
 7 236 l 1,14,-1
 7 281 l 1,15,-1
 199 281 l 1,16,-1
 253 390 l 1,17,-1
 6 390 l 1,18,-1
 6 436 l 1,19,-1
 276 436 l 1,0,-1
EndSplineSet
EndChar
StartChar: lessequal
Encoding: 8804 8804 175
Width: 500
Flags: W
LayerCount: 2
Fore
SplineSet
489 97 m 1,0,-1
 489 45 l 1,1,-1
 11 45 l 1,2,-1
 11 97 l 1,3,-1
 489 97 l 1,0,-1
489 589 m 1,4,-1
 489 539 l 1,5,-1
 70 359 l 1,6,-1
 489 173 l 1,7,-1
 489 123 l 1,8,-1
 11 333 l 1,9,-1
 11 384 l 1,10,-1
 489 589 l 1,4,-1
EndSplineSet
EndChar
StartChar: greaterequal
Encoding: 8805 8805 176
Width: 500
Flags: W
LayerCount: 2
Fore
SplineSet
489 97 m 1,0,-1
 489 45 l 1,1,-1
 11 45 l 1,2,-1
 11 97 l 1,3,-1
 489 97 l 1,0,-1
11 123 m 1,4,-1
 11 173 l 1,5,-1
 429 353 l 1,6,-1
 11 539 l 1,7,-1
 11 589 l 1,8,-1
 489 379 l 1,9,-1
 489 328 l 1,10,-1
 11 123 l 1,4,-1
EndSplineSet
EndChar
StartChar: lozenge
Encoding: 9674 9674 177
Width: 666
Flags: W
LayerCount: 2
Fore
SplineSet
332 610 m 1,0,-1
 137 334 l 1,1,-1
 332 60 l 1,2,-1
 529 334 l 1,3,-1
 332 610 l 1,0,-1
332 681 m 1,4,-1
 584 334 l 1,5,-1
 332 -14 l 1,6,-1
 82 334 l 1,7,-1
 332 681 l 1,4,-1
EndSplineSet
EndChar
StartChar: fi
Encoding: 61441 61441 178
Width: 559
Flags: W
LayerCount: 2
Fore
SplineSet
478 454 m 1,0,-1
 478 128 l 2,1,2
 478 35 478 35 544 35 c 2,3,-1
 547 35 l 1,4,-1
 547 0 l 1,5,-1
 323 0 l 1,6,-1
 323 35 l 1,7,-1
 330 35 l 2,8,9
 396 35 396 35 396 128 c 2,10,-1
 396 339 l 2,11,12
 396 393 396 393 327 393 c 2,13,-1
 188 393 l 1,14,-1
 188 128 l 2,15,16
 188 35 188 35 253 35 c 2,17,-1
 260 35 l 1,18,-1
 260 0 l 1,19,-1
 33 0 l 1,20,-1
 33 35 l 1,21,-1
 40 35 l 2,22,23
 105 35 105 35 105 128 c 2,24,-1
 105 393 l 1,25,-1
 18 393 l 1,26,-1
 18 428 l 2,27,28
 18 439 18 439 32 439 c 2,29,-1
 51 439 l 2,30,31
 82 439 82 439 93 450 c 128,-1,32
 104 461 104 461 107 492 c 0,33,34
 115 581 115 581 175 630 c 128,-1,35
 235 679 235 679 326 679 c 0,36,37
 375 679 375 679 413 666 c 0,38,39
 467 647 467 647 467 606 c 0,40,41
 467 589 467 589 454.5 576.5 c 128,-1,42
 442 564 442 564 425 564 c 0,43,44
 405 564 405 564 370 601.5 c 128,-1,45
 335 639 335 639 292 639 c 0,46,47
 187 639 187 639 187 493 c 2,48,-1
 187 440 l 1,49,-1
 365 440 l 2,50,51
 451 440 451 440 478 454 c 1,0,-1
EndSplineSet
EndChar
StartChar: fl
Encoding: 61442 61442 179
Width: 559
Flags: W
LayerCount: 2
Fore
SplineSet
396 439 m 1,0,-1
 396 575 l 1,1,2
 386 581 386 581 371 600 c 0,3,4
 339 639 339 639 292 639 c 0,5,6
 187 639 187 639 187 493 c 2,7,-1
 187 439 l 1,8,-1
 396 439 l 1,0,-1
396 393 m 1,9,-1
 187 393 l 1,10,-1
 187 129 l 2,11,12
 187 35 187 35 253 35 c 2,13,-1
 260 35 l 1,14,-1
 260 0 l 1,15,-1
 33 0 l 1,16,-1
 33 35 l 1,17,-1
 40 35 l 2,18,19
 105 35 105 35 105 128 c 2,20,-1
 105 393 l 1,21,-1
 18 393 l 1,22,-1
 18 428 l 2,23,24
 18 439 18 439 32 439 c 2,25,-1
 50 439 l 2,26,27
 81 439 81 439 92.5 450 c 128,-1,28
 104 461 104 461 107 492 c 0,29,30
 115 581 115 581 175 630 c 128,-1,31
 235 679 235 679 326 679 c 0,32,33
 375 679 375 679 419 663 c 1,34,-1
 462 679 l 1,35,-1
 478 679 l 1,36,-1
 478 129 l 2,37,38
 478 35 478 35 542 35 c 2,39,-1
 545 35 l 1,40,-1
 545 0 l 1,41,-1
 326 0 l 1,42,-1
 326 35 l 1,43,-1
 330 35 l 2,44,45
 396 35 396 35 396 128 c 2,46,-1
 396 393 l 1,9,-1
EndSplineSet
EndChar
StartChar: guillemotright
Encoding: 65539 -1 121
Width: 335
Flags: W
LayerCount: 2
Fore
SplineSet
230 247 m 1,0,-1
 141 467 l 1,1,-1
 165 467 l 1,2,-1
 310 247 l 1,3,-1
 165 29 l 1,4,-1
 141 29 l 1,5,-1
 230 247 l 1,0,-1
91 247 m 1,6,-1
 41 418 l 1,7,-1
 63 418 l 1,8,-1
 161 247 l 1,9,-1
 63 72 l 1,10,-1
 41 72 l 1,11,-1
 91 247 l 1,6,-1
EndSplineSet
EndChar
StartChar: questiondown
Encoding: 65540 -1 122
Width: 376
Flags: W
LayerCount: 2
Fore
SplineSet
250 322 m 1,0,-1
 286 322 l 1,1,2
 285 311 285 311 285 299 c 0,3,4
 285 263 285 263 293 218 c 2,5,-1
 298 190 l 2,6,7
 300 179 300 179 300 178 c 0,8,9
 300 161 300 161 285 154 c 0,10,11
 280 152 280 152 255 147 c 0,12,13
 108 119 108 119 108 33 c 0,14,15
 108 -15 108 -15 150 -61.5 c 128,-1,16
 192 -108 192 -108 239 -108 c 0,17,18
 255 -108 255 -108 270 -102 c 2,19,-1
 295 -92 l 2,20,21
 305 -88 305 -88 316 -88 c 0,22,23
 359 -88 359 -88 359 -129 c 0,24,25
 359 -160 359 -160 329 -175 c 0,26,27
 306 -188 306 -188 272 -188 c 0,28,29
 193 -188 193 -188 126 -103 c 0,30,31
 47 -3 47 -3 47 77 c 0,32,33
 47 137 47 137 89 175 c 0,34,35
 120 203 120 203 186 226 c 0,36,37
 225 239 225 239 237 260 c 0,38,39
 248 278 248 278 250 322 c 1,0,-1
204 440 m 256,40,41
 204 465 204 465 221.5 482.5 c 128,-1,42
 239 500 239 500 264 500 c 256,43,44
 289 500 289 500 307 482.5 c 128,-1,45
 325 465 325 465 325 440 c 256,46,47
 325 415 325 415 307 397.5 c 128,-1,48
 289 380 289 380 264 380 c 256,49,50
 239 380 239 380 221.5 397.5 c 128,-1,51
 204 415 204 415 204 440 c 256,40,41
EndSplineSet
EndChar
StartChar: quotesinglebase
Encoding: 65546 -1 183
Width: 325
Flags: W
LayerCount: 2
Fore
SplineSet
114 -150 m 1,0,-1
 114 -131 l 1,1,2
 153 -109 153 -109 169 -92 c 0,3,4
 193 -67 193 -67 193 -32 c 0,5,6
 193 -3 193 -3 176 -3 c 0,7,8
 170 -3 170 -3 158 -6.5 c 128,-1,9
 146 -10 146 -10 140 -10 c 0,10,11
 120 -10 120 -10 105.5 4 c 128,-1,12
 91 18 91 18 91 38 c 0,13,14
 91 62 91 62 110.5 78.5 c 128,-1,15
 130 95 130 95 155 95 c 0,16,17
 190 95 190 95 213.5 65.5 c 128,-1,18
 237 36 237 36 237 0 c 0,19,20
 237 -56 237 -56 203 -95.5 c 128,-1,21
 169 -135 169 -135 114 -150 c 1,0,-1
EndSplineSet
EndChar
StartChar: register
Encoding: 65547 -1 184
Width: 500
Flags: W
LayerCount: 2
Fore
SplineSet
198 641 m 1,0,-1
 198 576 l 1,1,-1
 248 576 l 2,2,3
 304 576 304 576 304 608 c 0,4,5
 304 641 304 641 252 641 c 2,6,-1
 198 641 l 1,0,-1
167 666 m 1,7,-1
 258 666 l 2,8,9
 334 666 334 666 334 610 c 0,10,11
 334 585 334 585 309 566 c 1,12,-1
 315 556 l 1,13,-1
 325 543 l 2,14,15
 329 535 329 535 331 513 c 2,16,-1
 332 499 l 1,17,-1
 333 489 l 2,18,19
 333 485 333 485 333.5 482 c 128,-1,20
 334 479 334 479 336 473 c 0,21,22
 336 471 336 471 338 467 c 1,23,-1
 308 467 l 1,24,25
 303 477 303 477 302 501 c 0,26,27
 301 533 301 533 291 541.5 c 128,-1,28
 281 550 281 550 248 550 c 2,29,-1
 198 550 l 1,30,-1
 198 467 l 1,31,-1
 167 467 l 1,32,-1
 167 666 l 1,7,-1
250 725 m 256,33,34
 183 725 183 725 136 678.5 c 128,-1,35
 89 632 89 632 89 565 c 256,36,37
 89 498 89 498 136 451.5 c 128,-1,38
 183 405 183 405 250 405 c 0,39,40
 316 405 316 405 363 452 c 128,-1,41
 410 499 410 499 410 565 c 0,42,43
 410 632 410 632 363.5 678.5 c 128,-1,44
 317 725 317 725 250 725 c 256,33,34
250 754 m 256,45,46
 329 754 329 754 384.5 699 c 128,-1,47
 440 644 440 644 440 565 c 256,48,49
 440 486 440 486 384.5 431.5 c 128,-1,50
 329 377 329 377 250 377 c 256,51,52
 171 377 171 377 115 431.5 c 128,-1,53
 59 486 59 486 59 565 c 256,54,55
 59 644 59 644 115 699 c 128,-1,56
 171 754 171 754 250 754 c 256,45,46
EndSplineSet
EndChar
StartChar: sumnation
Encoding: 65548 -1 185
Width: 666
Flags: W
LayerCount: 2
Fore
SplineSet
594 750 m 1,0,-1
 594 531 l 1,1,-1
 552 531 l 1,2,-1
 546 710 l 1,3,-1
 83 710 l 1,4,-1
 340 271 l 1,5,-1
 80 -210 l 1,6,-1
 557 -210 l 1,7,-1
 560 -32 l 1,8,-1
 603 -32 l 1,9,-1
 603 -250 l 1,10,-1
 24 -250 l 1,11,-1
 24 -206 l 1,12,-1
 283 273 l 1,13,-1
 24 707 l 1,14,-1
 24 750 l 1,15,-1
 594 750 l 1,0,-1
EndSplineSet
EndChar
